{"glyphs":{"0":{"ha":878,"x_min":0,"x_max":0,"o":"m 439 -14 b 44 500 193 -14 44 179 b 439 1014 44 821 193 1014 b 833 500 686 1014 833 821 b 439 -14 833 179 686 -14 m 208 500 b 439 150 208 269 288 150 b 669 500 590 150 669 269 b 439 850 669 731 590 850 b 208 500 288 850 208 731 "},"1":{"ha":514,"x_min":0,"x_max":0,"o":"m 299 1000 l 442 1000 l 442 0 l 278 0 l 278 807 l 92 703 l 19 847 "},"2":{"ha":754,"x_min":0,"x_max":0,"o":"m 35 779 b 360 1014 78 919 207 1014 b 686 707 546 1014 686 882 b 506 357 686 586 633 485 l 311 164 l 704 164 l 704 0 l 51 0 l 51 138 l 389 472 b 522 701 458 540 522 611 b 358 850 522 788 454 850 b 188 718 275 850 210 799 "},"3":{"ha":724,"x_min":0,"x_max":0,"o":"m 347 -14 b 11 224 192 -14 63 78 l 161 290 b 351 146 192 200 263 146 b 531 306 457 146 531 211 b 344 472 531 404 454 472 b 285 463 324 472 303 469 l 207 579 l 414 836 l 71 836 l 71 1000 l 646 1000 l 646 864 l 439 610 b 694 306 589 589 694 468 b 347 -14 694 117 551 -14 "},"4":{"ha":797,"x_min":0,"x_max":0,"o":"m 25 344 l 367 1000 l 551 1000 l 222 369 l 494 369 l 494 586 l 658 586 l 658 369 l 772 369 l 772 206 l 658 206 l 658 0 l 494 0 l 494 206 l 25 206 "},"5":{"ha":728,"x_min":0,"x_max":0,"o":"m 346 -14 b 11 224 190 -14 63 78 l 161 290 b 347 150 189 201 257 150 b 535 324 457 150 535 221 b 347 506 535 436 468 506 b 201 463 297 506 240 488 l 54 463 l 96 1000 l 650 1000 l 650 836 l 251 836 l 236 651 b 344 668 267 660 310 668 b 699 326 557 668 699 529 b 346 -14 699 129 547 -14 "},"6":{"ha":764,"x_min":0,"x_max":0,"o":"m 382 -14 b 31 326 188 -14 31 132 b 88 524 31 397 51 465 l 385 1000 l 575 1000 l 375 671 b 408 672 386 672 397 672 b 735 333 596 672 735 517 b 382 -14 735 139 578 -14 m 194 332 b 382 150 194 231 276 150 b 568 332 486 150 568 231 b 382 513 568 433 486 513 b 194 332 276 513 194 432 "},"7":{"ha":696,"x_min":0,"x_max":0,"o":"m 671 1000 l 671 865 l 319 0 l 143 0 l 485 836 l 18 836 l 18 1000 "},"8":{"ha":796,"x_min":0,"x_max":0,"o":"m 399 -14 b 31 279 138 -14 31 117 b 168 514 31 399 90 471 b 57 731 106 557 57 621 b 399 1014 57 900 197 1014 b 739 731 599 1014 739 900 b 628 514 739 621 690 557 b 765 279 706 471 765 399 b 399 -14 765 117 658 -14 m 194 288 b 399 147 194 204 256 147 b 601 288 540 147 601 204 b 399 428 601 379 515 428 b 194 288 281 428 194 379 m 219 719 b 399 585 219 638 292 585 b 576 719 504 585 576 638 b 399 854 576 800 513 854 b 219 719 283 854 219 800 "},"9":{"ha":764,"x_min":0,"x_max":0,"o":"m 31 667 b 383 1014 31 861 186 1014 b 735 674 576 1014 735 868 b 676 476 735 603 713 535 l 379 0 l 189 0 l 390 329 b 356 328 379 328 368 328 b 31 667 169 328 31 485 m 197 669 b 383 488 197 568 279 488 b 571 668 489 488 571 568 b 383 850 571 769 488 850 b 197 669 279 850 197 769 "},"\u0000":{"ha":0,"x_min":0,"x_max":0,"o":""},"\r":{"ha":347,"x_min":0,"x_max":0,"o":""}," ":{"ha":358,"x_min":0,"x_max":0,"o":""},"o":{"ha":811,"x_min":0,"x_max":0,"o":"m 406 708 b 767 347 606 708 767 547 b 406 -14 767 149 606 -14 b 44 347 207 -14 44 149 b 406 708 44 547 207 708 m 208 347 b 406 150 208 239 297 150 b 603 347 514 150 603 239 b 406 544 603 456 514 544 b 208 347 297 544 208 456 "},"n":{"ha":806,"x_min":0,"x_max":0,"o":"m 81 0 l 81 694 l 244 694 l 244 619 b 453 708 296 674 371 708 b 725 418 614 708 725 594 l 725 0 l 561 0 l 561 383 b 413 554 561 500 500 554 b 244 375 318 554 244 485 l 244 0 "},"A":{"ha":968,"x_min":0,"x_max":0,"o":"m 14 0 l 394 1000 l 574 1000 l 954 0 l 778 0 l 699 207 l 269 207 l 190 0 m 640 371 l 485 781 l 328 371 "},"B":{"ha":889,"x_min":0,"x_max":0,"o":"m 532 1000 b 814 732 688 1000 814 888 b 710 526 814 647 775 574 b 846 286 794 475 846 389 b 546 0 846 121 711 0 l 103 0 l 103 1000 m 267 436 l 267 164 l 546 164 b 682 300 621 164 682 225 b 546 436 682 375 621 436 m 267 836 l 267 600 l 535 600 b 650 718 599 600 650 654 b 532 836 650 783 597 836 "},"C":{"ha":975,"x_min":0,"x_max":0,"o":"m 50 500 b 564 1014 50 783 281 1014 b 940 850 713 1014 846 951 l 825 733 b 564 850 760 806 667 850 b 214 500 371 850 214 693 b 564 150 214 307 371 150 b 825 267 667 150 760 194 l 940 150 b 564 -14 846 50 713 -14 b 50 500 281 -14 50 217 "},"D":{"ha":1021,"x_min":0,"x_max":0,"o":"m 103 1000 l 488 1000 b 971 500 768 1000 971 792 b 488 0 971 208 769 0 l 103 0 m 267 164 l 488 164 b 807 500 678 164 807 300 b 488 836 807 700 678 836 l 267 836 "},"E":{"ha":800,"x_min":0,"x_max":0,"o":"m 103 0 l 103 1000 l 750 1000 l 750 836 l 267 836 l 267 601 l 694 601 l 694 438 l 267 438 l 267 164 l 750 164 l 750 0 "},"F":{"ha":786,"x_min":0,"x_max":0,"o":"m 103 0 l 103 1000 l 750 1000 l 750 836 l 267 836 l 267 601 l 694 601 l 694 438 l 267 438 l 267 0 "},"G":{"ha":1024,"x_min":0,"x_max":0,"o":"m 50 500 b 553 1014 50 792 268 1014 b 954 831 710 1014 860 946 l 838 715 b 558 850 774 800 669 850 b 214 500 358 850 214 703 b 558 150 214 297 358 150 b 786 215 640 150 721 174 l 786 383 l 554 383 l 554 547 l 950 547 l 950 139 b 558 -14 844 39 701 -14 b 50 500 272 -14 50 208 "},"H":{"ha":992,"x_min":0,"x_max":0,"o":"m 103 0 l 103 1000 l 267 1000 l 267 601 l 726 601 l 726 1000 l 890 1000 l 890 0 l 726 0 l 726 438 l 267 438 l 267 0 "},"I":{"ha":369,"x_min":0,"x_max":0,"o":"m 267 0 l 103 0 l 103 1000 l 267 1000 "},"K":{"ha":861,"x_min":0,"x_max":0,"o":"m 103 0 l 103 1000 l 267 1000 l 267 610 l 633 1000 l 840 1000 l 400 525 l 856 0 l 650 0 l 267 438 l 267 0 "},"L":{"ha":778,"x_min":0,"x_max":0,"o":"m 267 1000 l 267 164 l 743 164 l 743 0 l 103 0 l 103 1000 "},"M":{"ha":1131,"x_min":0,"x_max":0,"o":"m 103 1000 l 242 1000 l 565 417 l 889 1000 l 1028 1000 l 1028 0 l 864 0 l 864 607 l 626 182 l 504 182 l 267 607 l 267 0 l 103 0 "},"N":{"ha":992,"x_min":0,"x_max":0,"o":"m 103 1000 l 254 1000 l 726 311 l 726 1000 l 890 1000 l 890 0 l 738 0 l 267 689 l 267 0 l 103 0 "},"O":{"ha":1128,"x_min":0,"x_max":0,"o":"m 564 -14 b 50 500 281 -14 50 217 b 564 1014 50 783 281 1014 b 1078 500 847 1014 1078 783 b 564 -14 1078 217 847 -14 m 214 500 b 564 150 214 307 371 150 b 914 500 757 150 914 307 b 564 850 914 693 757 850 b 214 500 371 850 214 693 "},"P":{"ha":879,"x_min":0,"x_max":0,"o":"m 103 1000 l 519 1000 b 840 657 704 1000 840 854 b 519 314 840 460 704 314 l 267 314 l 267 0 l 103 0 m 267 836 l 267 478 l 497 478 b 678 657 607 478 678 549 b 499 836 678 767 608 836 "},"Q":{"ha":1128,"x_min":0,"x_max":0,"o":"m 50 500 b 564 1014 50 783 281 1014 b 1078 500 847 1014 1078 783 b 954 167 1078 372 1031 256 l 1054 56 l 933 -54 l 828 61 b 564 -14 751 14 661 -14 b 50 500 281 -14 50 217 m 564 850 b 214 500 371 850 214 693 b 564 150 214 307 371 150 b 713 189 618 150 668 164 l 614 297 l 736 407 l 842 290 b 914 500 886 349 914 421 b 564 850 914 693 757 850 "},"R":{"ha":907,"x_min":0,"x_max":0,"o":"m 103 1000 l 542 1000 b 863 657 726 1000 863 854 b 714 372 863 533 804 429 l 886 0 l 706 0 l 560 315 b 531 314 550 314 540 314 l 267 314 l 267 0 l 103 0 m 267 478 l 519 478 b 700 657 629 478 700 549 b 521 836 700 767 631 836 l 267 836 "},"S":{"ha":865,"x_min":0,"x_max":0,"o":"m 136 267 b 443 150 224 189 321 150 b 658 282 569 150 658 207 b 406 446 658 358 576 397 b 76 735 243 492 76 556 b 435 1014 76 911 229 1014 b 797 854 571 1014 711 953 l 681 739 b 424 850 615 811 522 850 b 242 736 308 850 242 807 b 476 597 242 674 315 643 b 822 286 661 544 822 469 b 438 -15 822 103 646 -15 b 25 147 272 -15 136 44 "},"T":{"ha":843,"x_min":0,"x_max":0,"o":"m 26 836 l 26 1000 l 817 1000 l 817 836 l 504 836 l 504 0 l 340 0 l 340 836 "},"U":{"ha":983,"x_min":0,"x_max":0,"o":"m 492 -14 b 103 385 261 -14 103 149 l 103 1000 l 267 1000 l 267 385 b 492 149 267 240 354 149 b 717 385 631 149 717 240 l 717 1000 l 881 1000 l 881 385 b 492 -14 881 149 722 -14 "},"V":{"ha":908,"x_min":0,"x_max":0,"o":"m 7 1000 l 182 1000 l 454 261 l 728 1000 l 901 1000 l 536 0 l 372 0 "},"W":{"ha":1368,"x_min":0,"x_max":0,"o":"m 7 1000 l 183 1000 l 393 274 l 603 1000 l 764 1000 l 975 274 l 1185 1000 l 1361 1000 l 1054 0 l 896 0 l 683 683 l 472 0 l 314 0 "},"X":{"ha":882,"x_min":0,"x_max":0,"o":"m 15 0 l 344 514 l 32 1000 l 228 1000 l 442 667 l 656 1000 l 850 1000 l 539 514 l 867 0 l 672 0 l 442 360 l 210 0 "},"Y":{"ha":878,"x_min":0,"x_max":0,"o":"m 6 1000 l 189 1000 l 439 518 l 689 1000 l 872 1000 l 521 333 l 521 0 l 357 0 l 357 333 "},"Z":{"ha":856,"x_min":0,"x_max":0,"o":"m 772 1000 l 772 865 l 289 164 l 801 164 l 801 0 l 68 0 l 68 135 l 551 836 l 94 836 l 94 1000 "},".":{"ha":350,"x_min":0,"x_max":0,"o":"m 72 89 b 175 192 72 146 118 192 b 278 89 232 192 278 146 b 175 -14 278 32 232 -14 b 72 89 118 -14 72 32 "},"a":{"ha":847,"x_min":0,"x_max":0,"o":"m 44 347 b 389 708 44 546 190 708 b 603 608 476 708 557 663 l 603 694 l 767 694 l 767 0 l 603 0 l 603 89 b 389 -14 557 32 476 -14 b 44 347 190 -14 44 149 m 406 544 b 208 347 297 544 208 456 b 406 150 208 239 297 150 b 603 347 514 150 603 239 b 406 544 603 456 514 544 "},"b":{"ha":847,"x_min":0,"x_max":0,"o":"m 81 1000 l 244 1000 l 244 608 b 458 708 290 663 371 708 b 803 347 658 708 803 546 b 458 -14 803 149 658 -14 b 244 89 371 -14 290 32 l 244 0 l 81 0 m 442 544 b 244 347 333 544 244 456 b 442 150 244 239 333 150 b 639 347 550 150 639 239 b 442 544 639 456 550 544 "},"c":{"ha":697,"x_min":0,"x_max":0,"o":"m 406 -14 b 44 347 207 -14 44 149 b 406 708 44 547 207 708 b 667 596 508 708 601 665 l 551 481 b 406 544 515 519 463 544 b 208 347 297 544 208 456 b 406 150 208 239 297 150 b 551 215 463 150 515 175 l 667 99 b 406 -14 601 29 508 -14 "},"d":{"ha":847,"x_min":0,"x_max":0,"o":"m 44 347 b 389 708 44 546 190 708 b 603 608 476 708 557 663 l 603 1000 l 767 1000 l 767 0 l 603 0 l 603 89 b 389 -14 557 32 476 -14 b 44 347 190 -14 44 149 m 406 544 b 208 347 297 544 208 456 b 406 150 208 239 297 150 b 603 347 514 150 603 239 b 406 544 603 456 514 544 "},"e":{"ha":775,"x_min":0,"x_max":0,"o":"m 44 347 b 399 708 44 551 197 708 b 731 357 596 708 731 564 b 724 274 731 331 726 301 l 207 274 b 415 135 235 188 313 135 b 588 204 482 135 546 158 l 692 100 b 414 -14 625 26 528 -14 b 44 347 204 -14 44 143 m 396 561 b 204 401 300 561 218 497 l 576 401 b 396 561 563 500 489 561 "},"f":{"ha":496,"x_min":0,"x_max":0,"o":"m 22 531 l 22 694 l 139 694 l 139 732 b 417 1014 139 932 246 1014 l 474 1014 l 474 856 l 431 856 b 303 721 349 856 303 826 l 303 694 l 474 694 l 474 531 l 303 531 l 303 0 l 139 0 l 139 531 "},"g":{"ha":847,"x_min":0,"x_max":0,"o":"m 44 347 b 389 708 44 546 190 708 b 603 608 476 708 557 663 l 603 694 l 767 694 l 767 14 b 396 -319 767 -193 626 -319 b 89 -207 286 -319 171 -282 l 203 -93 b 399 -164 257 -139 331 -164 b 603 3 528 -164 603 -101 l 603 89 b 389 -14 557 32 476 -14 b 44 347 190 -14 44 149 m 406 544 b 208 347 297 544 208 456 b 406 150 208 239 297 150 b 603 347 514 150 603 239 b 406 544 603 456 514 544 "},"h":{"ha":806,"x_min":0,"x_max":0,"o":"m 81 0 l 81 1000 l 244 1000 l 244 619 b 453 708 296 674 371 708 b 725 418 614 708 725 594 l 725 0 l 561 0 l 561 383 b 413 554 561 500 500 554 b 244 375 318 554 244 485 l 244 0 "},"i":{"ha":325,"x_min":0,"x_max":0,"o":"m 81 0 l 81 694 l 244 694 l 244 0 m 65 917 b 163 1014 65 969 108 1014 b 260 917 217 1014 260 969 b 163 818 260 863 217 818 b 65 917 108 818 65 863 "},"j":{"ha":325,"x_min":0,"x_max":0,"o":"m -4 -161 b 81 -49 61 -161 81 -135 l 81 694 l 244 694 l 244 -51 b 4 -319 244 -231 171 -319 l -17 -319 l -17 -161 m 65 917 b 163 1014 65 971 108 1014 b 260 917 217 1014 260 971 b 163 818 260 863 217 818 b 65 917 108 818 65 863 "},"k":{"ha":718,"x_min":0,"x_max":0,"o":"m 81 0 l 81 1000 l 244 1000 l 244 410 l 483 694 l 690 694 l 408 360 l 707 0 l 501 0 l 244 310 l 244 0 "},"l":{"ha":325,"x_min":0,"x_max":0,"o":"m 244 0 l 81 0 l 81 1042 l 244 1042 "},"m":{"ha":1286,"x_min":0,"x_max":0,"o":"m 81 694 l 244 694 l 244 619 b 453 708 296 674 371 708 b 686 578 558 708 642 660 b 933 708 749 657 822 708 b 1206 418 1094 708 1206 594 l 1206 0 l 1042 0 l 1042 383 b 893 554 1042 500 981 554 b 725 378 799 554 725 485 l 725 0 l 561 0 l 561 383 b 413 554 561 500 500 554 b 244 375 318 554 244 485 l 244 0 l 81 0 "},"p":{"ha":847,"x_min":0,"x_max":0,"o":"m 81 694 l 244 694 l 244 606 b 458 708 290 663 371 708 b 803 347 658 708 803 547 b 458 -14 803 149 658 -14 b 244 88 371 -14 290 32 l 244 -331 l 81 -331 m 442 544 b 244 347 333 544 244 456 b 442 150 244 239 333 150 b 639 347 550 150 639 239 b 442 544 639 456 550 544 "},"q":{"ha":847,"x_min":0,"x_max":0,"o":"m 44 347 b 389 708 44 547 190 708 b 603 606 476 708 557 663 l 603 694 l 767 694 l 767 -306 l 603 -306 l 603 88 b 389 -14 557 32 476 -14 b 44 347 190 -14 44 149 m 406 544 b 208 347 297 544 208 456 b 406 150 208 239 297 150 b 603 347 514 150 603 239 b 406 544 603 456 514 544 "},"r":{"ha":478,"x_min":0,"x_max":0,"o":"m 81 0 l 81 694 l 244 694 l 244 615 b 453 708 292 671 364 708 l 453 553 b 435 554 447 554 440 554 b 244 375 331 554 244 481 l 244 0 "},"s":{"ha":656,"x_min":0,"x_max":0,"o":"m 128 217 b 338 135 182 169 260 135 b 461 201 407 135 461 164 b 322 292 461 260 374 278 b 54 506 208 324 54 357 b 326 708 54 624 169 708 b 603 607 435 708 535 668 l 513 496 b 326 560 463 539 393 560 b 219 504 254 560 219 535 b 364 433 219 467 289 451 b 625 203 501 401 625 353 b 333 -14 625 78 501 -14 b 31 104 218 -14 114 28 "},"t":{"ha":543,"x_min":0,"x_max":0,"o":"m 92 694 b 153 754 128 694 153 718 l 153 881 l 317 881 l 317 694 l 493 694 l 493 531 l 317 531 l 317 282 b 400 144 317 172 333 144 b 493 156 431 144 458 149 l 493 0 b 378 -14 461 -8 415 -14 b 153 233 219 -14 153 58 l 153 531 l 25 531 l 25 694 "},"u":{"ha":806,"x_min":0,"x_max":0,"o":"m 244 694 l 244 311 b 393 140 244 196 306 140 b 561 319 488 140 561 211 l 561 694 l 725 694 l 725 0 l 561 0 l 561 75 b 353 -14 510 21 435 -14 b 81 276 192 -14 81 100 l 81 694 "},"v":{"ha":782,"x_min":0,"x_max":0,"o":"m 11 694 l 189 694 l 392 200 l 593 694 l 771 694 l 483 0 l 300 0 "},"w":{"ha":1033,"x_min":0,"x_max":0,"o":"m 11 694 l 183 694 l 314 249 l 442 694 l 592 694 l 719 249 l 850 694 l 1022 694 l 807 0 l 631 0 l 517 371 l 401 0 l 226 0 "},"x":{"ha":774,"x_min":0,"x_max":0,"o":"m 11 0 l 285 360 l 31 694 l 235 694 l 388 497 l 539 694 l 743 694 l 489 360 l 763 0 l 557 0 l 388 222 l 217 0 "},"y":{"ha":768,"x_min":0,"x_max":0,"o":"m 11 694 l 189 694 l 389 206 l 579 694 l 757 694 l 431 -125 b 154 -319 378 -257 283 -319 b 90 -318 133 -319 111 -319 l 90 -160 b 129 -161 103 -160 115 -161 b 271 -64 194 -161 239 -136 l 299 0 "},"z":{"ha":681,"x_min":0,"x_max":0,"o":"m 614 694 l 614 574 l 276 153 l 635 153 l 635 0 l 57 0 l 57 122 l 393 542 l 74 542 l 74 694 "},",":{"ha":299,"x_min":0,"x_max":0,"o":"m 72 171 l 240 171 l 171 -206 l 44 -206 "},"-":{"ha":604,"x_min":0,"x_max":0,"o":"m 83 443 l 521 443 l 521 279 l 83 279 "},"+":{"ha":713,"x_min":0,"x_max":0,"o":"m 58 418 l 58 582 l 275 582 l 275 799 l 439 799 l 439 582 l 654 582 l 654 418 l 439 418 l 439 203 l 275 203 l 275 418 "},"*":{"ha":582,"x_min":0,"x_max":0,"o":"m 239 1000 l 343 1000 l 343 942 l 335 811 l 456 861 l 511 879 l 543 779 l 488 761 l 361 729 l 444 629 l 479 582 l 394 521 l 360 568 l 292 678 l 222 568 l 188 521 l 103 582 l 138 629 l 221 729 l 94 761 l 39 779 l 71 879 l 126 861 l 247 811 l 239 942 "},"^":{"ha":765,"x_min":0,"x_max":0,"o":"m 39 493 l 311 1000 l 454 1000 l 726 493 l 557 493 l 382 818 l 208 493 "},"˜":{"ha":631,"x_min":0,"x_max":0,"o":"m 72 832 b 218 1014 75 953 124 1014 b 406 932 324 1014 344 932 b 449 1000 436 932 447 951 l 558 1000 b 414 815 557 878 508 815 b 226 899 308 815 286 899 b 182 832 196 899 183 879 l 72 832 "},"/":{"ha":761,"x_min":0,"x_max":0,"o":"m 0 -153 l 606 1125 l 761 1125 l 156 -153 "},"\\":{"ha":761,"x_min":0,"x_max":0,"o":"m 0 1125 l 156 1125 l 761 -153 l 606 -153 "},":":{"ha":350,"x_min":0,"x_max":0,"o":"m 72 89 b 175 192 72 146 118 192 b 278 89 232 192 278 146 b 175 -14 278 32 232 -14 b 72 89 118 -14 72 32 m 175 469 b 72 572 118 469 72 515 b 175 675 72 629 118 675 b 278 572 232 675 278 629 b 175 469 278 515 232 469 "},";":{"ha":350,"x_min":0,"x_max":0,"o":"m 93 171 l 247 171 l 178 -197 l 65 -197 m 72 572 b 175 675 72 629 118 675 b 278 572 232 675 278 629 b 175 469 278 515 232 469 b 72 572 118 469 72 515 "},"<":{"ha":713,"x_min":0,"x_max":0,"o":"m 54 579 l 658 813 l 658 643 l 292 500 l 658 358 l 658 189 l 54 422 "},"=":{"ha":713,"x_min":0,"x_max":0,"o":"m 654 440 l 654 276 l 58 276 l 58 440 m 58 724 l 654 724 l 654 560 l 58 560 "},">":{"ha":713,"x_min":0,"x_max":0,"o":"m 54 189 l 54 358 l 421 500 l 54 643 l 54 813 l 658 579 l 658 422 "},"!":{"ha":369,"x_min":0,"x_max":0,"o":"m 103 1000 l 267 1000 l 267 635 l 249 288 l 119 288 l 103 635 m 82 89 b 185 192 82 146 128 192 b 288 89 242 192 288 146 b 185 -14 288 32 242 -14 b 82 89 128 -14 82 32 "},"?":{"ha":756,"x_min":0,"x_max":0,"o":"m 49 779 b 379 1014 92 918 225 1014 b 693 722 571 1014 693 893 b 535 463 693 599 607 532 b 438 288 469 399 439 353 l 269 288 b 422 556 272 394 333 471 b 528 719 479 610 528 654 b 381 850 528 797 476 850 b 201 718 293 850 224 796 l 49 779 m 356 -14 b 253 89 299 -14 253 32 b 356 192 253 146 299 192 b 458 89 413 192 458 146 b 356 -14 458 32 413 -14 "},"'":{"ha":242,"x_min":0,"x_max":0,"o":"m 50 1000 l 192 1000 l 192 878 l 179 646 l 63 646 l 50 878 "},"\"":{"ha":439,"x_min":0,"x_max":0,"o":"m 50 878 l 50 1000 l 189 1000 l 189 878 l 176 646 l 63 646 m 250 1000 l 389 1000 l 389 878 l 376 646 l 263 646 l 250 878 "},"#":{"ha":883,"x_min":0,"x_max":0,"o":"m 63 436 l 203 436 l 228 564 l 88 564 l 115 703 l 254 703 l 297 931 l 439 931 l 396 703 l 567 703 l 610 931 l 751 931 l 708 703 l 847 703 l 821 564 l 681 564 l 656 436 l 796 436 l 769 297 l 629 297 l 585 69 l 444 69 l 489 297 l 317 297 l 272 69 l 132 69 l 176 297 l 36 297 m 515 436 l 540 564 l 368 564 l 343 436 "},"@":{"ha":1128,"x_min":0,"x_max":0,"o":"m 50 313 b 569 826 50 597 276 826 b 1078 313 857 826 1078 603 b 844 -14 1078 132 993 -14 b 699 100 767 -14 715 31 l 696 111 b 529 32 660 68 597 32 b 261 313 374 32 261 158 b 529 594 261 468 374 594 b 696 517 597 594 660 560 l 696 583 l 828 583 l 828 188 b 878 103 828 129 843 103 b 979 313 933 103 979 196 b 568 728 979 547 801 728 b 149 313 332 728 149 542 b 594 -104 149 47 344 -104 b 807 -71 671 -104 744 -93 l 835 -162 b 590 -206 761 -189 676 -206 b 50 313 285 -206 50 -8 m 542 463 b 393 313 460 463 393 396 b 542 164 393 231 460 164 b 692 313 625 164 692 231 b 542 463 692 396 625 463 "},"%":{"ha":1228,"x_min":0,"x_max":0,"o":"m 44 760 b 300 1014 44 900 158 1014 b 554 760 440 1014 554 900 b 300 504 554 618 440 504 b 44 760 158 504 44 618 m 929 496 b 1183 242 1069 496 1183 382 b 929 -14 1183 100 1069 -14 b 674 242 788 -14 674 100 b 929 496 674 382 788 496 m 206 0 l 885 1000 l 1021 1000 l 343 0 m 929 118 b 1051 242 996 118 1051 174 b 929 364 1051 308 996 364 b 807 242 861 364 807 308 b 929 118 807 174 861 118 m 176 760 b 300 636 176 692 232 636 b 422 760 367 636 422 692 b 300 882 422 826 367 882 b 176 760 232 882 176 826 "},"&":{"ha":950,"x_min":0,"x_max":0,"o":"m 44 269 b 247 540 44 419 147 497 b 160 757 197 606 160 679 b 440 1014 160 921 285 1014 b 721 757 596 1014 721 925 b 493 499 721 617 619 549 b 550 443 514 478 533 460 l 697 299 b 735 432 719 339 732 383 l 883 407 b 811 183 879 324 853 247 l 917 78 l 813 -35 l 701 76 b 403 -15 622 18 519 -15 b 44 269 186 -15 44 94 m 213 279 b 408 140 213 192 290 140 b 586 193 479 140 539 160 l 431 346 b 339 436 403 374 371 403 b 213 279 272 403 213 360 m 440 861 b 322 753 378 861 322 822 b 397 597 322 700 356 646 b 557 753 490 639 557 679 b 440 861 557 822 501 861 "},"(":{"ha":432,"x_min":0,"x_max":0,"o":"m 421 1111 b 226 458 288 932 226 696 b 421 -194 226 221 288 -15 l 239 -194 b 65 458 124 -26 65 217 b 239 1111 65 700 124 943 "},")":{"ha":432,"x_min":0,"x_max":0,"o":"m 11 -194 b 206 458 144 -15 206 221 b 11 1111 206 696 144 932 l 193 1111 b 367 458 308 943 367 700 b 193 -194 367 217 308 -26 "},"{":{"ha":439,"x_min":0,"x_max":0,"o":"m 44 524 b 160 629 131 524 160 568 l 160 864 b 411 1111 160 1031 243 1111 l 411 967 b 315 850 336 967 315 942 l 315 607 b 218 458 315 540 281 486 b 315 310 281 431 315 376 l 315 67 b 411 -50 315 -25 336 -50 l 411 -194 b 160 53 243 -194 160 -114 l 160 288 b 44 392 160 349 131 392 "},"|":{"ha":342,"x_min":0,"x_max":0,"o":"m 253 -153 l 89 -153 l 89 1125 l 253 1125 "},"}":{"ha":439,"x_min":0,"x_max":0,"o":"m 28 1111 b 279 864 196 1111 279 1031 l 279 629 b 394 524 279 568 308 524 l 394 392 b 279 288 308 392 279 349 l 279 53 b 28 -194 279 -114 196 -194 l 28 -50 b 124 67 103 -50 124 -25 l 124 310 b 221 458 124 376 158 431 b 124 607 158 486 124 540 l 124 850 b 28 967 124 942 103 967 "},"[":{"ha":415,"x_min":0,"x_max":0,"o":"m 388 1111 l 388 956 l 250 956 l 250 -39 l 388 -39 l 388 -194 l 89 -194 l 89 1111 "},"]":{"ha":415,"x_min":0,"x_max":0,"o":"m 165 -39 l 165 956 l 28 956 l 28 1111 l 326 1111 l 326 -194 l 28 -194 l 28 -39 "},"‘":{"ha":299,"x_min":0,"x_max":0,"o":"m 226 608 l 58 608 l 128 1000 l 254 1000 "},"’":{"ha":299,"x_min":0,"x_max":0,"o":"m 72 1000 l 240 1000 l 171 608 l 44 608 "},"“":{"ha":518,"x_min":0,"x_max":0,"o":"m 281 608 l 350 1000 l 474 1000 l 446 608 m 156 1000 l 279 1000 l 224 608 l 58 608 "},"”":{"ha":518,"x_min":0,"x_max":0,"o":"m 239 608 l 294 1000 l 460 1000 l 363 608 m 44 608 l 72 1000 l 238 1000 l 168 608 "},"‚":{"ha":299,"x_min":0,"x_max":0,"o":"m 72 171 l 240 171 l 171 -206 l 44 -206 "},"„":{"ha":518,"x_min":0,"x_max":0,"o":"m 239 -206 l 294 171 l 460 171 l 363 -206 m 44 -206 l 72 171 l 238 171 l 168 -206 "},"•":{"ha":636,"x_min":0,"x_max":0,"o":"m 117 478 b 318 679 117 589 207 679 b 519 478 429 679 519 589 b 318 276 519 367 429 276 b 117 478 207 276 117 367 "},"_":{"ha":568,"x_min":0,"x_max":0,"o":"m 0 -78 l 568 -78 l 568 -242 l 0 -242 "},"–":{"ha":710,"x_min":0,"x_max":0,"o":"m 0 443 l 710 443 l 710 279 l 0 279 "},"—":{"ha":1163,"x_min":0,"x_max":0,"o":"m 0 443 l 1163 443 l 1163 279 l 0 279 "},"¯":{"ha":508,"x_min":0,"x_max":0,"o":"m 72 957 l 436 957 l 436 844 l 72 844 "},"¬":{"ha":779,"x_min":0,"x_max":0,"o":"m 58 582 l 721 582 l 721 214 l 557 214 l 557 418 l 58 418 "},"™":{"ha":967,"x_min":0,"x_max":0,"o":"m 482 1000 l 569 1000 l 692 797 l 813 1000 l 900 1000 l 900 617 l 807 617 l 807 811 l 724 661 l 660 661 l 575 811 l 575 617 l 482 617 m 67 1000 l 404 1000 l 404 907 l 282 907 l 282 617 l 189 617 l 189 907 l 67 907 "},"®":{"ha":1128,"x_min":0,"x_max":0,"o":"m 50 500 b 564 1014 50 783 281 1014 b 1078 500 847 1014 1078 783 b 564 -14 1078 217 847 -14 b 50 500 281 -14 50 217 m 564 915 b 149 500 335 915 149 729 b 564 85 149 271 335 85 b 979 500 793 85 979 271 b 564 915 979 729 793 915 m 342 203 l 342 793 l 589 793 b 778 592 697 793 778 707 b 693 425 778 519 744 460 l 794 203 l 671 203 l 585 389 b 574 389 581 389 576 389 l 456 389 l 456 203 m 456 681 l 456 501 l 575 501 b 664 592 629 503 664 535 b 575 681 664 647 629 681 "},"©":{"ha":1128,"x_min":0,"x_max":0,"o":"m 50 500 b 564 1014 50 783 281 1014 b 1078 500 847 1014 1078 783 b 564 -14 1078 217 847 -14 b 50 500 281 -14 50 217 m 564 915 b 149 500 335 915 149 729 b 564 85 149 271 335 85 b 979 500 793 85 979 271 b 564 915 979 729 793 915 m 263 500 b 564 801 263 667 397 801 b 785 706 651 801 731 765 l 704 626 b 564 689 669 664 619 689 b 375 500 460 689 375 604 b 564 311 375 396 460 311 b 704 374 619 311 669 336 l 785 294 b 564 199 731 235 651 199 b 263 500 397 199 263 333 "},"¤":{"ha":740,"x_min":0,"x_max":0,"o":"m 128 836 l 217 747 b 371 793 261 776 314 793 b 525 747 428 793 481 776 l 613 836 l 706 743 l 618 654 b 663 500 646 610 663 557 b 618 346 663 443 646 390 l 706 258 l 613 164 l 525 253 b 371 207 481 224 428 207 b 217 253 314 207 261 224 l 128 164 l 35 258 l 124 346 b 78 500 94 390 78 443 b 124 654 78 557 94 610 l 35 743 m 371 660 b 211 500 283 660 211 589 b 371 340 211 413 282 340 b 529 500 458 340 529 411 b 371 660 529 588 458 660 "},"£":{"ha":729,"x_min":0,"x_max":0,"o":"m 26 156 b 160 339 113 169 160 235 l 160 410 l 39 410 l 39 554 l 160 554 l 160 658 b 475 1014 160 889 271 1014 b 713 947 563 1014 638 992 l 667 796 b 481 850 601 835 549 850 b 321 658 371 850 321 790 l 321 554 l 571 554 l 571 410 l 321 410 l 321 339 b 256 156 321 250 301 192 l 686 156 l 686 0 l 26 0 l 26 156 "},"ƒ":{"ha":647,"x_min":0,"x_max":0,"o":"m -6 -319 l 10 -161 l 21 -161 b 146 -72 90 -161 133 -140 l 231 414 l 103 414 l 119 578 l 260 578 l 300 806 b 574 1014 326 957 426 1014 l 638 1014 l 622 856 l 586 856 b 463 772 519 856 474 838 l 429 578 l 575 578 l 558 414 l 400 414 l 308 -110 b 35 -319 282 -261 182 -319 "},"−":{"ha":713,"x_min":0,"x_max":0,"o":"m 58 582 l 654 582 l 654 418 l 58 418 "},"±":{"ha":713,"x_min":0,"x_max":0,"o":"m 58 525 l 58 689 l 275 689 l 275 893 l 439 893 l 439 689 l 654 689 l 654 525 l 439 525 l 439 319 l 275 319 l 275 525 m 58 232 l 654 232 l 654 68 l 58 68 "},"×":{"ha":713,"x_min":0,"x_max":0,"o":"m 88 347 l 240 500 l 88 653 l 204 768 l 357 615 l 510 768 l 625 653 l 472 500 l 625 347 l 510 232 l 357 385 l 204 232 "},"÷":{"ha":713,"x_min":0,"x_max":0,"o":"m 58 418 l 58 582 l 654 582 l 654 418 m 357 654 b 256 757 300 654 256 700 b 357 860 256 814 300 860 b 460 757 413 860 460 814 b 357 654 460 700 413 654 m 256 243 b 357 346 256 300 300 346 b 460 243 413 346 460 300 b 357 142 460 188 413 142 b 256 243 300 142 256 188 "},"¦":{"ha":342,"x_min":0,"x_max":0,"o":"m 89 -153 l 89 333 l 253 333 l 253 -153 m 253 1125 l 253 639 l 89 639 l 89 1125 "},"¡":{"ha":369,"x_min":0,"x_max":0,"o":"m 103 60 l 119 407 l 249 407 l 267 60 l 267 -306 l 103 -306 m 82 606 b 185 708 82 663 128 708 b 288 606 242 708 288 663 b 185 503 288 549 242 503 b 82 606 128 503 82 549 "},"¿":{"ha":751,"x_min":0,"x_max":0,"o":"m 64 -28 b 222 232 64 96 150 163 b 319 407 288 296 318 342 l 486 407 b 335 140 485 300 422 225 b 228 -25 278 85 228 40 b 376 -156 228 -103 281 -156 b 554 -24 463 -156 532 -101 l 707 -85 b 376 -319 664 -224 531 -319 b 64 -28 186 -319 64 -199 m 400 503 b 299 606 344 503 299 549 b 400 708 299 663 344 708 b 503 606 457 708 503 663 b 400 503 503 549 457 503 "},"ı":{"ha":325,"x_min":0,"x_max":0,"o":"m 244 694 l 244 0 l 81 0 l 81 694 "},"ȷ":{"ha":325,"x_min":0,"x_max":0,"o":"m -17 -161 b 81 -49 69 -161 81 -131 l 81 694 l 244 694 l 244 -51 b 4 -319 244 -231 171 -319 b -17 -319 -4 -319 -11 -319 "},"J":{"ha":878,"x_min":0,"x_max":0,"o":"m 404 -14 b 24 207 246 -14 108 65 l 160 299 b 399 150 211 206 301 150 b 613 364 529 150 613 235 l 613 836 l 206 836 l 206 1000 l 776 1000 l 776 364 b 404 -14 776 144 621 -14 "},"€":{"ha":772,"x_min":0,"x_max":0,"o":"m 64 456 b 63 500 63 471 63 485 b 64 544 63 515 63 531 l 8 544 l 8 667 l 82 667 b 507 1014 133 868 282 1014 b 753 947 600 1014 682 989 l 707 796 b 513 850 647 832 585 850 b 256 667 381 850 294 775 l 588 667 l 588 544 l 228 544 b 226 500 226 531 226 515 b 228 456 226 485 226 471 l 588 456 l 588 333 l 256 333 b 513 150 294 225 381 150 b 707 204 585 150 647 168 l 753 54 b 507 -14 682 11 599 -14 b 82 333 282 -14 133 132 l 8 333 l 8 456 "},"$":{"ha":865,"x_min":0,"x_max":0,"o":"m 136 267 b 443 150 225 186 325 150 b 658 282 522 150 658 182 b 388 451 658 386 474 426 b 76 735 247 493 76 557 b 350 1006 76 883 186 982 l 350 1125 l 514 1125 l 514 1006 b 797 854 625 988 728 933 l 681 739 b 424 850 614 811 521 850 b 242 736 346 850 242 828 b 476 597 242 656 379 625 b 822 286 647 549 822 471 b 514 -8 822 128 689 17 l 514 -125 l 350 -125 l 350 -8 b 25 147 224 8 114 63 "},"¢":{"ha":697,"x_min":0,"x_max":0,"o":"m 38 458 b 307 806 38 626 153 767 l 307 917 l 471 917 l 471 811 b 660 707 544 797 610 760 l 543 592 b 399 656 507 632 454 656 b 201 458 290 656 201 567 b 399 261 201 350 290 261 b 544 326 454 261 507 285 l 660 210 b 471 106 610 157 544 119 l 471 0 l 307 0 l 307 111 b 38 458 153 150 38 290 "},"«":{"ha":832,"x_min":0,"x_max":0,"o":"m 240 621 l 443 621 l 274 361 l 443 101 l 240 101 l 72 361 m 389 361 l 558 621 l 760 621 l 590 361 l 760 101 l 558 101 "},"‹":{"ha":515,"x_min":0,"x_max":0,"o":"m 72 361 l 240 621 l 443 621 l 274 361 l 443 101 l 240 101 "},"›":{"ha":515,"x_min":0,"x_max":0,"o":"m 72 101 l 242 361 l 72 621 l 274 621 l 443 361 l 274 101 "},"»":{"ha":832,"x_min":0,"x_max":0,"o":"m 389 101 l 558 361 l 389 621 l 592 621 l 760 361 l 592 101 m 274 621 l 443 361 l 274 101 l 72 101 l 242 361 l 72 621 "},"¥":{"ha":894,"x_min":0,"x_max":0,"o":"m 14 1000 l 197 1000 l 447 518 l 696 1000 l 881 1000 l 581 432 l 736 432 l 736 296 l 529 296 l 529 232 l 736 232 l 736 96 l 529 96 l 529 0 l 365 0 l 365 96 l 157 96 l 157 232 l 365 232 l 365 296 l 157 296 l 157 432 l 314 432 "},"‰":{"ha":1810,"x_min":0,"x_max":0,"o":"m 44 760 b 300 1014 44 900 158 1014 b 554 760 440 1014 554 900 b 300 504 554 618 440 504 b 44 760 158 504 44 618 m 929 496 b 1183 242 1069 496 1183 382 b 929 -14 1183 100 1069 -14 b 674 242 788 -14 674 100 b 929 496 674 382 788 496 m 1511 496 b 1767 242 1651 496 1767 382 b 1511 -14 1767 100 1651 -14 b 1256 242 1371 -14 1256 100 b 1511 496 1256 382 1371 496 m 206 0 l 885 1000 l 1021 1000 l 343 0 m 1511 118 b 1633 242 1579 118 1633 174 b 1511 364 1633 308 1579 364 b 1389 242 1443 364 1389 308 b 1511 118 1389 174 1443 118 m 929 118 b 1051 242 996 118 1051 174 b 929 364 1051 308 996 364 b 807 242 861 364 807 308 b 929 118 807 174 861 118 m 176 760 b 300 636 176 692 232 636 b 422 760 367 636 422 692 b 300 882 422 826 367 882 b 176 760 232 882 176 826 "},"¶":{"ha":906,"x_min":0,"x_max":0,"o":"m 357 376 b 44 688 185 376 44 515 b 357 1000 44 860 185 1000 l 792 1000 l 792 -153 l 653 -153 l 653 844 l 542 844 l 542 -153 l 403 -153 l 403 376 l 357 376 "},"§":{"ha":660,"x_min":0,"x_max":0,"o":"m 292 267 b 31 511 149 301 31 363 b 117 682 31 581 64 640 b 60 808 82 711 60 751 b 339 1014 60 926 174 1014 b 607 913 440 1014 539 974 l 518 801 b 340 867 471 842 399 867 b 224 807 265 867 224 840 b 369 733 224 763 333 743 b 629 489 511 694 629 638 b 543 318 629 419 596 360 b 601 192 578 289 601 249 b 321 -14 601 74 486 -14 b 53 88 219 -14 121 26 l 142 199 b 319 133 189 158 261 133 b 436 193 394 133 436 160 b 292 267 436 238 328 258 m 194 513 b 333 408 194 469 222 439 b 383 397 349 404 365 401 b 465 488 426 410 465 446 b 326 592 465 531 438 561 b 276 603 311 596 294 599 b 194 513 233 590 194 554 "},"μ":{"ha":806,"x_min":0,"x_max":0,"o":"m 81 -306 l 81 694 l 244 694 l 244 311 b 393 140 244 196 306 140 b 561 319 488 140 561 211 l 561 694 l 725 694 l 725 0 l 561 0 l 561 75 b 353 -14 510 21 435 -14 b 244 15 311 -14 274 -4 l 244 -306 "},"…":{"ha":1049,"x_min":0,"x_max":0,"o":"m 771 89 b 874 192 771 146 817 192 b 976 89 931 192 976 146 b 874 -14 976 32 931 -14 b 771 89 817 -14 771 32 m 72 89 b 175 192 72 146 118 192 b 278 89 232 192 278 146 b 175 -14 278 32 232 -14 b 72 89 118 -14 72 32 m 525 -14 b 422 89 468 -14 422 32 b 525 192 422 146 468 192 b 626 89 581 192 626 146 b 525 -14 626 32 581 -14 "},"·":{"ha":306,"x_min":0,"x_max":0,"o":"m 50 500 b 153 603 50 557 96 603 b 256 500 210 603 256 557 b 153 397 256 443 210 397 b 50 500 96 397 50 443 "},"⁄":{"ha":276,"x_min":0,"x_max":0,"o":"m 535 1000 l -118 0 l -258 0 l 394 1000 "},"˘":{"ha":586,"x_min":0,"x_max":0,"o":"m 293 785 b 57 1000 147 785 60 861 l 178 1000 b 293 900 182 936 221 900 b 408 1000 367 900 404 936 l 531 1000 b 293 785 526 861 439 785 "},"˙":{"ha":308,"x_min":0,"x_max":0,"o":"m 57 917 b 154 1014 57 969 100 1014 b 251 917 208 1014 251 969 b 154 818 251 863 208 818 b 57 917 100 818 57 863 "},"˚":{"ha":479,"x_min":0,"x_max":0,"o":"m 239 779 b 57 963 139 779 57 861 b 239 1146 57 1064 139 1146 b 422 963 340 1146 422 1064 b 239 779 422 861 340 779 m 169 963 b 239 893 169 924 201 893 b 310 963 278 893 310 924 b 239 1032 310 1001 278 1032 b 169 963 201 1032 169 1001 "},"˝":{"ha":607,"x_min":0,"x_max":0,"o":"m 151 1001 l 306 1001 l 194 792 l 50 792 m 296 792 l 403 1001 l 557 1001 l 439 792 "},"˛":{"ha":314,"x_min":0,"x_max":0,"o":"m 50 -165 b 138 0 50 -114 88 -57 l 263 0 b 174 -151 210 -67 174 -117 b 211 -185 174 -176 190 -185 b 250 -178 224 -185 238 -182 l 260 -267 b 186 -278 238 -274 211 -278 b 50 -165 117 -278 50 -247 "},"ˇ":{"ha":607,"x_min":0,"x_max":0,"o":"m 204 1001 l 304 892 l 404 1001 l 558 1001 l 390 792 l 218 792 l 50 1001 "},"`":{"ha":361,"x_min":0,"x_max":0,"o":"m 168 792 l 50 1001 l 204 1001 l 311 792 "},"ˆ":{"ha":607,"x_min":0,"x_max":0,"o":"m 218 1001 l 390 1001 l 558 792 l 404 792 l 304 901 l 204 792 l 50 792 "},"¨":{"ha":574,"x_min":0,"x_max":0,"o":"m 57 921 b 147 1011 57 971 97 1011 b 238 921 196 1011 238 971 b 147 831 238 871 196 831 b 57 921 97 831 57 871 m 428 831 b 338 921 378 831 338 871 b 428 1011 338 971 378 1011 b 518 921 478 1011 518 971 b 428 831 518 871 478 831 "},"´":{"ha":361,"x_min":0,"x_max":0,"o":"m 156 1001 l 311 1001 l 193 792 l 50 792 "},"¸":{"ha":432,"x_min":0,"x_max":0,"o":"m 203 -292 b 50 -265 156 -292 99 -281 l 86 -175 b 199 -197 113 -186 160 -197 b 261 -162 229 -197 261 -186 b 146 -111 261 -136 218 -122 l 165 0 l 282 0 l 276 -50 b 382 -162 343 -71 382 -107 b 203 -292 382 -247 306 -292 "},"ã":{"ha":847,"x_min":0,"x_max":0,"o":"m 44 347 b 389 708 44 546 190 708 b 603 608 476 708 557 663 l 603 694 l 767 694 l 767 0 l 603 0 l 603 89 b 389 -14 557 32 476 -14 b 44 347 190 -14 44 149 m 208 347 b 406 150 208 239 297 150 b 603 347 514 150 603 239 b 406 544 603 456 514 544 b 208 347 297 544 208 456 m 158 832 b 304 1014 161 953 210 1014 b 492 932 408 1014 431 932 b 535 1000 522 932 533 951 l 644 1000 b 500 815 643 878 594 815 b 313 899 393 815 372 899 b 268 832 281 899 269 879 l 158 832 "},"Ã":{"ha":968,"x_min":0,"x_max":0,"o":"m 14 0 l 394 1000 l 574 1000 l 954 0 l 778 0 l 699 207 l 269 207 l 190 0 m 386 1311 b 574 1229 492 1311 514 1229 b 617 1297 604 1229 615 1249 l 728 1297 b 582 1113 725 1175 676 1113 b 394 1196 476 1113 456 1196 b 351 1129 364 1196 353 1176 l 242 1129 b 386 1311 243 1250 292 1311 m 640 371 l 485 781 l 328 371 "},"Ā":{"ha":968,"x_min":0,"x_max":0,"o":"m 394 1000 l 574 1000 l 954 0 l 778 0 l 699 207 l 269 207 l 190 0 l 14 0 m 640 371 l 485 781 l 328 371 m 664 1238 l 664 1125 l 300 1125 l 300 1238 "},"ā":{"ha":847,"x_min":0,"x_max":0,"o":"m 44 347 b 389 708 44 546 190 708 b 603 608 476 708 557 663 l 603 694 l 767 694 l 767 0 l 603 0 l 603 89 b 389 -14 557 32 476 -14 b 44 347 190 -14 44 149 m 406 544 b 208 347 297 544 208 456 b 406 150 208 239 297 150 b 603 347 514 150 603 239 b 406 544 603 456 514 544 m 224 844 l 224 957 l 588 957 l 588 844 "},"Å":{"ha":968,"x_min":0,"x_max":0,"o":"m 394 1000 l 574 1000 l 954 0 l 778 0 l 699 207 l 269 207 l 190 0 l 14 0 m 301 1246 b 485 1429 301 1347 383 1429 b 667 1246 585 1429 667 1347 b 485 1063 667 1144 585 1063 b 301 1246 383 1063 301 1144 m 328 371 l 640 371 l 485 781 m 485 1176 b 554 1246 522 1176 554 1207 b 485 1315 554 1285 522 1315 b 414 1246 446 1315 414 1285 b 485 1176 414 1207 446 1176 "},"å":{"ha":847,"x_min":0,"x_max":0,"o":"m 389 -14 b 44 347 190 -14 44 149 b 389 708 44 546 190 708 b 603 608 476 708 557 663 l 603 694 l 767 694 l 767 0 l 603 0 l 603 89 b 389 -14 557 32 476 -14 m 208 347 b 406 150 208 239 297 150 b 603 347 514 150 603 239 b 406 544 603 456 514 544 b 208 347 297 544 208 456 m 396 779 b 213 963 294 779 213 861 b 396 1146 213 1064 294 1146 b 579 963 497 1146 579 1064 b 396 779 579 861 497 779 m 326 963 b 396 893 326 924 357 893 b 465 963 435 893 465 924 b 396 1032 465 1001 435 1032 b 326 963 357 1032 326 1001 "},"ẞ":{"ha":964,"x_min":0,"x_max":0,"o":"m 103 0 l 103 669 b 433 1000 103 868 235 1000 l 828 1000 l 828 864 l 650 610 b 921 306 817 594 921 469 b 560 -14 921 99 763 -14 b 358 18 492 -14 421 -4 l 385 183 b 567 146 440 161 510 146 b 758 306 671 144 758 196 b 571 472 757 404 682 472 b 519 465 554 472 536 469 l 442 571 l 629 836 l 443 836 b 267 660 335 836 267 768 l 267 0 "},"Ă":{"ha":968,"x_min":0,"x_max":0,"o":"m 14 0 l 394 1000 l 574 1000 l 954 0 l 778 0 l 699 207 l 269 207 l 190 0 m 368 1306 b 485 1206 372 1242 411 1206 b 600 1306 557 1206 596 1242 l 721 1306 b 485 1090 718 1167 629 1090 b 247 1306 339 1090 250 1167 m 328 371 l 640 371 l 485 781 "},"ă":{"ha":847,"x_min":0,"x_max":0,"o":"m 44 347 b 389 708 44 546 190 708 b 603 608 476 708 557 663 l 603 694 l 767 694 l 767 0 l 603 0 l 603 89 b 389 -14 557 32 476 -14 b 44 347 190 -14 44 149 m 208 347 b 406 150 208 239 297 150 b 603 347 514 150 603 239 b 406 544 603 456 514 544 b 208 347 297 544 208 456 m 408 785 b 172 1000 264 785 175 861 l 293 1000 b 408 900 297 936 336 900 b 525 1000 482 900 519 936 l 646 1000 b 408 785 643 861 554 785 "},"Ä":{"ha":968,"x_min":0,"x_max":0,"o":"m 14 0 l 394 1000 l 574 1000 l 954 0 l 778 0 l 699 207 l 269 207 l 190 0 m 640 371 l 485 781 l 328 371 m 343 1286 b 433 1196 393 1286 433 1244 b 343 1106 433 1146 393 1106 b 254 1196 294 1106 254 1146 b 343 1286 254 1244 294 1286 m 625 1286 b 715 1196 675 1286 715 1244 b 625 1106 715 1146 675 1106 b 535 1196 575 1106 535 1146 b 625 1286 535 1244 575 1286 "},"ä":{"ha":847,"x_min":0,"x_max":0,"o":"m 44 347 b 389 708 44 546 190 708 b 603 608 476 708 557 663 l 603 694 l 767 694 l 767 0 l 603 0 l 603 89 b 389 -14 557 32 476 -14 b 44 347 190 -14 44 149 m 406 544 b 208 347 297 544 208 456 b 406 150 208 239 297 150 b 603 347 514 150 603 239 b 406 544 603 456 514 544 m 192 921 b 282 1011 192 971 232 1011 b 372 921 331 1011 372 971 b 282 831 372 871 331 831 b 192 921 232 831 192 871 m 472 921 b 563 1011 472 971 513 1011 b 653 921 613 1011 653 971 b 563 831 653 871 613 831 b 472 921 513 831 472 871 "},"Ė":{"ha":800,"x_min":0,"x_max":0,"o":"m 103 0 l 103 1000 l 750 1000 l 750 836 l 267 836 l 267 601 l 694 601 l 694 438 l 267 438 l 267 164 l 750 164 l 750 0 m 339 1192 b 436 1289 339 1246 382 1289 b 533 1192 490 1289 533 1246 b 436 1094 533 1138 490 1094 b 339 1192 382 1094 339 1138 "},"Â":{"ha":968,"x_min":0,"x_max":0,"o":"m 14 0 l 394 1000 l 574 1000 l 954 0 l 778 0 l 699 207 l 269 207 l 190 0 m 328 371 l 640 371 l 485 781 m 399 1307 l 571 1307 l 738 1097 l 585 1097 l 485 1207 l 385 1097 l 231 1097 "},"â":{"ha":847,"x_min":0,"x_max":0,"o":"m 44 347 b 389 708 44 546 190 708 b 603 608 476 708 557 663 l 603 694 l 767 694 l 767 0 l 603 0 l 603 89 b 389 -14 557 32 476 -14 b 44 347 190 -14 44 149 m 208 347 b 406 150 208 239 297 150 b 603 347 514 150 603 239 b 406 544 603 456 514 544 b 208 347 297 544 208 456 m 315 1001 l 488 1001 l 656 792 l 501 792 l 401 901 l 301 792 l 147 792 "},"Ő":{"ha":1128,"x_min":0,"x_max":0,"o":"m 564 -14 b 50 500 281 -14 50 217 b 564 1014 50 783 281 1014 b 1078 500 847 1014 1078 783 b 564 -14 1078 217 847 -14 m 214 500 b 564 150 214 307 371 150 b 914 500 757 150 914 307 b 564 850 914 693 757 850 b 214 500 371 850 214 693 m 461 1307 l 615 1307 l 504 1097 l 360 1097 m 606 1097 l 711 1307 l 867 1307 l 749 1097 "},"ç":{"ha":697,"x_min":0,"x_max":0,"o":"m 44 347 b 406 708 44 547 207 708 b 667 596 508 708 601 665 l 551 481 b 406 544 515 519 463 544 b 208 347 297 544 208 456 b 406 150 208 239 297 150 b 551 215 463 150 515 175 l 667 99 b 461 -10 614 42 542 3 l 456 -50 b 561 -162 522 -71 561 -107 b 382 -292 561 -247 485 -292 b 229 -265 335 -292 278 -281 l 265 -175 b 378 -197 292 -186 339 -197 b 440 -162 408 -197 440 -186 b 326 -111 440 -136 397 -122 l 344 -8 b 44 347 174 21 44 169 "},"Ç":{"ha":971,"x_min":0,"x_max":0,"o":"m 483 -7 b 50 500 238 31 50 244 b 564 1014 50 783 281 1014 b 940 850 713 1014 846 951 l 825 733 b 564 850 760 806 667 850 b 214 500 371 850 214 693 b 564 150 214 307 371 150 b 825 267 668 150 760 194 l 940 150 b 600 -12 854 57 733 -3 l 594 -50 b 700 -162 663 -71 700 -107 b 521 -292 700 -246 625 -292 b 368 -265 474 -292 418 -281 l 404 -175 b 518 -197 432 -186 479 -197 b 581 -162 547 -196 581 -186 b 465 -111 581 -136 536 -122 l 483 -7 "},"Ę":{"ha":800,"x_min":0,"x_max":0,"o":"m 103 0 l 103 1000 l 750 1000 l 750 836 l 267 836 l 267 601 l 694 601 l 694 438 l 267 438 l 267 164 l 750 164 l 750 0 b 663 -150 699 -67 663 -115 b 700 -183 663 -175 679 -183 b 738 -176 713 -183 725 -181 l 749 -265 b 674 -276 725 -272 700 -276 b 539 -164 606 -276 539 -246 b 625 0 539 -112 575 -56 "},"ę":{"ha":774,"x_min":0,"x_max":0,"o":"m 408 -14 b 44 347 207 -14 44 146 b 399 708 44 551 197 708 b 731 357 596 708 731 564 b 724 274 731 331 726 301 l 207 274 b 415 135 235 188 313 135 b 588 204 482 135 546 158 l 692 100 b 622 42 671 78 647 58 b 474 -147 529 -21 474 -96 b 513 -185 474 -171 486 -185 b 549 -178 522 -185 535 -182 l 560 -267 b 485 -278 536 -274 511 -278 b 350 -165 417 -278 350 -247 b 439 -12 350 -118 388 -61 b 408 -14 429 -12 418 -14 m 396 561 b 204 401 300 561 218 497 l 576 401 b 396 561 563 500 489 561 "},"Ð":{"ha":1021,"x_min":0,"x_max":0,"o":"m 33 564 l 103 564 l 103 1000 l 488 1000 b 971 500 768 1000 971 792 b 488 0 971 208 769 0 l 103 0 l 103 438 l 33 438 m 267 438 l 267 164 l 488 164 b 807 500 678 164 807 300 b 488 836 807 700 678 836 l 267 836 l 267 564 l 471 564 l 471 438 "},"Ñ":{"ha":992,"x_min":0,"x_max":0,"o":"m 103 0 l 103 1000 l 254 1000 l 726 311 l 726 1000 l 890 1000 l 890 0 l 738 0 l 267 689 l 267 0 m 253 1129 b 399 1311 256 1250 304 1311 b 586 1229 504 1311 525 1229 b 629 1297 617 1229 628 1249 l 739 1297 b 594 1113 738 1175 689 1113 b 407 1196 489 1113 467 1196 b 363 1129 376 1196 364 1176 l 253 1129 "},"Ò":{"ha":1128,"x_min":0,"x_max":0,"o":"m 50 500 b 564 1014 50 783 281 1014 b 1078 500 847 1014 1078 783 b 564 -14 1078 217 847 -14 b 50 500 281 -14 50 217 m 564 850 b 214 500 371 850 214 693 b 564 150 214 307 371 150 b 914 500 757 150 914 307 b 564 850 914 693 757 850 m 556 1307 l 661 1097 l 518 1097 l 400 1307 "},"Ó":{"ha":1128,"x_min":0,"x_max":0,"o":"m 564 -14 b 50 500 281 -14 50 217 b 564 1014 50 783 281 1014 b 1078 500 847 1014 1078 783 b 564 -14 1078 217 847 -14 m 214 500 b 564 150 214 307 371 150 b 914 500 757 150 914 307 b 564 850 914 693 757 850 b 214 500 371 850 214 693 m 489 1097 l 596 1307 l 750 1307 l 632 1097 "},"Ô":{"ha":1128,"x_min":0,"x_max":0,"o":"m 564 -14 b 50 500 281 -14 50 217 b 564 1014 50 783 281 1014 b 1078 500 847 1014 1078 783 b 564 -14 1078 217 847 -14 m 564 850 b 214 500 371 850 214 693 b 564 150 214 307 371 150 b 914 500 757 150 914 307 b 564 850 914 693 757 850 m 478 1307 l 650 1307 l 818 1097 l 664 1097 l 564 1207 l 464 1097 l 310 1097 "},"Õ":{"ha":1128,"x_min":0,"x_max":0,"o":"m 564 -14 b 50 500 281 -14 50 217 b 564 1014 50 783 281 1014 b 1078 500 847 1014 1078 783 b 564 -14 1078 217 847 -14 m 214 500 b 564 150 214 307 371 150 b 914 500 757 150 914 307 b 564 850 914 693 757 850 b 214 500 371 850 214 693 m 321 1129 b 465 1311 324 1250 372 1311 b 654 1229 571 1311 593 1229 b 697 1297 685 1229 696 1249 l 807 1297 b 663 1113 806 1175 757 1113 b 474 1196 556 1113 535 1196 b 431 1129 443 1196 432 1176 "},"Ö":{"ha":1128,"x_min":0,"x_max":0,"o":"m 50 500 b 564 1014 50 783 281 1014 b 1078 500 847 1014 1078 783 b 564 -14 1078 217 847 -14 b 50 500 281 -14 50 217 m 214 500 b 564 150 214 307 371 150 b 914 500 757 150 914 307 b 564 850 914 693 757 850 b 214 500 371 850 214 693 m 424 1106 b 333 1196 374 1106 333 1146 b 424 1286 333 1244 374 1286 b 514 1196 474 1286 514 1244 b 424 1106 514 1146 474 1106 m 614 1196 b 704 1286 614 1244 654 1286 b 794 1196 754 1286 794 1244 b 704 1106 794 1146 754 1106 b 614 1196 654 1106 614 1146 "},"Ø":{"ha":1128,"x_min":0,"x_max":0,"o":"m 50 500 b 564 1014 50 783 281 1014 b 728 986 621 1014 676 1004 l 774 1083 l 921 1083 l 847 928 b 1078 500 986 836 1078 679 b 564 -14 1078 217 847 -14 b 413 10 511 -14 460 -6 l 368 -83 l 221 -83 l 290 65 b 50 500 146 156 50 317 m 214 500 b 363 217 214 382 272 279 l 656 836 b 564 850 626 844 596 850 b 214 500 371 850 214 693 m 485 163 b 564 150 510 154 536 150 b 914 500 757 150 914 307 b 775 776 914 614 860 714 l 485 163 "},"Ù":{"ha":983,"x_min":0,"x_max":0,"o":"m 492 -14 b 103 385 261 -14 103 149 l 103 1000 l 267 1000 l 267 385 b 492 149 267 240 354 149 b 717 385 631 149 717 240 l 717 1000 l 881 1000 l 881 385 b 492 -14 881 149 722 -14 m 328 1307 l 483 1307 l 589 1097 l 446 1097 "},"Ú":{"ha":983,"x_min":0,"x_max":0,"o":"m 492 -14 b 103 385 261 -14 103 149 l 103 1000 l 267 1000 l 267 385 b 492 149 267 240 354 149 b 717 385 631 149 717 240 l 717 1000 l 881 1000 l 881 385 b 492 -14 881 149 722 -14 m 501 1307 l 656 1307 l 538 1097 l 394 1097 "},"Û":{"ha":983,"x_min":0,"x_max":0,"o":"m 492 -14 b 103 385 261 -14 103 149 l 103 1000 l 267 1000 l 267 385 b 492 149 267 240 354 149 b 717 385 631 149 717 240 l 717 1000 l 881 1000 l 881 385 b 492 -14 881 149 722 -14 m 406 1307 l 578 1307 l 746 1097 l 592 1097 l 492 1207 l 392 1097 l 238 1097 "},"Ü":{"ha":983,"x_min":0,"x_max":0,"o":"m 492 -14 b 103 385 261 -14 103 149 l 103 1000 l 267 1000 l 267 385 b 492 149 267 240 354 149 b 717 385 631 149 717 240 l 717 1000 l 881 1000 l 881 385 b 492 -14 881 149 722 -14 m 542 1196 b 632 1286 542 1244 583 1286 b 722 1196 682 1286 722 1244 b 632 1106 722 1146 682 1106 b 542 1196 583 1106 542 1146 m 261 1196 b 351 1286 261 1244 301 1286 b 442 1196 401 1286 442 1244 b 351 1106 442 1146 401 1106 b 261 1196 301 1106 261 1146 "},"Ý":{"ha":878,"x_min":0,"x_max":0,"o":"m 6 1000 l 189 1000 l 439 518 l 689 1000 l 872 1000 l 521 333 l 521 0 l 357 0 l 357 333 m 449 1307 l 603 1307 l 485 1097 l 342 1097 "},"Þ":{"ha":888,"x_min":0,"x_max":0,"o":"m 258 1000 l 258 846 l 504 846 b 849 500 694 846 849 690 b 504 156 849 310 694 156 l 258 156 l 258 0 l 103 0 l 103 1000 m 504 319 b 685 500 604 319 685 400 b 504 682 685 600 604 682 l 258 682 l 258 319 "},"À":{"ha":968,"x_min":0,"x_max":0,"o":"m 14 0 l 394 1000 l 574 1000 l 954 0 l 778 0 l 699 207 l 269 207 l 190 0 m 640 371 l 485 781 l 328 371 m 299 1307 l 453 1307 l 558 1097 l 415 1097 "},"Á":{"ha":968,"x_min":0,"x_max":0,"o":"m 14 0 l 394 1000 l 574 1000 l 954 0 l 778 0 l 699 207 l 269 207 l 190 0 m 328 371 l 640 371 l 485 781 m 515 1307 l 669 1307 l 553 1097 l 410 1097 "},"à":{"ha":847,"x_min":0,"x_max":0,"o":"m 44 347 b 389 708 44 546 190 708 b 603 608 476 708 557 663 l 603 694 l 767 694 l 767 0 l 603 0 l 603 89 b 389 -14 557 32 476 -14 b 44 347 190 -14 44 149 m 406 544 b 208 347 297 544 208 456 b 406 150 208 239 297 150 b 603 347 514 150 603 239 b 406 544 603 456 514 544 m 389 1001 l 494 792 l 351 792 l 233 1001 "},"á":{"ha":847,"x_min":0,"x_max":0,"o":"m 44 347 b 389 708 44 546 190 708 b 603 608 476 708 557 663 l 603 694 l 767 694 l 767 0 l 603 0 l 603 89 b 389 -14 557 32 476 -14 b 44 347 190 -14 44 149 m 406 544 b 208 347 297 544 208 456 b 406 150 208 239 297 150 b 603 347 514 150 603 239 b 406 544 603 456 514 544 m 440 1001 l 594 1001 l 476 792 l 333 792 "},"è":{"ha":774,"x_min":0,"x_max":0,"o":"m 414 -14 b 44 347 204 -14 44 143 b 399 708 44 551 197 708 b 731 357 596 708 731 564 b 724 274 731 331 726 301 l 207 274 b 415 135 235 188 313 135 b 588 204 482 135 546 158 l 692 100 b 414 -14 625 26 528 -14 m 396 561 b 204 401 300 561 218 497 l 576 401 b 396 561 563 500 489 561 m 240 1001 l 394 1001 l 501 792 l 358 792 "},"é":{"ha":774,"x_min":0,"x_max":0,"o":"m 44 347 b 399 708 44 551 197 708 b 731 357 596 708 731 564 b 724 274 731 331 726 301 l 207 274 b 415 135 235 188 313 135 b 588 204 482 135 546 158 l 692 100 b 414 -14 625 26 528 -14 b 44 347 204 -14 44 143 m 396 561 b 204 401 300 561 218 497 l 576 401 b 396 561 563 500 489 561 m 282 792 l 388 1001 l 543 1001 l 425 792 "},"ê":{"ha":774,"x_min":0,"x_max":0,"o":"m 414 -14 b 44 347 204 -14 44 143 b 399 708 44 551 197 708 b 731 357 596 708 731 564 b 724 274 731 331 726 301 l 207 274 b 415 135 235 188 313 135 b 588 204 482 135 546 158 l 692 100 b 414 -14 625 26 528 -14 m 301 1001 l 474 1001 l 642 792 l 488 792 l 388 901 l 288 792 l 133 792 m 396 561 b 204 401 300 561 218 497 l 576 401 b 396 561 563 500 489 561 "},"ë":{"ha":774,"x_min":0,"x_max":0,"o":"m 414 -14 b 44 347 204 -14 44 143 b 399 708 44 551 197 708 b 731 357 596 708 731 564 b 724 274 731 331 726 301 l 207 274 b 415 135 235 188 313 135 b 588 204 482 135 546 158 l 692 100 b 414 -14 625 26 528 -14 m 396 561 b 204 401 300 561 218 497 l 576 401 b 396 561 563 500 489 561 m 157 921 b 247 1011 157 971 197 1011 b 338 921 296 1011 338 971 b 247 831 338 871 296 831 b 157 921 197 831 157 871 m 528 831 b 438 921 478 831 438 871 b 528 1011 438 971 478 1011 b 618 921 578 1011 618 971 b 528 831 618 871 578 831 "},"ì":{"ha":325,"x_min":0,"x_max":0,"o":"m 244 694 l 244 0 l 81 0 l 81 694 m 108 792 l -10 1001 l 146 1001 l 251 792 "},"í":{"ha":325,"x_min":0,"x_max":0,"o":"m 244 694 l 244 0 l 81 0 l 81 694 m 181 1001 l 335 1001 l 217 792 l 74 792 "},"ý":{"ha":768,"x_min":0,"x_max":0,"o":"m 11 694 l 189 694 l 389 206 l 579 694 l 757 694 l 431 -125 b 154 -319 378 -257 283 -319 b 90 -318 133 -319 111 -319 l 90 -160 b 129 -161 103 -160 115 -161 b 271 -64 194 -161 239 -136 l 299 0 m 288 792 l 393 1001 l 549 1001 l 431 792 "},"ü":{"ha":806,"x_min":0,"x_max":0,"o":"m 353 -14 b 81 276 192 -14 81 100 l 81 694 l 244 694 l 244 311 b 393 140 244 196 306 140 b 561 319 488 140 561 211 l 561 694 l 725 694 l 725 0 l 561 0 l 561 75 b 353 -14 510 21 435 -14 m 543 831 b 453 921 493 831 453 871 b 543 1011 453 971 493 1011 b 633 921 593 1011 633 971 b 543 831 633 871 593 831 m 263 831 b 172 921 213 831 172 871 b 263 1011 172 971 213 1011 b 353 921 313 1011 353 971 b 263 831 353 871 313 831 "},"û":{"ha":806,"x_min":0,"x_max":0,"o":"m 244 694 l 244 311 b 393 140 244 196 306 140 b 561 319 488 140 561 211 l 561 694 l 725 694 l 725 0 l 561 0 l 561 75 b 353 -14 510 21 435 -14 b 81 276 192 -14 81 100 l 81 694 m 317 1001 l 489 1001 l 657 792 l 503 792 l 403 901 l 303 792 l 149 792 "},"ú":{"ha":806,"x_min":0,"x_max":0,"o":"m 244 694 l 244 311 b 393 140 244 196 306 140 b 561 319 488 140 561 211 l 561 694 l 725 694 l 725 0 l 561 0 l 561 75 b 353 -14 510 21 435 -14 b 81 276 192 -14 81 100 l 81 694 m 313 792 l 418 1001 l 574 1001 l 456 792 "},"ù":{"ha":806,"x_min":0,"x_max":0,"o":"m 353 -14 b 81 276 192 -14 81 100 l 81 694 l 244 694 l 244 311 b 393 140 244 196 306 140 b 561 319 488 140 561 211 l 561 694 l 725 694 l 725 0 l 561 0 l 561 75 b 353 -14 510 21 435 -14 m 388 1001 l 493 792 l 350 792 l 232 1001 "},"ñ":{"ha":806,"x_min":0,"x_max":0,"o":"m 244 694 l 244 619 b 453 708 296 674 371 708 b 725 418 614 708 725 594 l 725 0 l 561 0 l 561 383 b 413 554 561 500 500 554 b 244 375 318 554 244 485 l 244 0 l 81 0 l 81 694 m 179 832 b 324 1014 182 953 231 1014 b 513 932 429 1014 451 932 b 556 1000 543 932 554 951 l 665 1000 b 521 815 664 878 615 815 b 332 899 414 815 393 899 b 289 832 301 899 290 879 "},"ï":{"ha":325,"x_min":0,"x_max":0,"o":"m 81 0 l 81 694 l 244 694 l 244 0 m 213 921 b 303 1011 213 971 253 1011 b 393 921 353 1011 393 971 b 303 831 393 871 353 831 b 213 921 253 831 213 871 m -68 921 b 22 1011 -68 971 -28 1011 b 113 921 72 1011 113 971 b 22 831 113 871 72 831 b -68 921 -28 831 -68 871 "},"î":{"ha":325,"x_min":0,"x_max":0,"o":"m 81 694 l 244 694 l 244 0 l 81 0 m -92 792 l 76 1001 l 249 1001 l 417 792 l 263 792 l 163 901 l 63 792 "},"þ":{"ha":847,"x_min":0,"x_max":0,"o":"m 81 1000 l 244 1000 l 244 608 b 458 708 290 663 371 708 b 803 347 658 708 803 546 b 458 -14 803 149 658 -14 b 244 89 371 -14 290 32 l 244 -307 l 81 -307 m 442 544 b 244 347 333 544 244 456 b 442 150 244 239 333 150 b 639 347 550 150 639 239 b 442 544 639 456 550 544 "},"ÿ":{"ha":768,"x_min":0,"x_max":0,"o":"m 189 694 l 389 206 l 579 694 l 757 694 l 431 -125 b 154 -319 378 -257 283 -319 b 90 -318 133 -319 111 -319 l 90 -160 b 129 -161 103 -160 115 -161 b 271 -64 194 -161 239 -136 l 299 0 l 11 694 m 525 831 b 435 921 475 831 435 871 b 525 1011 435 971 475 1011 b 615 921 575 1011 615 971 b 525 831 615 871 575 831 m 154 921 b 244 1011 154 971 194 1011 b 333 921 293 1011 333 971 b 244 831 333 871 293 831 b 154 921 194 831 154 871 "},"Ą":{"ha":968,"x_min":0,"x_max":0,"o":"m 394 1000 l 574 1000 l 954 0 l 931 0 b 843 -151 879 -67 843 -117 b 881 -185 843 -176 860 -185 b 918 -178 893 -185 906 -182 l 929 -267 b 854 -278 906 -274 881 -278 b 719 -165 786 -278 719 -247 b 807 0 719 -114 756 -57 l 778 0 l 699 207 l 269 207 l 190 0 l 14 0 m 640 371 l 485 781 l 328 371 "},"ą":{"ha":847,"x_min":0,"x_max":0,"o":"m 44 347 b 389 708 44 546 190 708 b 603 608 476 708 557 663 l 603 694 l 767 694 l 767 0 l 751 0 b 664 -151 699 -67 664 -117 b 701 -185 664 -176 681 -185 b 739 -178 713 -185 726 -182 l 749 -267 b 675 -278 726 -274 700 -278 b 539 -165 607 -278 539 -247 b 628 0 539 -114 576 -57 l 603 0 l 603 89 b 389 -14 557 32 476 -14 b 44 347 190 -14 44 149 m 208 347 b 406 150 208 239 297 150 b 603 347 514 150 603 239 b 406 544 603 456 514 544 b 208 347 297 544 208 456 "},"Ć":{"ha":975,"x_min":0,"x_max":0,"o":"m 50 500 b 564 1014 50 783 281 1014 b 940 850 713 1014 846 951 l 825 733 b 564 850 760 806 667 850 b 214 500 371 850 214 693 b 564 150 214 307 371 150 b 825 267 667 150 760 194 l 940 150 b 564 -14 846 50 713 -14 b 50 500 281 -14 50 217 m 456 1097 l 563 1307 l 717 1307 l 599 1097 "},"ć":{"ha":697,"x_min":0,"x_max":0,"o":"m 44 347 b 406 708 44 547 207 708 b 667 596 508 708 601 665 l 551 481 b 406 544 515 519 463 544 b 208 347 297 544 208 456 b 406 150 208 239 297 150 b 551 215 463 150 515 175 l 667 99 b 406 -14 601 29 508 -14 b 44 347 207 -14 44 149 m 294 792 l 400 1001 l 554 1001 l 438 792 "},"Ĉ":{"ha":975,"x_min":0,"x_max":0,"o":"m 50 500 b 564 1014 50 783 281 1014 b 940 850 713 1014 846 951 l 825 733 b 564 850 760 806 667 850 b 214 500 371 850 214 693 b 564 150 214 307 371 150 b 825 267 667 150 760 194 l 940 150 b 564 -14 846 50 713 -14 b 50 500 281 -14 50 217 m 310 1097 l 478 1307 l 650 1307 l 817 1097 l 663 1097 l 563 1207 l 463 1097 "},"ĉ":{"ha":697,"x_min":0,"x_max":0,"o":"m 44 347 b 406 708 44 547 207 708 b 667 596 508 708 601 665 l 551 481 b 406 544 515 519 463 544 b 208 347 297 544 208 456 b 406 150 208 239 297 150 b 551 215 463 150 515 175 l 667 99 b 406 -14 601 29 508 -14 b 44 347 207 -14 44 149 m 153 792 l 321 1001 l 493 1001 l 660 792 l 506 792 l 406 901 l 307 792 "},"Ċ":{"ha":975,"x_min":0,"x_max":0,"o":"m 50 500 b 564 1014 50 783 281 1014 b 940 850 713 1014 846 951 l 825 733 b 564 850 760 806 667 850 b 214 500 371 850 214 693 b 564 150 214 307 371 150 b 825 267 667 150 760 194 l 940 150 b 564 -14 846 50 713 -14 b 50 500 281 -14 50 217 m 560 1094 b 463 1192 506 1094 463 1138 b 560 1289 463 1246 506 1289 b 657 1192 614 1289 657 1246 b 560 1094 657 1138 614 1094 "},"ċ":{"ha":697,"x_min":0,"x_max":0,"o":"m 44 347 b 406 708 44 547 207 708 b 667 596 508 708 601 665 l 551 481 b 406 544 515 519 463 544 b 208 347 297 544 208 456 b 406 150 208 239 297 150 b 551 215 463 150 515 175 l 667 99 b 406 -14 601 29 508 -14 b 44 347 207 -14 44 149 m 404 818 b 307 917 350 818 307 863 b 404 1014 307 969 350 1014 b 503 917 458 1014 503 969 b 404 818 503 863 458 818 "},"Č":{"ha":975,"x_min":0,"x_max":0,"o":"m 50 500 b 564 1014 50 783 281 1014 b 940 850 713 1014 846 951 l 825 733 b 564 850 760 806 667 850 b 214 500 371 850 214 693 b 564 150 214 307 371 150 b 825 267 667 150 760 194 l 940 150 b 564 -14 846 50 713 -14 b 50 500 281 -14 50 217 m 469 1307 l 568 1197 l 669 1307 l 822 1307 l 656 1097 l 483 1097 l 315 1307 "},"č":{"ha":697,"x_min":0,"x_max":0,"o":"m 406 -14 b 44 347 207 -14 44 149 b 406 708 44 547 207 708 b 667 596 508 708 601 665 l 551 481 b 406 544 515 519 463 544 b 208 347 297 544 208 456 b 406 150 208 239 297 150 b 551 215 463 150 515 175 l 667 99 b 406 -14 601 29 508 -14 m 304 1001 l 404 892 l 504 1001 l 658 1001 l 490 792 l 318 792 l 150 1001 "},"ĝ":{"ha":847,"x_min":0,"x_max":0,"o":"m 44 347 b 389 708 44 546 190 708 b 603 608 476 708 557 663 l 603 694 l 767 694 l 767 14 b 396 -319 767 -193 626 -319 b 89 -207 286 -319 171 -282 l 203 -93 b 399 -164 257 -139 331 -164 b 603 3 528 -164 603 -101 l 603 89 b 389 -14 557 32 476 -14 b 44 347 190 -14 44 149 m 208 347 b 406 150 208 239 297 150 b 603 347 514 150 603 239 b 406 544 603 456 514 544 b 208 347 297 544 208 456 m 169 792 l 338 1001 l 510 1001 l 678 792 l 524 792 l 424 901 l 324 792 "},"Ĝ":{"ha":1024,"x_min":0,"x_max":0,"o":"m 50 500 b 553 1014 50 792 268 1014 b 954 831 710 1014 860 946 l 838 715 b 558 850 774 800 669 850 b 214 500 358 850 214 703 b 558 150 214 297 358 150 b 786 215 640 150 721 174 l 786 383 l 554 383 l 554 547 l 950 547 l 950 139 b 558 -14 844 39 701 -14 b 50 500 272 -14 50 208 m 282 1097 l 450 1307 l 622 1307 l 790 1097 l 636 1097 l 536 1207 l 436 1097 "},"ě":{"ha":775,"x_min":0,"x_max":0,"o":"m 414 -14 b 44 347 204 -14 44 143 b 399 708 44 551 197 708 b 731 357 596 708 731 564 b 724 274 731 331 726 301 l 207 274 b 415 135 235 188 313 135 b 588 204 482 135 546 158 l 692 100 b 414 -14 625 26 528 -14 m 144 1001 l 299 1001 l 397 892 l 497 1001 l 651 1001 l 485 792 l 313 792 m 396 561 b 204 401 300 561 218 497 l 576 401 b 396 561 563 500 489 561 "},"Ě":{"ha":800,"x_min":0,"x_max":0,"o":"m 103 1000 l 750 1000 l 750 836 l 267 836 l 267 601 l 694 601 l 694 438 l 267 438 l 267 164 l 750 164 l 750 0 l 103 0 m 168 1307 l 322 1307 l 422 1197 l 522 1307 l 676 1307 l 508 1097 l 336 1097 "},"ĕ":{"ha":774,"x_min":0,"x_max":0,"o":"m 414 -14 b 44 347 204 -14 44 143 b 399 708 44 551 197 708 b 731 357 596 708 731 564 b 724 274 731 331 726 301 l 207 274 b 415 135 235 188 313 135 b 588 204 482 135 546 158 l 692 100 b 414 -14 625 26 528 -14 m 401 785 b 164 1000 256 785 168 861 l 285 1000 b 401 900 290 936 328 900 b 517 1000 474 900 513 936 l 638 1000 b 401 785 635 861 547 785 m 396 561 b 204 401 300 561 218 497 l 576 401 b 396 561 563 500 489 561 "},"Ĕ":{"ha":800,"x_min":0,"x_max":0,"o":"m 750 1000 l 750 836 l 267 836 l 267 601 l 694 601 l 694 438 l 267 438 l 267 164 l 750 164 l 750 0 l 103 0 l 103 1000 m 311 1306 b 428 1206 315 1242 354 1206 b 543 1306 500 1206 539 1242 l 664 1306 b 428 1090 661 1167 572 1090 b 190 1306 282 1090 193 1167 "},"ē":{"ha":774,"x_min":0,"x_max":0,"o":"m 414 -14 b 44 347 204 -14 44 143 b 399 708 44 551 197 708 b 731 357 596 708 731 564 b 724 274 731 331 726 301 l 207 274 b 415 135 235 188 313 135 b 588 204 482 135 546 158 l 692 100 b 414 -14 625 26 528 -14 m 396 561 b 204 401 300 561 218 497 l 576 401 b 396 561 563 500 489 561 m 213 844 l 213 957 l 576 957 l 576 844 "},"Ē":{"ha":800,"x_min":0,"x_max":0,"o":"m 103 1000 l 750 1000 l 750 836 l 267 836 l 267 601 l 694 601 l 694 438 l 267 438 l 267 164 l 750 164 l 750 0 l 103 0 m 614 1238 l 614 1125 l 250 1125 l 250 1238 "},"đ":{"ha":847,"x_min":0,"x_max":0,"o":"m 44 347 b 389 708 44 546 190 708 b 603 608 476 708 557 663 l 603 794 l 450 794 l 450 907 l 603 907 l 603 1000 l 767 1000 l 767 907 l 839 907 l 839 794 l 767 794 l 767 0 l 603 0 l 603 89 b 389 -14 557 32 476 -14 b 44 347 190 -14 44 149 m 406 544 b 208 347 297 544 208 456 b 406 150 208 239 297 150 b 603 347 514 150 603 239 b 406 544 603 456 514 544 "},"Đ":{"ha":1021,"x_min":0,"x_max":0,"o":"m 33 438 l 33 564 l 103 564 l 103 1000 l 488 1000 b 971 500 769 1000 971 792 b 488 0 971 208 769 0 l 103 0 l 103 438 m 471 564 l 471 438 l 267 438 l 267 164 l 488 164 b 807 500 678 164 807 300 b 488 836 807 700 678 836 l 267 836 l 267 564 "},"ď":{"ha":999,"x_min":0,"x_max":0,"o":"m 44 347 b 389 708 44 546 190 708 b 603 608 476 708 557 663 l 603 1000 l 767 1000 l 767 0 l 603 0 l 603 89 b 389 -14 557 32 476 -14 b 44 347 190 -14 44 149 m 406 544 b 208 347 297 544 208 456 b 406 150 208 239 297 150 b 603 347 514 150 603 239 b 406 544 603 456 514 544 m 843 767 l 863 1000 l 1017 1000 l 967 767 "},"Ď":{"ha":1021,"x_min":0,"x_max":0,"o":"m 103 1000 l 488 1000 b 971 500 768 1000 971 792 b 488 0 971 208 769 0 l 103 0 m 267 164 l 488 164 b 807 500 678 164 807 300 b 488 836 807 700 678 836 l 267 836 m 378 1307 l 476 1197 l 576 1307 l 731 1307 l 564 1097 l 392 1097 l 224 1307 "},"Ğ":{"ha":1024,"x_min":0,"x_max":0,"o":"m 50 500 b 553 1014 50 792 268 1014 b 954 831 710 1014 860 946 l 838 715 b 558 850 774 800 669 850 b 214 500 358 850 214 703 b 558 150 214 297 358 150 b 786 215 640 150 721 174 l 786 383 l 554 383 l 554 547 l 950 547 l 950 139 b 558 -14 844 39 701 -14 b 50 500 272 -14 50 208 m 551 1090 b 314 1306 406 1090 318 1167 l 435 1306 b 551 1206 440 1242 478 1206 b 667 1306 624 1206 663 1242 l 788 1306 b 551 1090 785 1167 696 1090 "},"ğ":{"ha":847,"x_min":0,"x_max":0,"o":"m 44 347 b 389 708 44 546 190 708 b 603 608 476 708 557 663 l 603 694 l 767 694 l 767 14 b 396 -319 767 -193 626 -319 b 89 -207 286 -319 171 -282 l 203 -93 b 399 -164 257 -139 331 -164 b 603 3 528 -164 603 -101 l 603 89 b 389 -14 557 32 476 -14 b 44 347 190 -14 44 149 m 208 347 b 406 150 208 239 297 150 b 603 347 514 150 603 239 b 406 544 603 456 514 544 b 208 347 297 544 208 456 m 293 1000 b 408 900 297 936 336 900 b 525 1000 482 900 521 936 l 646 1000 b 408 785 643 861 554 785 b 172 1000 264 785 175 861 "},"Ġ":{"ha":1024,"x_min":0,"x_max":0,"o":"m 50 500 b 553 1014 50 792 268 1014 b 954 831 710 1014 860 946 l 838 715 b 558 850 774 800 669 850 b 214 500 358 850 214 703 b 558 150 214 297 358 150 b 786 215 640 150 721 174 l 786 383 l 554 383 l 554 547 l 950 547 l 950 139 b 558 -14 844 39 701 -14 b 50 500 272 -14 50 208 m 456 1192 b 554 1289 456 1246 500 1289 b 651 1192 608 1289 651 1246 b 554 1094 651 1138 608 1094 b 456 1192 500 1094 456 1138 "},"ġ":{"ha":847,"x_min":0,"x_max":0,"o":"m 44 347 b 389 708 44 546 190 708 b 603 608 476 708 557 663 l 603 694 l 767 694 l 767 14 b 396 -319 767 -193 626 -319 b 89 -207 286 -319 171 -282 l 203 -93 b 399 -164 257 -139 331 -164 b 603 3 528 -164 603 -101 l 603 89 b 389 -14 557 32 476 -14 b 44 347 190 -14 44 149 m 406 544 b 208 347 297 544 208 456 b 406 150 208 239 297 150 b 603 347 514 150 603 239 b 406 544 603 456 514 544 m 403 818 b 306 917 349 818 306 863 b 403 1014 306 969 349 1014 b 500 917 457 1014 500 969 b 403 818 500 863 457 818 "},"Ĥ":{"ha":992,"x_min":0,"x_max":0,"o":"m 103 0 l 103 1000 l 267 1000 l 267 601 l 726 601 l 726 1000 l 890 1000 l 890 0 l 726 0 l 726 438 l 267 438 l 267 0 m 410 1307 l 582 1307 l 750 1097 l 596 1097 l 496 1207 l 396 1097 l 243 1097 "},"ĥ":{"ha":806,"x_min":0,"x_max":0,"o":"m 81 0 l 81 1000 l 244 1000 l 244 619 b 453 708 296 674 371 708 b 725 418 614 708 725 594 l 725 0 l 561 0 l 561 383 b 413 554 561 500 500 554 b 244 375 318 554 244 485 l 244 0 m -87 1097 l 81 1307 l 253 1307 l 419 1097 l 265 1097 l 165 1207 l 65 1097 "},"Ħ":{"ha":992,"x_min":0,"x_max":0,"o":"m 29 865 l 103 865 l 103 1000 l 267 1000 l 267 865 l 726 865 l 726 1000 l 890 1000 l 890 865 l 963 865 l 963 738 l 890 738 l 890 0 l 726 0 l 726 438 l 267 438 l 267 0 l 103 0 l 103 738 l 29 738 m 267 738 l 267 601 l 726 601 l 726 738 "},"ħ":{"ha":806,"x_min":0,"x_max":0,"o":"m 81 907 l 81 1000 l 244 1000 l 244 907 l 401 907 l 401 794 l 244 794 l 244 619 b 453 708 296 674 369 708 b 725 418 614 708 725 594 l 725 0 l 561 0 l 561 383 b 413 554 561 500 500 554 b 244 375 318 554 244 485 l 244 0 l 81 0 l 81 794 l 13 794 l 13 907 "},"Ĩ":{"ha":369,"x_min":0,"x_max":0,"o":"m 103 1000 l 267 1000 l 267 0 l 103 0 m -58 1129 b 86 1311 -57 1250 -7 1311 b 275 1229 192 1311 214 1229 b 318 1297 306 1229 317 1249 l 428 1297 b 283 1113 426 1175 378 1113 b 94 1196 176 1113 156 1196 b 51 1129 64 1196 53 1176 "},"ĩ":{"ha":325,"x_min":0,"x_max":0,"o":"m 81 0 l 81 694 l 244 694 l 244 0 m -81 832 b 64 1014 -79 953 -29 1014 b 253 932 169 1014 192 932 b 296 1000 283 932 294 951 l 406 1000 b 261 815 404 878 356 815 b 72 899 154 815 133 899 b 29 832 42 899 31 879 "},"Ī":{"ha":369,"x_min":0,"x_max":0,"o":"m 267 0 l 103 0 l 103 1000 l 267 1000 m 344 1238 l 344 1125 l 25 1125 l 25 1238 "},"ī":{"ha":325,"x_min":0,"x_max":0,"o":"m 244 694 l 244 0 l 81 0 l 81 694 m 317 957 l 317 844 l 8 844 l 8 957 "},"Į":{"ha":369,"x_min":0,"x_max":0,"o":"m 38 -165 b 126 0 38 -114 75 -57 l 103 0 l 103 1000 l 267 1000 l 267 0 l 250 0 b 163 -151 197 -67 163 -117 b 200 -185 163 -176 179 -185 b 238 -178 211 -185 225 -182 l 247 -267 b 174 -278 225 -274 199 -278 b 38 -165 106 -278 38 -247 "},"į":{"ha":325,"x_min":0,"x_max":0,"o":"m 225 -267 b 151 -278 203 -274 176 -278 b 15 -165 83 -278 15 -247 b 104 0 15 -114 53 -57 l 81 0 l 81 694 l 244 694 l 244 0 l 228 0 b 140 -151 175 -67 140 -117 b 178 -185 140 -176 157 -185 b 215 -178 189 -185 203 -182 l 225 -267 m 65 917 b 163 1014 65 969 108 1014 b 260 917 217 1014 260 969 b 163 818 260 863 217 818 b 65 917 108 818 65 863 "},"İ":{"ha":369,"x_min":0,"x_max":0,"o":"m 103 0 l 103 1000 l 267 1000 l 267 0 m 88 1192 b 185 1289 88 1246 131 1289 b 282 1192 239 1289 282 1246 b 185 1094 282 1138 239 1094 b 88 1192 131 1094 88 1138 "},"Ĳ":{"ha":1231,"x_min":0,"x_max":0,"o":"m 757 -14 b 376 207 599 -14 461 65 l 513 299 b 751 150 564 206 654 150 b 965 364 882 150 965 235 l 965 836 l 558 836 l 558 1000 l 1129 1000 l 1129 364 b 757 -14 1129 144 974 -14 m 103 1000 l 267 1000 l 267 0 l 103 0 "},"ĳ":{"ha":633,"x_min":0,"x_max":0,"o":"m 304 -161 b 389 -49 369 -161 389 -135 l 389 694 l 553 694 l 553 -51 b 313 -319 553 -231 479 -319 l 292 -319 l 292 -161 m 244 694 l 244 0 l 81 0 l 81 694 m 471 1014 b 568 917 525 1014 568 971 b 471 818 568 863 525 818 b 374 917 417 818 374 863 b 471 1014 374 971 417 1014 m 65 917 b 163 1014 65 969 108 1014 b 260 917 217 1014 260 969 b 163 818 260 863 217 818 b 65 917 108 818 65 863 "},"Ĵ":{"ha":878,"x_min":0,"x_max":0,"o":"m 404 -14 b 24 207 246 -14 108 65 l 160 299 b 399 150 211 206 301 150 b 613 364 529 150 613 235 l 613 836 l 206 836 l 206 1000 l 776 1000 l 776 364 b 404 -14 776 144 621 -14 m 233 1097 l 401 1307 l 574 1307 l 742 1097 l 588 1097 l 488 1207 l 388 1097 "},"ĵ":{"ha":317,"x_min":0,"x_max":0,"o":"m -25 -319 l -25 -161 l -12 -161 b 72 -49 53 -161 72 -135 l 72 694 l 236 694 l 236 -51 b -4 -319 236 -231 163 -319 m 68 1001 l 240 1001 l 408 792 l 254 792 l 154 901 l 54 792 l -100 792 "},"Ũ":{"ha":983,"x_min":0,"x_max":0,"o":"m 492 -14 b 103 385 261 -14 103 149 l 103 1000 l 267 1000 l 267 385 b 492 149 267 240 354 149 b 717 385 631 149 717 240 l 717 1000 l 881 1000 l 881 385 b 492 -14 881 149 722 -14 m 249 1129 b 394 1311 251 1250 300 1311 b 582 1229 500 1311 521 1229 b 625 1297 613 1229 624 1249 l 735 1297 b 590 1113 733 1175 685 1113 b 403 1196 485 1113 463 1196 b 358 1129 372 1196 360 1176 "},"ũ":{"ha":806,"x_min":0,"x_max":0,"o":"m 353 -14 b 81 276 192 -14 81 100 l 81 694 l 244 694 l 244 311 b 393 140 244 196 306 140 b 561 319 488 140 561 211 l 561 694 l 725 694 l 725 0 l 561 0 l 561 75 b 353 -14 510 21 435 -14 m 160 832 b 304 1014 163 953 211 1014 b 493 932 410 1014 432 932 b 536 1000 524 932 535 951 l 646 1000 b 501 815 644 878 596 815 b 313 899 394 815 374 899 b 269 832 282 899 271 879 "},"Ū":{"ha":983,"x_min":0,"x_max":0,"o":"m 492 -14 b 103 385 261 -14 103 149 l 103 1000 l 267 1000 l 267 385 b 492 149 267 240 354 149 b 717 385 631 149 717 240 l 717 1000 l 881 1000 l 881 385 b 492 -14 881 149 722 -14 m 310 1238 l 674 1238 l 674 1125 l 310 1125 "},"ū":{"ha":806,"x_min":0,"x_max":0,"o":"m 244 694 l 244 311 b 393 140 244 196 306 140 b 561 319 488 140 561 211 l 561 694 l 725 694 l 725 0 l 561 0 l 561 75 b 353 -14 510 21 435 -14 b 81 276 192 -14 81 100 l 81 694 m 221 957 l 585 957 l 585 844 l 221 844 "},"Ŭ":{"ha":983,"x_min":0,"x_max":0,"o":"m 492 -14 b 103 385 261 -14 103 149 l 103 1000 l 267 1000 l 267 385 b 492 149 267 240 354 149 b 717 385 631 149 717 240 l 717 1000 l 881 1000 l 881 385 b 492 -14 881 149 722 -14 m 492 1090 b 256 1306 346 1090 258 1167 l 376 1306 b 492 1206 381 1242 419 1206 b 607 1306 565 1206 603 1242 l 729 1306 b 492 1090 725 1167 638 1090 "},"ŭ":{"ha":806,"x_min":0,"x_max":0,"o":"m 81 694 l 244 694 l 244 311 b 393 140 244 196 306 140 b 561 319 488 140 561 211 l 561 694 l 725 694 l 725 0 l 561 0 l 561 75 b 353 -14 510 21 435 -14 b 81 276 192 -14 81 100 m 288 1000 b 403 900 292 936 331 900 b 518 1000 476 900 514 936 l 640 1000 b 403 785 636 861 549 785 b 167 1000 257 785 169 861 "},"Ů":{"ha":983,"x_min":0,"x_max":0,"o":"m 492 -14 b 103 385 261 -14 103 149 l 103 1000 l 267 1000 l 267 385 b 492 149 267 240 354 149 b 717 385 631 149 717 240 l 717 1000 l 881 1000 l 881 385 b 492 -14 881 149 722 -14 m 492 1085 b 308 1268 390 1085 308 1167 b 492 1451 308 1369 390 1451 b 675 1268 593 1451 675 1369 b 492 1085 675 1167 593 1085 m 492 1338 b 422 1268 453 1338 422 1307 b 492 1199 422 1229 453 1199 b 561 1268 531 1199 561 1229 b 492 1338 561 1307 531 1338 "},"ů":{"ha":806,"x_min":0,"x_max":0,"o":"m 244 694 l 244 311 b 393 140 244 196 306 140 b 561 319 488 140 561 211 l 561 694 l 725 694 l 725 0 l 561 0 l 561 75 b 353 -14 510 21 435 -14 b 81 276 192 -14 81 100 l 81 694 m 219 963 b 403 1146 219 1064 301 1146 b 586 963 504 1146 586 1064 b 403 779 586 861 504 779 b 219 963 301 779 219 861 m 403 1032 b 333 963 364 1032 333 1001 b 403 893 333 924 364 893 b 472 963 442 893 472 924 b 403 1032 472 1001 442 1032 "},"Ű":{"ha":983,"x_min":0,"x_max":0,"o":"m 492 -14 b 103 385 261 -14 103 149 l 103 1000 l 267 1000 l 267 385 b 492 149 267 240 354 149 b 717 385 631 149 717 240 l 717 1000 l 881 1000 l 881 385 b 492 -14 881 149 722 -14 m 289 1097 l 390 1307 l 544 1307 l 433 1097 m 640 1307 l 796 1307 l 678 1097 l 535 1097 "},"ű":{"ha":806,"x_min":0,"x_max":0,"o":"m 244 694 l 244 311 b 393 140 244 196 306 140 b 561 319 488 140 561 211 l 561 694 l 725 694 l 725 0 l 561 0 l 561 75 b 353 -14 510 21 435 -14 b 81 276 192 -14 81 100 l 81 694 m 192 792 l 293 1001 l 447 1001 l 335 792 m 438 792 l 543 1001 l 697 1001 l 581 792 "},"š":{"ha":656,"x_min":0,"x_max":0,"o":"m 128 217 b 338 135 182 169 260 135 b 461 201 407 135 461 164 b 322 292 461 260 374 278 b 54 506 208 324 54 357 b 326 708 54 624 169 708 b 603 607 435 708 535 668 l 513 496 b 326 560 463 539 393 560 b 219 504 254 560 219 535 b 364 433 219 467 289 451 b 625 203 501 401 625 353 b 333 -14 625 78 501 -14 b 31 104 218 -14 114 28 m 79 1001 l 233 1001 l 333 892 l 433 1001 l 588 1001 l 419 792 l 247 792 "},"Š":{"ha":865,"x_min":0,"x_max":0,"o":"m 136 267 b 443 150 224 189 321 150 b 658 282 569 150 658 207 b 406 446 658 358 576 397 b 76 735 243 492 76 556 b 435 1014 76 911 229 1014 b 797 854 571 1014 711 953 l 681 739 b 424 850 615 811 522 850 b 242 736 308 850 242 807 b 476 597 242 674 315 643 b 822 286 661 544 822 469 b 438 -15 822 103 646 -15 b 25 147 272 -15 136 44 m 188 1307 l 342 1307 l 442 1197 l 542 1307 l 696 1307 l 528 1097 l 356 1097 "},"ş":{"ha":656,"x_min":0,"x_max":0,"o":"m 276 -10 b 31 104 183 1 100 40 l 128 217 b 338 135 182 169 260 135 b 461 201 407 133 461 164 b 322 292 461 260 374 278 b 54 506 208 324 54 357 b 326 708 54 624 169 708 b 603 607 435 708 535 668 l 513 496 b 326 560 463 539 393 560 b 219 504 254 560 219 535 b 364 433 219 467 289 451 b 625 203 501 401 625 353 b 393 -10 625 93 529 10 l 388 -50 b 493 -162 454 -71 493 -107 b 314 -292 493 -246 418 -292 b 161 -265 267 -292 210 -281 l 197 -175 b 310 -197 224 -186 271 -197 b 372 -162 340 -196 372 -186 b 258 -111 372 -136 329 -122 l 276 -10 "},"Ş":{"ha":865,"x_min":0,"x_max":0,"o":"m 136 267 b 443 150 224 189 321 149 b 658 282 571 150 658 207 b 406 446 658 358 576 399 b 76 735 242 492 76 556 b 435 1014 76 911 229 1014 b 797 854 571 1014 711 953 l 681 739 b 424 850 615 811 522 850 b 242 736 308 850 242 807 b 476 597 242 674 315 643 b 822 286 661 544 824 469 b 496 -11 822 121 679 8 l 492 -50 b 596 -162 558 -71 596 -107 b 417 -292 596 -246 521 -292 b 265 -265 369 -292 314 -281 l 301 -175 b 414 -197 328 -186 375 -197 b 476 -162 444 -196 476 -186 b 361 -111 476 -136 432 -122 l 379 -12 b 25 147 240 0 122 56 "},"ŝ":{"ha":656,"x_min":0,"x_max":0,"o":"m 333 -14 b 31 104 218 -14 114 28 l 128 217 b 338 135 182 169 260 135 b 461 201 407 135 461 164 b 322 292 461 260 374 278 b 54 506 208 324 54 357 b 326 708 54 624 169 708 b 603 607 435 708 535 668 l 513 496 b 326 560 463 539 393 560 b 219 504 254 560 219 535 b 364 433 219 467 289 451 b 625 203 501 401 625 353 b 333 -14 625 78 501 -14 m 246 1001 l 418 1001 l 585 792 l 431 792 l 331 901 l 231 792 l 78 792 "},"Ŝ":{"ha":865,"x_min":0,"x_max":0,"o":"m 136 267 b 443 150 224 189 321 150 b 658 282 569 150 658 207 b 406 446 658 358 576 397 b 76 735 243 492 76 556 b 435 1014 76 911 229 1014 b 797 854 571 1014 711 953 l 681 739 b 424 850 615 811 522 850 b 242 736 308 850 242 807 b 476 597 242 674 315 643 b 822 286 661 544 822 469 b 438 -15 822 103 646 -15 b 25 147 272 -15 136 44 m 356 1307 l 528 1307 l 694 1097 l 540 1097 l 440 1207 l 340 1097 l 188 1097 "},"ś":{"ha":656,"x_min":0,"x_max":0,"o":"m 333 -14 b 31 104 218 -14 114 28 l 128 217 b 338 135 182 169 260 135 b 461 201 407 135 461 164 b 322 292 461 260 374 278 b 54 506 208 324 54 357 b 326 708 54 624 169 708 b 603 607 435 708 535 668 l 513 496 b 326 560 463 539 393 560 b 219 504 254 560 219 535 b 364 433 219 467 289 451 b 625 203 501 401 625 353 b 333 -14 625 78 501 -14 m 351 1001 l 506 1001 l 389 792 l 246 792 "},"Ś":{"ha":872,"x_min":0,"x_max":0,"o":"m 442 -15 b 29 147 276 -15 139 44 l 140 267 b 447 150 228 189 325 150 b 663 282 574 150 663 207 b 408 446 663 358 579 397 b 81 735 247 492 81 556 b 438 1014 81 911 233 1014 b 800 854 574 1014 715 953 l 685 739 b 426 850 618 811 526 850 b 244 736 313 850 244 807 b 481 597 244 674 319 643 b 826 286 665 544 826 469 b 442 -15 826 103 650 -15 m 454 1307 l 610 1307 l 492 1097 l 349 1097 "},"ř":{"ha":478,"x_min":0,"x_max":0,"o":"m 81 0 l 81 694 l 244 694 l 244 615 b 453 708 292 671 364 708 l 453 553 b 435 554 447 554 440 554 b 244 375 331 554 244 481 l 244 0 m 151 1000 l 251 892 l 351 1000 l 506 1000 l 338 792 l 165 792 l -3 1000 "},"Ř":{"ha":915,"x_min":0,"x_max":0,"o":"m 103 0 l 103 1000 l 542 1000 b 863 657 726 1000 863 854 b 714 372 863 533 804 429 l 886 0 l 706 0 l 560 315 b 531 314 550 314 540 314 l 267 314 l 267 0 m 267 478 l 519 478 b 700 657 629 478 700 549 b 521 836 700 767 631 836 l 267 836 m 333 1307 l 433 1197 l 533 1307 l 688 1307 l 519 1097 l 347 1097 l 179 1307 "},"œ":{"ha":1344,"x_min":0,"x_max":0,"o":"m 44 347 b 406 708 44 546 207 708 b 689 568 521 708 624 653 b 968 708 750 654 851 708 b 1300 357 1167 708 1300 564 b 1294 274 1300 331 1297 301 l 778 274 b 986 135 804 188 883 135 b 1157 204 1053 135 1117 158 l 1261 100 b 983 -14 1194 26 1099 -14 b 690 128 860 -14 754 42 b 406 -14 625 42 522 -14 b 44 347 207 -14 44 149 m 208 347 b 406 150 208 239 297 151 b 603 347 514 150 603 239 b 406 544 603 456 514 544 b 208 347 297 544 208 456 m 1147 401 b 965 561 1133 500 1058 561 b 774 401 869 561 789 497 "},"Œ":{"ha":1369,"x_min":0,"x_max":0,"o":"m 50 500 b 533 1000 50 792 253 1000 l 1319 1000 l 1319 836 l 838 836 l 838 563 l 1264 563 l 1264 399 l 838 399 l 838 164 l 1319 164 l 1319 0 l 533 0 b 50 500 253 0 50 208 m 214 500 b 533 164 214 300 343 164 l 674 164 l 674 836 l 533 836 b 214 500 343 836 214 700 "},"Ŕ":{"ha":907,"x_min":0,"x_max":0,"o":"m 103 1000 l 542 1000 b 863 657 726 1000 863 854 b 714 372 863 533 804 429 l 886 0 l 706 0 l 560 315 b 531 314 550 314 540 314 l 267 314 l 267 0 l 103 0 m 267 478 l 519 478 b 700 657 629 478 700 549 b 521 836 700 767 631 836 l 267 836 m 349 1097 l 454 1307 l 610 1307 l 492 1097 "},"ŕ":{"ha":478,"x_min":0,"x_max":0,"o":"m 81 0 l 81 694 l 244 694 l 244 615 b 453 708 292 671 364 708 l 453 553 b 435 554 447 554 440 554 b 244 375 331 554 244 481 l 244 0 m 275 1001 l 429 1001 l 311 792 l 168 792 "},"Ţ":{"ha":843,"x_min":0,"x_max":0,"o":"m 26 836 l 26 1000 l 817 1000 l 817 836 l 504 836 l 504 0 l 482 0 l 475 -50 b 581 -162 542 -71 581 -107 b 401 -292 581 -246 506 -292 b 249 -265 354 -292 297 -281 l 285 -175 b 397 -197 311 -186 358 -197 b 460 -162 428 -196 460 -186 b 346 -111 460 -136 417 -122 l 365 0 l 340 0 l 340 836 "},"ţ":{"ha":543,"x_min":0,"x_max":0,"o":"m 92 694 b 153 754 128 694 153 718 l 153 881 l 317 881 l 317 694 l 493 694 l 493 531 l 317 531 l 317 282 b 400 144 317 172 333 144 b 493 156 431 144 458 149 l 493 0 b 407 -12 469 -7 439 -11 l 403 -50 b 508 -162 469 -71 507 -107 b 329 -292 508 -246 432 -292 b 176 -265 282 -292 225 -281 l 213 -175 b 325 -197 239 -186 286 -197 b 388 -162 356 -196 388 -186 b 274 -111 388 -136 344 -122 l 292 -4 b 153 233 194 19 153 94 l 153 531 l 25 531 l 25 694 "},"Ť":{"ha":843,"x_min":0,"x_max":0,"o":"m 26 836 l 26 1000 l 817 1000 l 817 836 l 504 836 l 504 0 l 340 0 l 340 836 m 322 1307 l 422 1197 l 522 1307 l 675 1307 l 508 1097 l 336 1097 l 168 1307 "},"Ŧ":{"ha":843,"x_min":0,"x_max":0,"o":"m 26 836 l 26 1000 l 817 1000 l 817 836 l 504 836 l 504 579 l 710 579 l 710 451 l 504 451 l 504 0 l 340 0 l 340 451 l 135 451 l 135 579 l 340 579 l 340 836 "},"ŧ":{"ha":543,"x_min":0,"x_max":0,"o":"m 153 417 l 153 531 l 25 531 l 25 694 l 92 694 b 153 754 128 694 153 718 l 153 881 l 317 881 l 317 694 l 493 694 l 493 531 l 317 531 l 317 417 l 493 417 l 493 304 l 319 304 l 319 242 b 400 144 319 164 342 144 b 493 156 431 144 458 149 l 493 0 b 378 -14 461 -8 415 -14 b 153 233 219 -14 153 58 l 153 304 l 25 304 l 25 417 "},"Ų":{"ha":983,"x_min":0,"x_max":0,"o":"m 492 -14 b 103 385 261 -14 103 149 l 103 1000 l 267 1000 l 267 385 b 492 149 267 240 354 149 b 717 385 631 149 717 240 l 717 1000 l 881 1000 l 881 385 b 754 82 881 257 833 151 b 639 -143 699 17 639 -76 b 683 -183 639 -172 660 -183 b 717 -178 694 -183 707 -181 l 728 -267 b 653 -278 704 -274 679 -278 b 518 -165 585 -278 518 -247 b 600 0 518 -115 553 -56 b 492 -14 567 -10 531 -14 "},"ų":{"ha":806,"x_min":0,"x_max":0,"o":"m 244 694 l 244 311 b 393 140 244 194 306 140 b 561 319 488 140 561 210 l 561 694 l 725 694 l 725 0 l 708 0 b 621 -151 656 -67 622 -117 b 658 -185 619 -176 638 -185 b 696 -178 669 -185 683 -182 l 706 -267 b 632 -278 683 -274 657 -278 b 496 -165 564 -278 496 -247 b 585 0 496 -114 533 -57 l 561 0 l 561 75 b 353 -14 510 21 435 -14 b 81 276 192 -14 81 100 l 81 694 "},"Ŵ":{"ha":1368,"x_min":0,"x_max":0,"o":"m 183 1000 l 393 274 l 603 1000 l 764 1000 l 975 274 l 1185 1000 l 1361 1000 l 1054 0 l 896 0 l 683 683 l 472 0 l 314 0 l 7 1000 m 599 1307 l 771 1307 l 938 1097 l 783 1097 l 683 1207 l 585 1097 l 431 1097 "},"ŵ":{"ha":1033,"x_min":0,"x_max":0,"o":"m 183 694 l 314 249 l 442 694 l 592 694 l 719 249 l 850 694 l 1022 694 l 807 0 l 631 0 l 517 371 l 401 0 l 226 0 l 11 694 m 263 792 l 431 1001 l 603 1001 l 771 792 l 617 792 l 517 901 l 417 792 "},"Ŷ":{"ha":878,"x_min":0,"x_max":0,"o":"m 6 1000 l 189 1000 l 439 518 l 689 1000 l 872 1000 l 521 333 l 521 0 l 357 0 l 357 333 m 185 1097 l 353 1307 l 525 1307 l 693 1097 l 539 1097 l 439 1207 l 339 1097 "},"ŷ":{"ha":768,"x_min":0,"x_max":0,"o":"m 11 694 l 189 694 l 389 206 l 579 694 l 757 694 l 431 -125 b 154 -319 378 -257 283 -319 b 90 -318 133 -319 111 -319 l 90 -160 b 129 -161 103 -160 115 -161 b 271 -64 194 -161 239 -136 l 299 0 m 299 1001 l 471 1001 l 638 792 l 485 792 l 385 901 l 285 792 l 131 792 "},"Ÿ":{"ha":878,"x_min":0,"x_max":0,"o":"m 6 1000 l 189 1000 l 439 518 l 689 1000 l 872 1000 l 521 333 l 521 0 l 357 0 l 357 333 m 208 1196 b 299 1286 208 1244 249 1286 b 389 1196 349 1286 389 1244 b 299 1106 389 1146 349 1106 b 208 1196 249 1106 208 1146 m 489 1196 b 579 1286 489 1244 531 1286 b 669 1196 629 1286 669 1244 b 579 1106 669 1146 629 1106 b 489 1196 531 1106 489 1146 "},"Ź":{"ha":856,"x_min":0,"x_max":0,"o":"m 772 1000 l 772 865 l 289 164 l 801 164 l 801 0 l 68 0 l 68 135 l 551 836 l 94 836 l 94 1000 m 431 1307 l 586 1307 l 468 1097 l 325 1097 "},"ź":{"ha":689,"x_min":0,"x_max":0,"o":"m 618 694 l 618 574 l 281 153 l 639 153 l 639 0 l 61 0 l 61 122 l 397 542 l 78 542 l 78 694 m 350 1001 l 504 1001 l 388 792 l 243 792 "},"Ż":{"ha":856,"x_min":0,"x_max":0,"o":"m 68 0 l 68 135 l 551 836 l 94 836 l 94 1000 l 772 1000 l 772 865 l 289 164 l 801 164 l 801 0 m 428 1094 b 331 1192 374 1094 331 1138 b 428 1289 331 1246 374 1289 b 525 1192 482 1289 525 1246 b 428 1094 525 1138 482 1094 "},"ż":{"ha":689,"x_min":0,"x_max":0,"o":"m 61 0 l 61 122 l 397 542 l 78 542 l 78 694 l 618 694 l 618 574 l 281 153 l 639 153 l 639 0 m 344 818 b 247 917 290 818 247 863 b 344 1014 247 969 290 1014 b 442 917 399 1014 442 969 b 344 818 442 863 399 818 "},"Ž":{"ha":856,"x_min":0,"x_max":0,"o":"m 68 135 l 551 836 l 94 836 l 94 1000 l 772 1000 l 772 865 l 289 164 l 801 164 l 801 0 l 68 0 m 314 1307 l 414 1197 l 514 1307 l 668 1307 l 500 1097 l 328 1097 l 160 1307 "},"ž":{"ha":689,"x_min":0,"x_max":0,"o":"m 61 122 l 397 542 l 78 542 l 78 694 l 618 694 l 618 574 l 281 153 l 639 153 l 639 0 l 61 0 m 90 1001 l 244 1001 l 344 892 l 444 1001 l 599 1001 l 431 792 l 258 792 "},"Ẁ":{"ha":1368,"x_min":0,"x_max":0,"o":"m 183 1000 l 393 274 l 603 1000 l 764 1000 l 975 274 l 1185 1000 l 1361 1000 l 1054 0 l 896 0 l 683 683 l 472 0 l 314 0 l 7 1000 m 499 1307 l 653 1307 l 758 1097 l 615 1097 "},"ẁ":{"ha":1033,"x_min":0,"x_max":0,"o":"m 183 694 l 314 249 l 442 694 l 592 694 l 719 249 l 850 694 l 1022 694 l 807 0 l 631 0 l 517 371 l 401 0 l 226 0 l 11 694 m 331 1001 l 485 1001 l 592 792 l 449 792 "},"Ẃ":{"ha":1368,"x_min":0,"x_max":0,"o":"m 183 1000 l 393 274 l 603 1000 l 764 1000 l 975 274 l 1185 1000 l 1361 1000 l 1054 0 l 896 0 l 683 683 l 472 0 l 314 0 l 7 1000 m 715 1307 l 869 1307 l 753 1097 l 610 1097 "},"ẃ":{"ha":1033,"x_min":0,"x_max":0,"o":"m 183 694 l 314 249 l 442 694 l 592 694 l 719 249 l 850 694 l 1022 694 l 807 0 l 631 0 l 517 371 l 401 0 l 226 0 l 11 694 m 547 1001 l 703 1001 l 585 792 l 442 792 "},"Ẅ":{"ha":1368,"x_min":0,"x_max":0,"o":"m 183 1000 l 393 274 l 603 1000 l 764 1000 l 975 274 l 1185 1000 l 1361 1000 l 1054 0 l 896 0 l 683 683 l 472 0 l 314 0 l 7 1000 m 825 1107 b 735 1196 775 1107 735 1147 b 825 1286 735 1246 775 1286 b 915 1196 874 1286 915 1246 b 825 1107 915 1147 874 1107 m 453 1196 b 543 1286 453 1246 493 1286 b 633 1196 593 1286 633 1246 b 543 1107 633 1147 593 1107 b 453 1196 493 1107 453 1147 "},"ẅ":{"ha":1033,"x_min":0,"x_max":0,"o":"m 11 694 l 183 694 l 314 249 l 442 694 l 592 694 l 719 249 l 850 694 l 1022 694 l 807 0 l 631 0 l 517 371 l 401 0 l 226 0 m 567 921 b 657 1011 567 971 607 1011 b 747 921 707 1011 747 971 b 657 831 747 871 707 831 b 567 921 607 831 567 871 m 286 921 b 376 1011 286 971 326 1011 b 467 921 426 1011 467 971 b 376 831 467 871 426 831 b 286 921 326 831 286 871 "},"̦":{"ha":274,"x_min":0,"x_max":0,"o":"m 224 -60 l 174 -293 l 50 -293 l 69 -60 "},"∙":{"ha":306,"x_min":0,"x_max":0,"o":"m 50 500 b 153 603 50 557 96 603 b 256 500 210 603 256 557 b 153 397 256 443 210 397 b 50 500 96 397 50 443 "},"Ķ":{"ha":861,"x_min":0,"x_max":0,"o":"m 103 0 l 103 1000 l 267 1000 l 267 610 l 633 1000 l 840 1000 l 400 525 l 856 0 l 650 0 l 267 438 l 267 0 m 344 -293 l 364 -60 l 518 -60 l 468 -293 "},"ķ":{"ha":718,"x_min":0,"x_max":0,"o":"m 81 0 l 81 1000 l 244 1000 l 244 410 l 483 694 l 690 694 l 408 360 l 707 0 l 501 0 l 244 310 l 244 0 m 274 -293 l 293 -60 l 447 -60 l 397 -293 "},"Ļ":{"ha":778,"x_min":0,"x_max":0,"o":"m 267 1000 l 267 164 l 743 164 l 743 0 l 103 0 l 103 1000 m 515 -60 l 465 -293 l 342 -293 l 361 -60 "},"ļ":{"ha":358,"x_min":0,"x_max":0,"o":"m 261 0 l 97 0 l 97 1042 l 261 1042 m 258 -60 l 207 -293 l 85 -293 l 103 -60 "},"Ĺ":{"ha":778,"x_min":0,"x_max":0,"o":"m 267 1000 l 267 164 l 743 164 l 743 0 l 103 0 l 103 1000 m 200 1307 l 356 1307 l 238 1097 l 94 1097 "},"ĺ":{"ha":325,"x_min":0,"x_max":0,"o":"m 244 1042 l 244 0 l 81 0 l 81 1042 m 179 1307 l 333 1307 l 228 1118 l 83 1118 "},"Ș":{"ha":865,"x_min":0,"x_max":0,"o":"m 136 267 b 443 150 224 189 321 150 b 658 282 569 150 658 207 b 406 446 658 358 576 397 b 76 735 243 492 76 556 b 435 1014 76 911 229 1014 b 797 854 571 1014 711 953 l 681 739 b 424 850 615 811 522 850 b 242 736 308 850 242 807 b 476 597 242 674 315 643 b 822 286 661 544 822 469 b 438 -15 822 103 646 -15 b 25 147 272 -15 136 44 m 372 -60 l 528 -60 l 476 -293 l 354 -293 "},"ț":{"ha":543,"x_min":0,"x_max":0,"o":"m 92 694 b 153 754 128 694 153 718 l 153 881 l 317 881 l 317 694 l 493 694 l 493 531 l 317 531 l 317 282 b 400 144 317 172 333 144 b 493 156 431 144 458 149 l 493 0 b 378 -14 461 -8 415 -14 b 153 233 219 -14 153 58 l 153 531 l 25 531 l 25 694 m 268 -60 l 422 -60 l 372 -293 l 249 -293 "},"Ț":{"ha":843,"x_min":0,"x_max":0,"o":"m 26 836 l 26 1000 l 817 1000 l 817 836 l 504 836 l 504 0 l 340 0 l 340 836 m 344 -60 l 499 -60 l 449 -293 l 326 -293 "},"ș":{"ha":656,"x_min":0,"x_max":0,"o":"m 333 -14 b 31 104 218 -14 114 28 l 128 217 b 338 135 182 169 260 135 b 461 201 407 135 461 164 b 322 292 461 260 374 278 b 54 506 208 324 54 357 b 326 708 54 624 169 708 b 603 607 435 708 535 668 l 513 496 b 326 560 463 539 393 560 b 219 504 254 560 219 535 b 364 433 219 467 289 451 b 625 203 501 401 625 353 b 333 -14 625 78 501 -14 m 265 -60 l 419 -60 l 369 -293 l 247 -293 "},"ŏ":{"ha":811,"x_min":0,"x_max":0,"o":"m 406 708 b 767 347 606 708 767 547 b 406 -14 767 149 606 -14 b 44 347 207 -14 44 149 b 406 708 44 547 207 708 m 406 150 b 603 347 514 150 603 239 b 406 544 603 456 514 544 b 208 347 297 544 208 456 b 406 150 208 239 297 150 m 290 1000 b 406 900 294 936 333 900 b 521 1000 479 900 517 936 l 643 1000 b 406 785 639 861 551 785 b 169 1000 260 785 172 861 "},"Ŏ":{"ha":1128,"x_min":0,"x_max":0,"o":"m 564 -14 b 50 500 281 -14 50 217 b 564 1014 50 783 281 1014 b 1078 500 847 1014 1078 783 b 564 -14 1078 217 847 -14 m 564 850 b 214 500 371 850 214 693 b 564 150 214 307 371 150 b 914 500 757 150 914 307 b 564 850 914 693 757 850 m 564 1090 b 328 1306 418 1090 331 1167 l 449 1306 b 564 1206 453 1242 492 1206 b 679 1306 638 1206 675 1242 l 801 1306 b 564 1090 797 1167 710 1090 "},"ō":{"ha":811,"x_min":0,"x_max":0,"o":"m 44 347 b 406 708 44 547 207 708 b 767 347 606 708 767 547 b 406 -14 767 149 606 -14 b 44 347 207 -14 44 149 m 406 150 b 603 347 514 150 603 239 b 406 544 603 456 514 544 b 208 347 297 544 208 456 b 406 150 208 239 297 150 m 224 844 l 224 957 l 588 957 l 588 844 "},"Ō":{"ha":1128,"x_min":0,"x_max":0,"o":"m 50 500 b 564 1014 50 783 281 1014 b 1078 500 847 1014 1078 783 b 564 -14 1078 217 847 -14 b 50 500 281 -14 50 217 m 564 850 b 214 500 371 850 214 693 b 564 150 214 307 371 150 b 914 500 757 150 914 307 b 564 850 914 693 757 850 m 382 1238 l 746 1238 l 746 1125 l 382 1125 "},"ŉ":{"ha":906,"x_min":0,"x_max":0,"o":"m 181 0 l 181 694 l 344 694 l 344 619 b 553 708 396 674 469 708 b 825 418 714 708 825 594 l 825 0 l 661 0 l 661 383 b 513 554 661 500 600 554 b 344 375 418 554 344 485 l 344 0 m 1 907 l 156 907 l 106 674 l -18 674 "},"Ń":{"ha":992,"x_min":0,"x_max":0,"o":"m 103 0 l 103 1000 l 254 1000 l 726 311 l 726 1000 l 890 1000 l 890 0 l 738 0 l 267 689 l 267 0 m 421 1097 l 526 1307 l 681 1307 l 564 1097 "},"ń":{"ha":806,"x_min":0,"x_max":0,"o":"m 81 694 l 244 694 l 244 619 b 453 708 296 674 371 708 b 725 418 614 708 725 594 l 725 0 l 561 0 l 561 383 b 413 554 561 500 500 554 b 244 375 318 554 244 485 l 244 0 l 81 0 m 344 792 l 451 1001 l 606 1001 l 488 792 "},"Ņ":{"ha":992,"x_min":0,"x_max":0,"o":"m 103 0 l 103 1000 l 254 1000 l 726 311 l 726 1000 l 890 1000 l 890 0 l 738 0 l 267 689 l 267 0 m 410 -293 l 428 -60 l 583 -60 l 532 -293 "},"ņ":{"ha":806,"x_min":0,"x_max":0,"o":"m 81 694 l 244 694 l 244 619 b 453 708 296 674 371 708 b 725 418 614 708 725 594 l 725 0 l 561 0 l 561 383 b 413 554 561 500 500 554 b 244 375 318 554 244 485 l 244 0 l 81 0 m 335 -60 l 489 -60 l 439 -293 l 317 -293 "},"Ň":{"ha":992,"x_min":0,"x_max":0,"o":"m 103 0 l 103 1000 l 254 1000 l 726 311 l 726 1000 l 890 1000 l 890 0 l 738 0 l 267 689 l 267 0 m 408 1307 l 508 1197 l 608 1307 l 763 1307 l 594 1097 l 422 1097 l 256 1307 "},"ň":{"ha":806,"x_min":0,"x_max":0,"o":"m 81 0 l 81 694 l 244 694 l 244 619 b 453 708 296 674 371 708 b 725 418 614 708 725 594 l 725 0 l 561 0 l 561 383 b 413 554 561 500 500 554 b 244 375 318 554 244 485 l 244 0 m 163 1001 l 317 1001 l 417 892 l 517 1001 l 671 1001 l 503 792 l 331 792 "},"ŀ":{"ha":519,"x_min":0,"x_max":0,"o":"m 244 1042 l 244 0 l 81 0 l 81 1042 m 421 361 b 319 464 365 361 319 407 b 421 567 319 521 365 567 b 524 464 478 567 524 521 b 421 361 524 407 478 361 "},"Ľ":{"ha":778,"x_min":0,"x_max":0,"o":"m 267 1000 l 267 164 l 743 164 l 743 0 l 103 0 l 103 1000 m 528 1000 l 682 1000 l 632 767 l 508 767 "},"ľ":{"ha":476,"x_min":0,"x_max":0,"o":"m 244 0 l 81 0 l 81 1042 l 244 1042 m 496 1000 l 444 767 l 322 767 l 340 1000 "},"Ŀ":{"ha":778,"x_min":0,"x_max":0,"o":"m 103 0 l 103 1000 l 267 1000 l 267 164 l 743 164 l 743 0 m 408 511 b 510 614 408 568 454 614 b 613 511 567 614 613 568 b 510 408 613 454 567 408 b 408 511 454 408 408 454 "},"Ŗ":{"ha":915,"x_min":0,"x_max":0,"o":"m 103 0 l 103 1000 l 542 1000 b 863 657 726 1000 863 854 b 714 372 863 533 804 429 l 886 0 l 706 0 l 560 315 b 531 314 550 314 540 314 l 267 314 l 267 0 m 267 478 l 519 478 b 700 657 629 478 700 549 b 521 836 700 767 631 836 l 267 836 m 386 -293 l 404 -60 l 560 -60 l 508 -293 "},"ŗ":{"ha":478,"x_min":0,"x_max":0,"o":"m 81 0 l 81 694 l 244 694 l 244 615 b 453 708 292 671 364 708 l 453 553 b 435 554 447 554 440 554 b 244 375 331 554 244 481 l 244 0 m 85 -60 l 240 -60 l 189 -293 l 67 -293 "},"ˉ":{"ha":592,"x_min":0,"x_max":0,"o":"m 114 957 l 478 957 l 478 844 l 114 844 "},"Ł":{"ha":778,"x_min":0,"x_max":0,"o":"m 25 300 l 25 463 l 103 506 l 103 1000 l 267 1000 l 267 596 l 468 707 l 468 544 l 267 433 l 267 164 l 743 164 l 743 0 l 103 0 l 103 343 "},"ł":{"ha":325,"x_min":0,"x_max":0,"o":"m 0 494 l 81 538 l 81 1042 l 244 1042 l 244 629 l 325 674 l 325 511 l 244 467 l 244 0 l 81 0 l 81 375 l 0 332 "},"Ĭ":{"ha":369,"x_min":0,"x_max":0,"o":"m 103 0 l 103 1000 l 267 1000 l 267 0 m 69 1306 b 185 1206 74 1242 113 1206 b 300 1306 258 1206 296 1242 l 422 1306 b 185 1090 418 1167 331 1090 b -53 1306 39 1090 -49 1167 "},"ĭ":{"ha":325,"x_min":0,"x_max":0,"o":"m 81 694 l 244 694 l 244 0 l 81 0 m 47 1000 b 163 900 51 936 90 900 b 278 1000 236 900 274 936 l 400 1000 b 163 785 396 861 308 785 b -75 1000 17 785 -71 861 "},"ſ":{"ha":438,"x_min":0,"x_max":0,"o":"m 81 0 l 81 732 b 360 1014 81 932 189 1014 l 415 1014 l 400 856 l 372 856 b 244 721 290 856 244 826 l 244 0 "},"Æ":{"ha":1354,"x_min":0,"x_max":0,"o":"m 481 1000 l 1304 1000 l 1304 836 l 821 836 l 821 601 l 1249 601 l 1249 438 l 821 438 l 821 164 l 1304 164 l 1304 0 l 657 0 l 657 207 l 290 207 l 190 0 l 14 0 m 657 371 l 657 836 l 586 836 l 364 371 "},"È":{"ha":800,"x_min":0,"x_max":0,"o":"m 103 0 l 103 1000 l 750 1000 l 750 836 l 267 836 l 267 601 l 694 601 l 694 438 l 267 438 l 267 164 l 750 164 l 750 0 m 282 1307 l 436 1307 l 542 1097 l 399 1097 "},"É":{"ha":800,"x_min":0,"x_max":0,"o":"m 103 0 l 103 1000 l 750 1000 l 750 836 l 267 836 l 267 601 l 694 601 l 694 438 l 267 438 l 267 164 l 750 164 l 750 0 m 332 1097 l 439 1307 l 593 1307 l 476 1097 "},"Ê":{"ha":800,"x_min":0,"x_max":0,"o":"m 103 1000 l 750 1000 l 750 836 l 267 836 l 267 601 l 694 601 l 694 438 l 267 438 l 267 164 l 750 164 l 750 0 l 103 0 m 335 1307 l 507 1307 l 675 1097 l 521 1097 l 421 1207 l 321 1097 l 167 1097 "},"Ë":{"ha":800,"x_min":0,"x_max":0,"o":"m 103 1000 l 750 1000 l 750 836 l 267 836 l 267 601 l 694 601 l 694 438 l 267 438 l 267 164 l 750 164 l 750 0 l 103 0 m 197 1196 b 288 1286 197 1244 238 1286 b 378 1196 338 1286 378 1244 b 288 1106 378 1146 338 1106 b 197 1196 238 1106 197 1146 m 478 1196 b 568 1286 478 1244 518 1286 b 658 1196 618 1286 658 1244 b 568 1106 658 1146 618 1106 b 478 1196 518 1106 478 1146 "},"ò":{"ha":811,"x_min":0,"x_max":0,"o":"m 44 347 b 406 708 44 547 207 708 b 767 347 606 708 767 547 b 406 -14 767 149 606 -14 b 44 347 207 -14 44 149 m 406 150 b 603 347 514 150 603 239 b 406 544 603 456 514 544 b 208 347 297 544 208 456 b 406 150 208 239 297 150 m 382 1001 l 488 792 l 344 792 l 228 1001 "},"ó":{"ha":811,"x_min":0,"x_max":0,"o":"m 44 347 b 406 708 44 547 207 708 b 767 347 606 708 767 547 b 406 -14 767 149 606 -14 b 44 347 207 -14 44 149 m 208 347 b 406 150 208 239 297 150 b 603 347 514 150 603 239 b 406 544 603 456 514 544 b 208 347 297 544 208 456 m 436 1001 l 590 1001 l 474 792 l 331 792 "},"ô":{"ha":811,"x_min":0,"x_max":0,"o":"m 44 347 b 406 708 44 547 207 708 b 767 347 606 708 767 547 b 406 -14 767 149 606 -14 b 44 347 207 -14 44 149 m 406 150 b 603 347 514 150 603 239 b 406 544 603 456 514 544 b 208 347 297 544 208 456 b 406 150 208 239 297 150 m 319 1001 l 492 1001 l 660 792 l 506 792 l 406 901 l 306 792 l 151 792 "},"õ":{"ha":811,"x_min":0,"x_max":0,"o":"m 44 347 b 406 708 44 547 207 708 b 767 347 606 708 767 547 b 406 -14 767 149 606 -14 b 44 347 207 -14 44 149 m 406 150 b 603 347 514 150 603 239 b 406 544 603 456 514 544 b 208 347 297 544 208 456 b 406 150 208 239 297 150 m 163 832 b 307 1014 165 953 214 1014 b 496 932 413 1014 435 932 b 539 1000 526 932 538 951 l 649 1000 b 504 815 647 878 599 815 b 315 899 397 815 376 899 b 272 832 285 899 274 879 "},"ö":{"ha":811,"x_min":0,"x_max":0,"o":"m 406 708 b 767 347 606 708 767 547 b 406 -14 767 149 606 -14 b 44 347 207 -14 44 149 b 406 708 44 547 207 708 m 208 347 b 406 150 208 239 297 150 b 603 347 514 150 603 239 b 406 544 603 456 514 544 b 208 347 297 544 208 456 m 456 921 b 546 1011 456 971 496 1011 b 636 921 596 1011 636 971 b 546 831 636 871 596 831 b 456 921 496 831 456 871 m 175 921 b 265 1011 175 971 215 1011 b 356 921 315 1011 356 971 b 265 831 356 871 315 831 b 175 921 215 831 175 871 "},"ø":{"ha":811,"x_min":0,"x_max":0,"o":"m 203 49 b 44 347 107 114 44 224 b 406 708 44 547 207 708 b 507 693 442 708 475 703 l 547 778 l 674 778 l 610 644 b 767 347 704 579 767 471 b 406 -14 767 147 606 -14 b 304 0 369 -14 336 -8 l 265 -83 l 139 -83 l 203 49 m 408 540 b 208 347 299 540 208 460 b 276 204 208 290 235 239 l 433 538 b 408 540 425 539 417 540 m 378 156 b 407 154 388 154 397 154 b 603 347 514 154 603 239 b 536 489 603 404 576 456 "},"ő":{"ha":811,"x_min":0,"x_max":0,"o":"m 406 708 b 767 347 606 708 767 547 b 406 -14 767 149 606 -14 b 44 347 207 -14 44 149 b 406 708 44 547 207 708 m 208 347 b 406 150 208 239 297 150 b 603 347 514 150 603 239 b 406 544 603 456 514 544 b 208 347 297 544 208 456 m 200 792 l 301 1001 l 456 1001 l 344 792 m 446 792 l 553 1001 l 707 1001 l 589 792 "},"ė":{"ha":774,"x_min":0,"x_max":0,"o":"m 414 -14 b 44 347 204 -14 44 143 b 399 708 44 551 197 708 b 731 357 596 708 731 564 b 724 274 731 331 726 301 l 207 274 b 415 135 235 188 313 135 b 588 204 482 135 546 158 l 692 100 b 414 -14 625 26 528 -14 m 396 561 b 204 401 300 561 218 497 l 576 401 b 396 561 563 500 489 561 m 310 917 b 407 1014 310 969 353 1014 b 504 917 461 1014 504 969 b 407 818 504 863 461 818 b 310 917 353 818 310 863 "},"Ì":{"ha":369,"x_min":0,"x_max":0,"o":"m 267 0 l 103 0 l 103 1000 l 267 1000 m 128 1097 l 10 1307 l 165 1307 l 271 1097 "},"Í":{"ha":369,"x_min":0,"x_max":0,"o":"m 267 0 l 103 0 l 103 1000 l 267 1000 m 206 1307 l 360 1307 l 242 1097 l 99 1097 "},"Î":{"ha":369,"x_min":0,"x_max":0,"o":"m 267 1000 l 267 0 l 103 0 l 103 1000 m -69 1097 l 99 1307 l 271 1307 l 439 1097 l 285 1097 l 185 1207 l 85 1097 "},"Ï":{"ha":369,"x_min":0,"x_max":0,"o":"m 103 1000 l 267 1000 l 267 0 l 103 0 m 235 1196 b 325 1286 235 1244 275 1286 b 415 1196 375 1286 415 1244 b 325 1106 415 1146 375 1106 b 235 1196 275 1106 235 1146 m -46 1196 b 44 1286 -46 1244 -6 1286 b 135 1196 94 1286 135 1244 b 44 1106 135 1146 94 1106 b -46 1196 -6 1106 -46 1146 "},"Ģ":{"ha":1024,"x_min":0,"x_max":0,"o":"m 50 500 b 553 1014 50 792 268 1014 b 954 831 710 1014 860 946 l 838 715 b 558 850 774 800 669 850 b 214 500 358 850 214 703 b 558 150 214 297 358 150 b 786 215 640 150 721 174 l 786 383 l 554 383 l 554 547 l 950 547 l 950 139 b 558 -14 844 39 701 -14 b 50 500 272 -14 50 208 m 488 -60 l 642 -60 l 590 -293 l 468 -293 "},"ģ":{"ha":847,"x_min":0,"x_max":0,"o":"m 44 347 b 389 708 44 546 190 708 b 603 608 476 708 557 663 l 603 694 l 767 694 l 767 14 b 396 -319 767 -193 626 -319 b 89 -207 286 -319 171 -282 l 203 -93 b 399 -164 257 -139 331 -164 b 603 3 528 -164 603 -101 l 603 89 b 389 -14 557 32 476 -14 b 44 347 190 -14 44 149 m 406 544 b 208 347 297 544 208 456 b 406 150 208 239 297 150 b 603 347 514 150 603 239 b 406 544 603 456 514 544 m 322 772 l 371 1000 l 494 1000 l 476 772 "},"ť":{"ha":561,"x_min":0,"x_max":0,"o":"m 92 694 b 153 754 128 694 153 718 l 153 881 l 317 881 l 317 694 l 493 694 l 493 531 l 317 531 l 317 282 b 400 144 317 172 333 144 b 493 156 431 144 458 149 l 493 0 b 378 -14 461 -8 415 -14 b 153 233 219 -14 153 58 l 153 531 l 25 531 l 25 694 m 388 767 l 407 1000 l 561 1000 l 511 767 "},"ß":{"ha":853,"x_min":0,"x_max":0,"o":"m 81 663 b 428 1014 81 886 208 1013 b 742 739 613 1015 742 903 b 664 549 742 668 715 600 b 808 293 756 501 808 411 b 489 -14 808 110 679 -14 b 310 8 428 -14 368 -7 l 310 172 b 468 149 356 158 414 149 b 646 297 585 149 646 204 b 478 444 646 389 582 444 l 328 444 l 328 597 l 428 597 b 576 721 531 601 576 661 b 422 853 576 799 511 853 b 244 664 317 853 244 778 l 244 0 l 81 0 "},"ĸ":{"ha":718,"x_min":0,"x_max":0,"o":"m 81 0 l 81 694 l 244 694 l 244 410 l 483 694 l 690 694 l 408 360 l 707 0 l 501 0 l 244 310 l 244 0 "},"₣":{"ha":836,"x_min":0,"x_max":0,"o":"m 57 296 l 131 296 l 131 1000 l 778 1000 l 778 836 l 294 836 l 294 601 l 722 601 l 722 438 l 294 438 l 294 296 l 490 296 l 490 168 l 294 168 l 294 0 l 131 0 l 131 168 l 57 168 "},"₤":{"ha":729,"x_min":0,"x_max":0,"o":"m 36 290 l 36 413 l 160 413 l 160 501 l 36 501 l 36 624 l 160 624 l 160 658 b 475 1014 160 889 271 1014 b 713 947 563 1014 638 992 l 667 796 b 481 850 601 835 547 850 b 321 658 371 850 321 790 l 321 624 l 583 624 l 583 501 l 321 501 l 321 413 l 583 413 l 583 290 l 319 290 b 256 156 313 228 293 185 l 686 156 l 686 0 l 26 0 l 26 156 b 156 290 97 167 142 214 "},"₧":{"ha":1424,"x_min":0,"x_max":0,"o":"m 103 0 l 103 1000 l 519 1000 b 840 657 704 1000 840 854 b 519 314 840 460 704 314 l 267 314 l 267 0 m 904 531 l 904 694 l 972 694 b 1032 754 1008 694 1032 718 l 1032 881 l 1196 881 l 1196 694 l 1374 694 l 1374 531 l 1196 531 l 1196 282 b 1279 144 1196 172 1213 144 b 1372 156 1311 144 1338 149 l 1372 0 b 1258 -14 1340 -8 1294 -14 b 1032 233 1099 -14 1032 58 l 1032 531 m 497 478 b 678 657 607 478 678 549 b 499 836 678 767 608 836 l 267 836 l 267 478 "},"Δ":{"ha":972,"x_min":0,"x_max":0,"o":"m 563 1000 l 958 0 l 14 0 l 410 1000 m 254 164 l 718 164 l 486 747 "},"Ω":{"ha":1128,"x_min":0,"x_max":0,"o":"m 47 164 l 185 164 b 50 500 101 251 50 369 b 564 1014 50 783 281 1014 b 1078 500 847 1014 1078 783 b 943 164 1078 369 1026 251 l 1081 164 l 1081 0 l 683 0 l 683 172 b 914 500 818 221 914 349 b 564 850 914 693 757 850 b 214 500 371 850 214 693 b 444 171 214 349 310 219 l 444 0 l 47 0 "},"℮":{"ha":774,"x_min":0,"x_max":0,"o":"m 44 347 b 397 708 44 550 190 708 b 729 347 608 708 729 546 b 725 290 729 329 728 308 l 217 290 l 217 158 b 417 82 265 110 333 82 b 626 165 494 82 572 108 l 693 99 b 419 -14 621 21 521 -14 b 44 347 208 -14 44 133 m 217 385 l 558 385 l 558 550 b 397 614 518 590 464 614 b 217 540 324 614 261 586 "},"≥":{"ha":713,"x_min":0,"x_max":0,"o":"m 54 740 l 54 910 l 658 676 l 658 519 l 54 286 l 54 456 l 421 597 m 658 224 l 658 76 l 54 76 l 54 224 "},"≤":{"ha":713,"x_min":0,"x_max":0,"o":"m 54 676 l 658 910 l 658 740 l 292 597 l 658 456 l 658 286 l 54 519 m 54 224 l 658 224 l 658 76 l 54 76 "},"◊":{"ha":750,"x_min":0,"x_max":0,"o":"m 306 1000 l 444 1000 l 710 503 l 443 0 l 307 0 l 40 503 m 375 817 l 210 501 l 375 183 l 540 501 "},"∕":{"ha":276,"x_min":0,"x_max":0,"o":"m 535 1000 l -118 0 l -258 0 l 394 1000 "},"∏":{"ha":1046,"x_min":0,"x_max":0,"o":"m 103 1000 l 943 1000 l 943 -307 l 781 -307 l 779 836 l 267 836 l 267 -307 l 103 -307 "},"∑":{"ha":867,"x_min":0,"x_max":0,"o":"m 50 -306 l 50 -169 l 410 347 l 50 864 l 50 1000 l 817 1000 l 817 836 l 268 836 l 585 381 l 585 313 l 267 -142 l 817 -142 l 817 -306 "},"π":{"ha":793,"x_min":0,"x_max":0,"o":"m 779 694 l 779 531 l 713 531 l 713 0 l 549 0 l 549 531 l 244 531 l 244 0 l 81 0 l 81 531 l 13 531 l 13 694 "},"≠":{"ha":713,"x_min":0,"x_max":0,"o":"m 58 276 l 58 440 l 261 440 l 318 560 l 58 560 l 58 724 l 394 724 l 467 875 l 614 875 l 543 724 l 654 724 l 654 560 l 465 560 l 408 440 l 654 440 l 654 276 l 331 276 l 260 125 l 111 125 l 183 276 "},"ℓ":{"ha":633,"x_min":0,"x_max":0,"o":"m 7 375 b 86 408 33 386 60 397 l 86 749 b 343 1014 86 928 215 1014 b 600 749 471 1014 600 928 b 244 317 600 538 424 408 l 246 269 b 382 139 249 174 311 139 b 517 174 424 139 472 151 l 563 31 b 369 -14 503 1 433 -14 b 88 229 219 -14 101 67 l 86 246 b 7 211 58 233 32 222 l 7 375 m 343 865 b 243 749 293 864 243 828 l 243 486 b 443 749 354 550 443 632 b 343 865 443 828 393 865 "},"ﬅ":{"ha":876,"x_min":0,"x_max":0,"o":"m 81 735 b 365 1014 81 929 222 1014 b 649 735 507 1014 649 929 l 649 694 l 826 694 l 826 531 l 649 531 l 649 282 b 733 144 649 172 667 144 b 826 156 764 144 792 149 l 826 0 b 711 -14 794 -8 749 -14 b 485 233 551 -14 485 58 l 485 531 l 358 531 l 358 694 l 438 694 b 485 729 467 694 485 704 l 485 735 b 365 854 485 821 425 854 b 244 735 304 854 244 821 l 244 0 l 81 0 l 81 735 "},"∫":{"ha":647,"x_min":0,"x_max":0,"o":"m -6 -319 l 10 -161 l 21 -161 b 146 -72 90 -161 133 -140 l 300 806 b 574 1014 326 957 426 1014 l 638 1014 l 622 856 l 586 856 b 463 772 519 856 474 838 l 308 -110 b 35 -319 282 -261 182 -319 "},"√":{"ha":1035,"x_min":0,"x_max":0,"o":"m 310 575 l 486 204 l 857 1001 l 1035 1001 l 568 0 l 404 0 l 210 410 l 58 410 l 58 574 "},"∞":{"ha":1307,"x_min":0,"x_max":0,"o":"m 351 161 b 72 438 185 161 72 286 b 351 714 72 588 185 714 b 657 558 507 714 592 639 b 954 714 724 639 807 714 b 1235 438 1122 714 1235 589 b 954 161 1235 288 1122 161 b 656 317 807 161 722 236 b 351 161 590 236 507 161 m 218 438 b 351 310 218 371 275 310 b 567 436 451 310 513 369 b 351 565 511 504 450 565 b 218 438 275 565 218 506 m 744 439 b 954 310 799 371 856 310 b 1089 438 1032 310 1088 369 b 954 565 1089 504 1032 565 b 744 439 856 565 797 506 "},"≈":{"ha":940,"x_min":0,"x_max":0,"o":"m 51 579 b 308 769 93 694 189 769 b 635 653 450 769 526 653 b 757 749 693 653 733 689 l 889 683 b 635 497 846 571 751 497 b 308 614 492 497 415 614 b 183 514 247 614 206 575 m 51 254 b 308 444 93 369 189 444 b 635 328 450 444 526 328 b 757 424 693 328 733 364 l 889 358 b 635 172 846 246 751 172 b 308 289 492 172 415 289 b 183 189 247 289 206 250 "},"~":{"ha":940,"x_min":0,"x_max":0,"o":"m 51 446 b 308 636 93 561 189 636 b 635 519 450 636 526 519 b 757 615 693 519 733 556 l 889 550 b 635 364 846 438 751 364 b 308 481 492 364 415 481 b 183 381 247 481 206 442 l 51 446 "},"ð":{"ha":775,"x_min":0,"x_max":0,"o":"m 44 322 b 356 649 44 506 178 649 b 543 579 425 649 490 622 b 386 811 514 675 463 751 l 313 715 l 225 782 l 294 872 b 175 924 258 892 218 908 l 236 1053 b 385 989 289 1038 339 1015 l 463 1093 l 550 1025 l 475 928 b 731 379 642 796 731 593 b 381 -14 731 143 592 -14 b 44 322 190 -14 44 133 m 208 322 b 386 150 208 222 290 150 b 563 322 482 150 563 222 b 386 494 563 421 482 494 b 208 322 290 494 208 421 "},"∂":{"ha":778,"x_min":0,"x_max":0,"o":"m 44 306 b 410 654 44 511 206 654 b 519 643 443 654 481 650 b 176 924 450 786 324 872 l 238 1053 b 733 411 517 967 733 710 b 356 -14 733 168 574 -14 b 44 306 172 -14 44 118 m 207 311 b 361 150 207 219 274 150 b 574 394 482 150 574 257 b 565 482 574 425 571 454 b 438 494 504 493 458 494 b 207 311 297 494 207 422 "},"ﬀ":{"ha":956,"x_min":0,"x_max":0,"o":"m 22 694 l 139 694 l 139 732 b 417 1014 139 932 246 1014 l 474 1014 l 474 856 l 431 856 b 303 721 349 856 303 826 l 303 694 l 599 694 l 599 732 b 876 1014 599 932 706 1014 l 933 1014 l 933 856 l 890 856 b 763 721 808 856 763 826 l 763 694 l 933 694 l 933 531 l 763 531 l 763 0 l 599 0 l 599 531 l 303 531 l 303 0 l 139 0 l 139 531 l 22 531 "},"ﬁ":{"ha":817,"x_min":0,"x_max":0,"o":"m 22 694 l 139 694 l 139 732 b 417 1014 139 932 246 1014 l 474 1014 l 474 856 l 431 856 b 303 721 349 856 303 826 l 303 694 l 736 694 l 736 0 l 572 0 l 572 531 l 303 531 l 303 0 l 139 0 l 139 531 l 22 531 m 557 917 b 654 1014 557 969 600 1014 b 753 917 708 1014 753 969 b 654 818 753 863 708 818 b 557 917 600 818 557 863 "},"ﬄ":{"ha":1281,"x_min":0,"x_max":0,"o":"m 139 694 l 139 732 b 417 1014 139 932 246 1014 l 474 1014 l 474 856 l 431 856 b 303 721 349 856 303 826 l 303 694 l 599 694 l 599 732 b 876 1014 599 932 706 1014 l 1036 1014 l 1036 1042 l 1200 1042 l 1200 0 l 1036 0 l 1036 856 l 890 856 b 763 721 808 856 763 826 l 763 694 l 933 694 l 933 531 l 763 531 l 763 0 l 599 0 l 599 531 l 303 531 l 303 0 l 139 0 l 139 531 l 22 531 l 22 694 "},"ﬃ":{"ha":1276,"x_min":0,"x_max":0,"o":"m 22 694 l 139 694 l 139 732 b 417 1014 139 932 246 1014 l 474 1014 l 474 856 l 431 856 b 303 721 349 856 303 826 l 303 694 l 599 694 l 599 732 b 876 1014 599 932 706 1014 l 933 1014 l 933 856 l 890 856 b 763 721 808 856 763 826 l 763 694 l 1196 694 l 1196 0 l 1032 0 l 1032 531 l 763 531 l 763 0 l 599 0 l 599 531 l 303 531 l 303 0 l 139 0 l 139 531 l 22 531 m 1017 917 b 1114 1014 1017 969 1060 1014 b 1213 917 1168 1014 1213 969 b 1114 818 1213 863 1168 818 b 1017 917 1060 818 1017 863 "},"ﬂ":{"ha":821,"x_min":0,"x_max":0,"o":"m 139 694 l 139 732 b 417 1014 139 932 246 1014 l 576 1014 l 576 1042 l 740 1042 l 740 0 l 576 0 l 576 856 l 431 856 b 303 721 349 856 303 826 l 303 694 l 474 694 l 474 531 l 303 531 l 303 0 l 139 0 l 139 531 l 22 531 l 22 694 "},"°":{"ha":531,"x_min":0,"x_max":0,"o":"m 265 1125 b 486 904 388 1125 486 1026 b 265 683 486 782 388 683 b 44 904 143 683 44 782 b 265 1125 44 1026 143 1125 m 165 904 b 265 804 165 849 210 804 b 367 904 321 804 367 849 b 265 1004 367 960 321 1004 b 165 904 210 1004 165 960 "},"β":{"ha":853,"x_min":0,"x_max":0,"o":"m 81 -306 l 81 663 b 428 1014 81 886 208 1013 b 742 739 613 1015 742 903 b 664 549 742 668 715 600 b 808 293 756 501 810 411 b 464 -14 807 106 674 -14 b 244 19 397 -14 324 -1 l 244 -306 m 244 183 b 461 149 319 164 396 149 b 646 297 581 149 646 201 b 478 444 646 389 582 444 l 328 444 l 328 597 l 428 597 b 576 721 531 601 576 661 b 422 853 576 799 511 853 b 244 664 317 853 244 778 l 244 183 "},";":{"ha":350,"x_min":0,"x_max":0,"o":"m 93 171 l 247 171 l 178 -206 l 65 -206 m 72 572 b 175 675 72 629 118 675 b 278 572 232 675 278 629 b 175 469 278 515 232 469 b 72 572 118 469 72 515 "},"Π":{"ha":990,"x_min":0,"x_max":0,"o":"m 103 1000 l 888 1000 l 888 0 l 725 0 l 724 836 l 267 836 l 267 0 l 103 0 "},"―":{"ha":1163,"x_min":0,"x_max":0,"o":"m 0 443 l 1163 443 l 1163 279 l 0 279 "},"ỳ":{"ha":768,"x_min":0,"x_max":0,"o":"m 11 694 l 189 694 l 389 206 l 579 694 l 757 694 l 431 -125 b 154 -319 378 -257 283 -319 b 90 -318 133 -319 111 -319 l 90 -160 b 129 -161 103 -160 115 -161 b 271 -64 194 -161 239 -136 l 299 0 m 386 1001 l 493 792 l 349 792 l 232 1001 "},"Ỳ":{"ha":878,"x_min":0,"x_max":0,"o":"m 6 1000 l 189 1000 l 439 518 l 689 1000 l 872 1000 l 521 333 l 521 0 l 357 0 l 357 333 m 289 1307 l 443 1307 l 549 1097 l 406 1097 "},"Ŋ":{"ha":992,"x_min":0,"x_max":0,"o":"m 103 1000 l 254 1000 l 726 311 l 726 1000 l 890 1000 l 890 -51 b 624 -319 890 -224 776 -319 b 600 -319 615 -319 608 -319 l 600 -158 b 621 -160 607 -160 614 -160 b 726 -49 679 -160 726 -125 l 726 18 l 267 689 l 267 0 l 103 0 "},"ŋ":{"ha":806,"x_min":0,"x_max":0,"o":"m 81 0 l 81 694 l 244 694 l 244 619 b 453 708 296 674 371 708 b 725 418 614 708 725 594 l 725 -51 b 485 -319 725 -231 651 -319 l 464 -319 l 464 -161 l 476 -161 b 561 -49 542 -161 561 -135 l 561 383 b 413 554 561 499 500 554 b 244 375 318 554 244 485 l 244 0 "},"̂":{"ha":608,"x_min":0,"x_max":0,"o":"m 218 1001 l 390 1001 l 558 792 l 404 792 l 304 901 l 204 792 l 50 792 "},"̄":{"ha":508,"x_min":0,"x_max":0,"o":"m 72 957 l 436 957 l 436 844 l 72 844 "},"̆":{"ha":586,"x_min":0,"x_max":0,"o":"m 293 785 b 57 1000 147 785 60 861 l 178 1000 b 293 900 182 936 221 900 b 408 1000 367 900 404 936 l 531 1000 b 293 785 526 861 439 785 "},"̇":{"ha":308,"x_min":0,"x_max":0,"o":"m 57 917 b 154 1014 57 969 100 1014 b 251 917 208 1014 251 969 b 154 818 251 863 208 818 b 57 917 100 818 57 863 "},"̈":{"ha":575,"x_min":0,"x_max":0,"o":"m 57 921 b 147 1011 57 971 97 1011 b 238 921 196 1011 238 971 b 147 831 238 871 196 831 b 57 921 97 831 57 871 m 428 831 b 338 921 378 831 338 871 b 428 1011 338 971 378 1011 b 518 921 478 1011 518 971 b 428 831 518 871 478 831 "},"̊":{"ha":478,"x_min":0,"x_max":0,"o":"m 239 779 b 57 963 139 779 57 861 b 239 1146 57 1064 139 1146 b 422 963 340 1146 422 1064 b 239 779 422 861 340 779 m 169 963 b 239 893 169 924 201 893 b 310 963 278 893 310 924 b 239 1032 310 1001 278 1032 b 169 963 201 1032 169 1001 "},"̧":{"ha":432,"x_min":0,"x_max":0,"o":"m 203 -292 b 50 -265 156 -292 99 -281 l 86 -175 b 199 -197 113 -186 160 -197 b 261 -162 229 -197 261 -186 b 146 -111 261 -136 218 -122 l 165 0 l 282 0 l 276 -50 b 382 -162 343 -71 382 -107 b 203 -292 382 -247 306 -292 "},"̨":{"ha":313,"x_min":0,"x_max":0,"o":"m 50 -165 b 138 0 50 -114 88 -57 l 263 0 b 174 -151 210 -67 174 -117 b 211 -185 174 -176 190 -185 b 250 -178 224 -185 238 -182 l 260 -267 b 186 -278 238 -274 211 -278 b 50 -165 117 -278 50 -247 "},"̕":{"ha":361,"x_min":0,"x_max":0,"o":"m 156 1001 l 311 1001 l 193 792 l 50 792 "},"ǿ":{"ha":811,"x_min":0,"x_max":0,"o":"m 203 49 b 44 347 107 114 44 224 b 406 708 44 547 207 708 b 507 693 442 708 475 703 l 547 778 l 674 778 l 610 644 b 767 347 704 579 767 471 b 406 -14 767 147 606 -14 b 304 0 369 -14 336 -8 l 265 -83 l 139 -83 l 203 49 m 208 347 b 276 204 208 290 235 239 l 433 538 b 407 540 425 539 415 540 b 208 347 300 540 208 457 m 378 156 b 407 154 388 154 397 154 b 603 347 514 154 603 239 b 536 489 603 404 576 456 m 331 792 l 436 1001 l 579 1001 l 463 792 "},"Ǽ":{"ha":1354,"x_min":0,"x_max":0,"o":"m 481 1000 l 1304 1000 l 1304 836 l 821 836 l 821 601 l 1249 601 l 1249 438 l 821 438 l 821 164 l 1304 164 l 1304 0 l 657 0 l 657 207 l 290 207 l 190 0 l 14 0 m 657 371 l 657 836 l 586 836 l 364 371 m 675 1097 l 781 1307 l 935 1307 l 818 1097 "},"Ǿ":{"ha":1128,"x_min":0,"x_max":0,"o":"m 50 500 b 564 1014 50 783 281 1014 b 728 986 621 1014 676 1004 l 774 1083 l 921 1083 l 847 928 b 1078 500 986 836 1078 679 b 564 -14 1078 217 847 -14 b 413 10 511 -14 460 -6 l 368 -83 l 221 -83 l 290 65 b 50 500 146 156 50 317 m 564 850 b 214 500 371 850 214 693 b 363 217 214 382 272 279 l 656 836 b 564 850 626 844 596 850 m 485 163 b 564 150 510 154 536 150 b 914 500 757 150 914 307 b 775 776 914 614 860 714 l 485 163 m 489 1097 l 596 1307 l 744 1307 l 626 1097 "},"ǻ":{"ha":847,"x_min":0,"x_max":0,"o":"m 44 347 b 389 708 44 546 190 708 b 603 608 476 708 557 663 l 603 694 l 767 694 l 767 0 l 603 0 l 603 89 b 389 -14 557 32 476 -14 b 44 347 190 -14 44 149 m 406 544 b 208 347 297 544 208 456 b 406 150 208 239 297 150 b 603 347 514 150 603 239 b 406 544 603 456 514 544 m 396 779 b 213 963 294 779 213 861 b 396 1146 213 1063 296 1147 b 579 963 494 1144 581 1063 b 396 779 578 861 497 779 m 411 1332 l 554 1332 l 468 1179 l 333 1179 m 396 1032 b 326 963 357 1032 325 1001 b 396 893 326 924 357 893 b 465 963 435 893 465 924 b 396 1032 465 1001 435 1032 "},"Ǻ":{"ha":968,"x_min":0,"x_max":0,"o":"m 14 0 l 394 1000 l 574 1000 l 954 0 l 778 0 l 699 207 l 269 207 l 190 0 m 485 1063 b 301 1246 383 1063 301 1144 b 485 1429 301 1346 385 1429 b 668 1246 583 1429 668 1346 b 485 1063 668 1144 586 1063 m 328 371 l 640 371 l 485 781 m 422 1463 l 500 1615 l 643 1615 l 558 1463 m 485 1315 b 415 1246 446 1315 415 1285 b 485 1176 415 1207 446 1176 b 554 1246 524 1176 554 1207 b 485 1315 554 1285 524 1315 "},"̋":{"ha":607,"x_min":0,"x_max":0,"o":"m 151 1001 l 306 1001 l 194 792 l 50 792 m 296 792 l 403 1001 l 557 1001 l 439 792 "},"̌":{"ha":608,"x_min":0,"x_max":0,"o":"m 204 1001 l 304 892 l 404 1001 l 558 1001 l 390 792 l 218 792 l 50 1001 "},"·":{"ha":306,"x_min":0,"x_max":0,"o":"m 50 500 b 153 603 50 557 96 603 b 256 500 210 603 256 557 b 153 397 256 443 210 397 b 50 500 96 397 50 443 "},"΄":{"ha":361,"x_min":0,"x_max":0,"o":"m 136 1000 l 292 1000 l 210 792 l 67 792 "},"΅":{"ha":574,"x_min":0,"x_max":0,"o":"m 211 1019 l 281 1228 l 435 1228 l 354 1019 m 428 831 b 338 921 378 831 338 871 b 428 1011 338 971 378 1011 b 518 921 478 1011 518 971 b 428 831 518 871 478 831 m 57 921 b 147 1011 57 971 97 1011 b 236 921 196 1011 236 971 b 147 831 236 871 196 831 b 57 921 97 831 57 871 "},"Ά":{"ha":968,"x_min":0,"x_max":0,"o":"m 394 1000 l 574 1000 l 954 0 l 778 0 l 699 207 l 269 207 l 190 0 l 14 0 m 328 371 l 640 371 l 485 781 m 65 792 l 135 1000 l 289 1000 l 208 792 "},"Έ":{"ha":1029,"x_min":0,"x_max":0,"o":"m 979 1000 l 979 836 l 496 836 l 496 601 l 924 601 l 924 438 l 496 438 l 496 164 l 979 164 l 979 0 l 332 0 l 332 1000 m 40 792 l 110 1000 l 264 1000 l 183 792 "},"Ώ":{"ha":1261,"x_min":0,"x_max":0,"o":"m 317 164 b 183 500 235 251 183 369 b 697 1014 183 783 413 1014 b 1211 500 981 1014 1211 783 b 1076 164 1211 369 1160 251 l 1214 164 l 1214 0 l 817 0 l 817 172 b 1047 500 951 221 1047 349 b 697 850 1047 693 890 850 b 347 500 503 850 347 693 b 578 171 347 349 443 219 l 578 0 l 181 0 l 181 164 m 40 792 l 110 1000 l 264 1000 l 183 792 "},"Ό":{"ha":1269,"x_min":0,"x_max":0,"o":"m 706 -14 b 192 500 421 -14 192 217 b 706 1014 192 783 421 1014 b 1219 500 989 1014 1219 783 b 706 -14 1219 217 989 -14 m 356 500 b 706 150 356 307 513 150 b 1056 500 899 150 1056 307 b 706 850 1056 693 899 850 b 356 500 513 850 356 693 m 40 792 l 110 1000 l 264 1000 l 183 792 "},"Ύ":{"ha":1110,"x_min":0,"x_max":0,"o":"m 238 1000 l 422 1000 l 671 518 l 921 1000 l 1104 1000 l 753 333 l 753 0 l 589 0 l 589 333 m 6 792 l 75 1000 l 229 1000 l 149 792 "},"Ί":{"ha":599,"x_min":0,"x_max":0,"o":"m 496 1000 l 496 0 l 332 0 l 332 1000 m 40 792 l 110 1000 l 264 1000 l 183 792 "},"Ή":{"ha":1210,"x_min":0,"x_max":0,"o":"m 319 1000 l 483 1000 l 483 601 l 943 601 l 943 1000 l 1107 1000 l 1107 0 l 943 0 l 943 438 l 483 438 l 483 0 l 319 0 m 40 792 l 110 1000 l 264 1000 l 183 792 "},"ΐ":{"ha":471,"x_min":0,"x_max":0,"o":"m 244 694 l 244 282 b 328 144 244 172 261 144 b 421 156 360 144 386 149 l 421 0 b 307 -14 389 -8 343 -14 b 81 233 147 -14 81 58 l 81 694 m 89 1019 b 158 1228 101 1056 147 1192 l 314 1228 b 232 1019 299 1192 247 1056 l 89 1019 m 215 921 b 306 1011 215 971 256 1011 b 396 921 356 1011 396 971 b 306 831 396 871 356 831 b 215 921 256 831 215 871 m 25 831 b -65 921 -25 831 -65 871 b 25 1011 -65 971 -25 1011 b 115 921 75 1011 115 971 b 25 831 115 871 75 831 "},"ί":{"ha":471,"x_min":0,"x_max":0,"o":"m 244 694 l 244 282 b 328 144 244 172 261 144 b 421 156 360 144 386 149 l 421 0 b 307 -14 389 -8 343 -14 b 81 233 147 -14 81 58 l 81 694 m 181 1001 l 335 1001 l 217 792 l 74 792 "},"ή":{"ha":806,"x_min":0,"x_max":0,"o":"m 81 0 l 81 694 l 244 694 l 244 619 b 453 708 296 674 371 708 b 725 418 614 708 725 594 l 725 -306 l 561 -306 l 561 383 b 413 554 561 499 500 554 b 244 375 318 554 244 485 l 244 0 m 344 792 l 451 1001 l 606 1001 l 488 792 "},"Ϊ":{"ha":369,"x_min":0,"x_max":0,"o":"m 103 1000 l 267 1000 l 267 0 l 103 0 m 235 1196 b 325 1286 235 1244 275 1286 b 415 1196 375 1286 415 1244 b 325 1106 415 1146 375 1106 b 235 1196 275 1106 235 1146 m -46 1196 b 44 1286 -46 1244 -6 1286 b 135 1196 94 1286 135 1244 b 44 1106 135 1146 94 1106 b -46 1196 -6 1106 -46 1146 "},"Ϋ":{"ha":878,"x_min":0,"x_max":0,"o":"m 6 1000 l 189 1000 l 439 518 l 689 1000 l 872 1000 l 521 333 l 521 0 l 357 0 l 357 333 m 208 1196 b 299 1286 208 1244 249 1286 b 389 1196 349 1286 389 1244 b 299 1106 389 1146 349 1106 b 208 1196 249 1106 208 1146 m 489 1196 b 579 1286 489 1244 531 1286 b 669 1196 629 1286 669 1244 b 579 1106 669 1146 629 1106 b 489 1196 531 1106 489 1146 "},"Ι":{"ha":369,"x_min":0,"x_max":0,"o":"m 267 0 l 103 0 l 103 1000 l 267 1000 "},"Κ":{"ha":861,"x_min":0,"x_max":0,"o":"m 103 0 l 103 1000 l 267 1000 l 267 610 l 633 1000 l 840 1000 l 400 525 l 856 0 l 650 0 l 267 438 l 267 0 "},"Η":{"ha":992,"x_min":0,"x_max":0,"o":"m 103 0 l 103 1000 l 267 1000 l 267 601 l 726 601 l 726 1000 l 890 1000 l 890 0 l 726 0 l 726 438 l 267 438 l 267 0 "},"Ζ":{"ha":856,"x_min":0,"x_max":0,"o":"m 772 1000 l 772 865 l 289 164 l 801 164 l 801 0 l 68 0 l 68 135 l 551 836 l 94 836 l 94 1000 "},"Ε":{"ha":800,"x_min":0,"x_max":0,"o":"m 103 0 l 103 1000 l 750 1000 l 750 836 l 267 836 l 267 601 l 694 601 l 694 438 l 267 438 l 267 164 l 750 164 l 750 0 "},"Β":{"ha":889,"x_min":0,"x_max":0,"o":"m 532 1000 b 814 732 688 1000 814 888 b 710 526 814 647 775 574 b 846 286 794 475 846 389 b 546 0 846 121 711 0 l 103 0 l 103 1000 m 267 436 l 267 164 l 546 164 b 682 300 621 164 682 225 b 546 436 682 375 621 436 m 267 836 l 267 600 l 535 600 b 650 718 599 600 650 654 b 532 836 650 783 597 836 "},"Α":{"ha":968,"x_min":0,"x_max":0,"o":"m 14 0 l 394 1000 l 574 1000 l 954 0 l 778 0 l 699 207 l 269 207 l 190 0 m 640 371 l 485 781 l 328 371 "},"Ν":{"ha":992,"x_min":0,"x_max":0,"o":"m 103 1000 l 254 1000 l 726 311 l 726 1000 l 890 1000 l 890 0 l 738 0 l 267 689 l 267 0 l 103 0 "},"Μ":{"ha":1131,"x_min":0,"x_max":0,"o":"m 103 1000 l 242 1000 l 565 417 l 889 1000 l 1028 1000 l 1028 0 l 864 0 l 864 607 l 626 182 l 504 182 l 267 607 l 267 0 l 103 0 "},"Χ":{"ha":882,"x_min":0,"x_max":0,"o":"m 15 0 l 344 514 l 32 1000 l 228 1000 l 442 667 l 656 1000 l 850 1000 l 539 514 l 867 0 l 672 0 l 442 360 l 210 0 "},"Υ":{"ha":878,"x_min":0,"x_max":0,"o":"m 6 1000 l 189 1000 l 439 518 l 689 1000 l 872 1000 l 521 333 l 521 0 l 357 0 l 357 333 "},"Τ":{"ha":844,"x_min":0,"x_max":0,"o":"m 26 836 l 26 1000 l 817 1000 l 817 836 l 504 836 l 504 0 l 340 0 l 340 836 "},"Ρ":{"ha":879,"x_min":0,"x_max":0,"o":"m 103 1000 l 519 1000 b 840 657 704 1000 840 854 b 519 314 840 460 704 314 l 267 314 l 267 0 l 103 0 m 267 836 l 267 478 l 497 478 b 678 657 607 478 678 549 b 499 836 678 767 608 836 "},"Ο":{"ha":1128,"x_min":0,"x_max":0,"o":"m 564 -14 b 50 500 281 -14 50 217 b 564 1014 50 783 281 1014 b 1078 500 847 1014 1078 783 b 564 -14 1078 217 847 -14 m 214 500 b 564 150 214 307 371 150 b 914 500 757 150 914 307 b 564 850 914 693 757 850 b 214 500 371 850 214 693 "},"ι":{"ha":471,"x_min":0,"x_max":0,"o":"m 244 694 l 244 282 b 328 144 244 172 261 144 b 421 156 360 144 386 149 l 421 0 b 307 -14 389 -8 343 -14 b 81 233 147 -14 81 58 l 81 694 "},"κ":{"ha":718,"x_min":0,"x_max":0,"o":"m 81 0 l 81 694 l 244 694 l 244 410 l 483 694 l 690 694 l 408 360 l 707 0 l 501 0 l 244 310 l 244 0 "},"Λ":{"ha":956,"x_min":0,"x_max":0,"o":"m 397 1000 l 558 1000 l 942 0 l 768 0 l 478 749 l 189 0 l 14 0 "},"Ξ":{"ha":833,"x_min":0,"x_max":0,"o":"m 783 164 l 783 0 l 50 0 l 50 164 m 783 1000 l 783 836 l 50 836 l 50 1000 m 107 438 l 107 601 l 726 601 l 726 438 "},"Γ":{"ha":776,"x_min":0,"x_max":0,"o":"m 750 1000 l 750 836 l 267 836 l 267 0 l 103 0 l 103 1000 "},"ϊ":{"ha":471,"x_min":0,"x_max":0,"o":"m 81 694 l 244 694 l 244 282 b 328 144 244 172 261 144 b 421 156 360 144 386 149 l 421 0 b 307 -14 389 -8 343 -14 b 81 233 147 -14 81 58 m 303 831 b 213 921 253 831 213 871 b 303 1011 213 971 253 1011 b 393 921 353 1011 393 971 b 303 831 393 871 353 831 m -68 921 b 22 1011 -68 971 -28 1011 b 113 921 72 1011 113 971 b 22 831 113 871 72 831 b -68 921 -28 831 -68 871 "},"η":{"ha":806,"x_min":0,"x_max":0,"o":"m 81 0 l 81 694 l 244 694 l 244 619 b 453 708 296 674 371 708 b 725 418 614 708 725 594 l 725 -306 l 561 -306 l 561 383 b 413 554 561 499 500 554 b 244 375 318 554 244 485 l 244 0 "},"Θ":{"ha":1128,"x_min":0,"x_max":0,"o":"m 50 500 b 564 1014 50 783 281 1014 b 1078 500 847 1014 1078 783 b 564 -14 1078 217 847 -14 b 50 500 281 -14 50 217 m 564 850 b 214 500 371 850 214 693 b 564 150 214 307 371 150 b 914 500 757 150 914 307 b 564 850 914 693 757 850 m 299 564 l 829 564 l 829 436 l 299 436 "},"θ":{"ha":878,"x_min":0,"x_max":0,"o":"m 44 500 b 439 1014 44 821 193 1014 b 833 500 686 1014 833 821 b 439 -14 833 179 686 -14 b 44 500 192 -14 44 179 m 668 557 b 439 850 656 749 578 850 b 210 557 300 850 222 749 m 210 443 b 439 150 222 251 300 150 b 668 443 578 150 656 251 l 210 443 "},"Φ":{"ha":1094,"x_min":0,"x_max":0,"o":"m 465 110 b 50 500 194 133 50 294 b 465 890 50 706 194 867 l 465 1000 l 629 1000 l 629 890 b 1044 500 901 867 1044 706 b 629 110 1044 294 901 133 l 629 0 l 465 0 l 465 110 m 629 275 b 881 500 804 290 881 386 b 629 726 881 614 804 710 m 214 500 b 465 275 214 386 290 290 l 465 726 b 214 500 290 710 214 614 "},"Σ":{"ha":856,"x_min":0,"x_max":0,"o":"m 68 0 l 68 136 l 382 500 l 68 864 l 68 1000 l 801 1000 l 801 836 l 311 836 l 557 539 l 557 461 l 310 164 l 801 164 l 801 0 "},"ο":{"ha":811,"x_min":0,"x_max":0,"o":"m 406 708 b 767 347 606 708 767 547 b 406 -14 767 149 606 -14 b 44 347 207 -14 44 149 b 406 708 44 547 207 708 m 208 347 b 406 150 208 239 297 150 b 603 347 514 150 603 239 b 406 544 603 456 514 544 b 208 347 297 544 208 456 "},"ρ":{"ha":847,"x_min":0,"x_max":0,"o":"m 81 347 b 442 708 81 554 235 708 b 803 347 649 708 803 554 b 458 -14 803 149 658 -14 b 244 88 371 -14 290 32 l 244 -331 l 81 -331 m 244 347 b 442 150 244 239 333 150 b 639 347 550 150 639 239 b 442 544 639 456 550 544 b 244 347 333 544 244 456 "},"σ":{"ha":811,"x_min":0,"x_max":0,"o":"m 44 347 b 406 708 44 547 207 708 l 789 708 l 789 596 l 664 596 b 767 347 728 532 767 444 b 406 -14 767 149 604 -14 b 44 347 207 -14 44 149 m 208 347 b 406 150 208 239 297 150 b 603 347 514 151 603 239 b 406 544 603 456 514 544 b 208 347 297 544 208 456 "},"τ":{"ha":543,"x_min":0,"x_max":0,"o":"m 25 694 l 493 694 l 493 531 l 317 531 l 317 282 b 400 144 317 172 333 144 b 493 156 431 144 458 149 l 493 0 b 378 -14 461 -8 415 -14 b 153 233 219 -14 153 58 l 153 531 l 25 531 "},"І":{"ha":369,"x_min":0,"x_max":0,"o":"m 267 0 l 103 0 l 103 1000 l 267 1000 "},"Ї":{"ha":369,"x_min":0,"x_max":0,"o":"m 103 1000 l 267 1000 l 267 0 l 103 0 m 235 1196 b 325 1286 235 1244 275 1286 b 415 1196 375 1286 415 1244 b 325 1106 415 1146 375 1106 b 235 1196 275 1106 235 1146 m -46 1196 b 44 1286 -46 1244 -6 1286 b 135 1196 94 1286 135 1244 b 44 1106 135 1146 94 1106 b -46 1196 -6 1106 -46 1146 "},"Ѓ":{"ha":776,"x_min":0,"x_max":0,"o":"m 750 1000 l 750 836 l 267 836 l 267 0 l 103 0 l 103 1000 m 456 1307 l 610 1307 l 492 1097 l 349 1097 "},"Ё":{"ha":800,"x_min":0,"x_max":0,"o":"m 103 1000 l 750 1000 l 750 836 l 267 836 l 267 601 l 694 601 l 694 438 l 267 438 l 267 164 l 750 164 l 750 0 l 103 0 m 197 1196 b 288 1286 197 1244 238 1286 b 378 1196 338 1286 378 1244 b 288 1106 378 1146 338 1106 b 197 1196 238 1106 197 1146 m 478 1196 b 568 1286 478 1244 518 1286 b 658 1196 618 1286 658 1244 b 568 1106 658 1146 618 1106 b 478 1196 518 1106 478 1146 "},"Ѐ":{"ha":800,"x_min":0,"x_max":0,"o":"m 103 0 l 103 1000 l 750 1000 l 750 836 l 267 836 l 267 601 l 694 601 l 694 438 l 267 438 l 267 164 l 750 164 l 750 0 m 282 1307 l 436 1307 l 542 1097 l 399 1097 "},"М":{"ha":1131,"x_min":0,"x_max":0,"o":"m 103 1000 l 242 1000 l 565 417 l 889 1000 l 1028 1000 l 1028 0 l 864 0 l 864 607 l 626 182 l 504 182 l 267 607 l 267 0 l 103 0 "},"Н":{"ha":992,"x_min":0,"x_max":0,"o":"m 103 0 l 103 1000 l 267 1000 l 267 601 l 726 601 l 726 1000 l 890 1000 l 890 0 l 726 0 l 726 438 l 267 438 l 267 0 "},"П":{"ha":990,"x_min":0,"x_max":0,"o":"m 103 1000 l 888 1000 l 888 0 l 724 0 l 724 836 l 267 836 l 267 0 l 103 0 "},"Т":{"ha":844,"x_min":0,"x_max":0,"o":"m 26 836 l 26 1000 l 817 1000 l 817 836 l 504 836 l 504 0 l 340 0 l 340 836 "},"С":{"ha":975,"x_min":0,"x_max":0,"o":"m 50 500 b 564 1014 50 783 281 1014 b 940 850 713 1014 846 951 l 825 733 b 564 850 760 806 667 850 b 214 500 371 850 214 693 b 564 150 214 307 371 150 b 825 267 667 150 760 194 l 940 150 b 564 -14 846 50 713 -14 b 50 500 281 -14 50 217 "},"Р":{"ha":879,"x_min":0,"x_max":0,"o":"m 103 1000 l 519 1000 b 840 657 704 1000 840 854 b 519 314 840 460 704 314 l 267 314 l 267 0 l 103 0 m 267 836 l 267 478 l 497 478 b 678 657 607 478 678 549 b 499 836 678 767 608 836 "},"О":{"ha":1128,"x_min":0,"x_max":0,"o":"m 564 -14 b 50 500 281 -14 50 217 b 564 1014 50 783 281 1014 b 1078 500 847 1014 1078 783 b 564 -14 1078 217 847 -14 m 214 500 b 564 150 214 307 371 150 b 914 500 757 150 914 307 b 564 850 914 693 757 850 b 214 500 371 850 214 693 "},"К":{"ha":861,"x_min":0,"x_max":0,"o":"m 103 0 l 103 1000 l 267 1000 l 267 610 l 633 1000 l 840 1000 l 400 525 l 856 0 l 650 0 l 267 438 l 267 0 "},"А":{"ha":968,"x_min":0,"x_max":0,"o":"m 14 0 l 394 1000 l 574 1000 l 954 0 l 778 0 l 699 207 l 269 207 l 190 0 m 640 371 l 485 781 l 328 371 "},"В":{"ha":889,"x_min":0,"x_max":0,"o":"m 532 1000 b 814 732 688 1000 814 888 b 710 526 814 647 775 574 b 846 286 794 475 846 389 b 546 0 846 121 711 0 l 103 0 l 103 1000 m 267 436 l 267 164 l 546 164 b 682 300 621 164 682 225 b 546 436 682 375 621 436 m 267 836 l 267 600 l 535 600 b 650 718 599 600 650 654 b 532 836 650 783 597 836 "},"Ѕ":{"ha":865,"x_min":0,"x_max":0,"o":"m 136 267 b 443 150 224 189 321 150 b 658 282 569 150 658 207 b 406 446 658 358 576 397 b 76 735 243 492 76 556 b 435 1014 76 911 229 1014 b 797 854 571 1014 711 953 l 681 739 b 424 850 615 811 522 850 b 242 736 308 850 242 807 b 476 597 242 674 315 643 b 822 286 661 544 822 469 b 438 -15 822 103 646 -15 b 25 147 272 -15 136 44 "},"Ќ":{"ha":861,"x_min":0,"x_max":0,"o":"m 103 0 l 103 1000 l 267 1000 l 267 610 l 633 1000 l 840 1000 l 400 525 l 856 0 l 650 0 l 267 438 l 267 0 m 356 1097 l 463 1307 l 617 1307 l 499 1097 "},"Г":{"ha":776,"x_min":0,"x_max":0,"o":"m 750 1000 l 750 836 l 267 836 l 267 0 l 103 0 l 103 1000 "},"Е":{"ha":800,"x_min":0,"x_max":0,"o":"m 103 0 l 103 1000 l 750 1000 l 750 836 l 267 836 l 267 601 l 694 601 l 694 438 l 267 438 l 267 164 l 750 164 l 750 0 "},"И":{"ha":992,"x_min":0,"x_max":0,"o":"m 267 1000 l 267 311 l 738 1000 l 890 1000 l 890 0 l 726 0 l 726 689 l 254 0 l 103 0 l 103 1000 "},"Й":{"ha":992,"x_min":0,"x_max":0,"o":"m 267 1000 l 267 311 l 738 1000 l 890 1000 l 890 0 l 726 0 l 726 689 l 254 0 l 103 0 l 103 1000 m 381 1306 b 496 1206 385 1242 424 1206 b 611 1306 569 1206 607 1242 l 733 1306 b 496 1090 729 1167 642 1090 b 260 1306 350 1090 263 1167 "},"Ѝ":{"ha":992,"x_min":0,"x_max":0,"o":"m 103 1000 l 267 1000 l 267 311 l 738 1000 l 890 1000 l 890 0 l 726 0 l 726 689 l 254 0 l 103 0 m 336 1307 l 490 1307 l 597 1097 l 454 1097 "},"Х":{"ha":882,"x_min":0,"x_max":0,"o":"m 15 0 l 344 514 l 32 1000 l 228 1000 l 442 667 l 656 1000 l 850 1000 l 539 514 l 867 0 l 672 0 l 442 360 l 210 0 "},"Ф":{"ha":1100,"x_min":0,"x_max":0,"o":"m 468 110 b 36 500 197 133 36 275 b 468 890 36 725 197 867 l 468 1000 l 632 1000 l 632 890 b 1064 500 904 867 1064 725 b 632 110 1064 275 904 133 l 632 0 l 468 0 l 468 110 m 200 500 b 468 275 200 367 293 290 l 468 726 b 200 500 293 710 200 632 m 632 275 b 900 500 807 290 900 368 b 632 726 900 632 807 710 "},"Ж":{"ha":1353,"x_min":0,"x_max":0,"o":"m 6 0 l 461 525 l 21 1000 l 228 1000 l 594 610 l 594 1000 l 758 1000 l 758 610 l 1124 1000 l 1331 1000 l 890 525 l 1346 0 l 1140 0 l 758 438 l 758 0 l 594 0 l 594 438 l 211 0 "},"у":{"ha":768,"x_min":0,"x_max":0,"o":"m 11 694 l 189 694 l 389 206 l 579 694 l 757 694 l 431 -125 b 154 -319 378 -257 283 -319 b 90 -318 133 -319 111 -319 l 90 -160 b 129 -161 103 -160 115 -161 b 271 -64 194 -161 239 -136 l 299 0 "},"λ":{"ha":800,"x_min":0,"x_max":0,"o":"m 11 0 l 299 694 l 271 758 b 129 856 240 829 194 856 b 90 854 115 856 103 854 l 90 1013 b 154 1014 111 1014 133 1014 b 431 819 283 1014 378 951 l 663 239 b 750 144 690 168 708 144 b 764 144 754 144 758 144 l 764 -14 b 535 128 636 -14 583 1 l 389 489 l 189 0 "},"Ψ":{"ha":1079,"x_min":0,"x_max":0,"o":"m 458 254 b 81 636 224 278 81 424 l 81 1000 l 244 1000 l 244 636 b 458 421 244 506 324 432 l 458 1000 l 622 1000 l 622 421 b 835 636 756 432 835 504 l 835 1000 l 999 1000 l 999 636 b 622 254 999 424 856 278 l 622 0 l 458 0 l 458 254 "},"Ј":{"ha":878,"x_min":0,"x_max":0,"o":"m 404 -14 b 24 207 246 -14 108 65 l 160 299 b 399 150 211 206 301 150 b 613 364 529 150 613 235 l 613 836 l 206 836 l 206 1000 l 776 1000 l 776 364 b 404 -14 776 144 621 -14 "},"Б":{"ha":886,"x_min":0,"x_max":0,"o":"m 103 1000 l 750 1000 l 750 836 l 267 836 l 267 600 l 546 600 b 843 300 733 600 843 461 b 546 0 843 140 733 0 l 103 0 m 546 164 b 681 300 633 164 681 229 b 546 436 681 371 633 436 l 267 436 l 267 164 "},"Њ":{"ha":1468,"x_min":0,"x_max":0,"o":"m 267 1000 l 267 601 l 726 601 l 726 1000 l 890 1000 l 890 600 l 1132 600 b 1429 300 1319 600 1429 461 b 1132 0 1429 140 1319 0 l 726 0 l 726 438 l 267 438 l 267 0 l 103 0 l 103 1000 m 1132 164 b 1267 300 1219 164 1267 229 b 1132 436 1267 371 1219 436 l 890 436 l 890 164 "},"Л":{"ha":1010,"x_min":0,"x_max":0,"o":"m 64 -14 b 31 -12 53 -14 42 -14 l 31 146 b 42 144 35 144 38 144 b 207 413 171 146 194 297 b 257 1000 231 621 240 764 l 908 1000 l 908 0 l 744 0 l 744 836 l 410 836 b 368 369 396 654 389 535 b 64 -14 344 181 279 -14 "},"ό":{"ha":811,"x_min":0,"x_max":0,"o":"m 44 347 b 406 708 44 547 207 708 b 767 347 606 708 767 547 b 406 -14 767 149 606 -14 b 44 347 207 -14 44 149 m 208 347 b 406 150 208 239 297 150 b 603 347 514 150 603 239 b 406 544 603 456 514 544 b 208 347 297 544 208 456 m 436 1001 l 590 1001 l 474 792 l 331 792 "},"ћ":{"ha":806,"x_min":0,"x_max":0,"o":"m 81 907 l 81 1000 l 244 1000 l 244 907 l 401 907 l 401 794 l 244 794 l 244 619 b 453 708 296 674 369 708 b 725 418 614 708 725 594 l 725 0 l 561 0 l 561 383 b 413 554 561 500 500 554 b 244 375 318 554 244 485 l 244 0 l 81 0 l 81 794 l 13 794 l 13 907 "},"Д":{"ha":1126,"x_min":0,"x_max":0,"o":"m 44 164 l 150 164 b 242 413 218 204 232 329 b 290 1000 267 621 275 764 l 942 1000 l 942 164 l 1082 164 l 1082 -153 l 918 -153 l 918 0 l 208 0 l 208 -153 l 44 -153 m 401 369 b 356 164 393 304 385 225 l 778 164 l 778 836 l 444 836 b 401 369 429 654 422 535 "},"Ш":{"ha":1425,"x_min":0,"x_max":0,"o":"m 103 0 l 103 1000 l 267 1000 l 267 164 l 631 164 l 631 1000 l 794 1000 l 794 164 l 1158 164 l 1158 1000 l 1322 1000 l 1322 0 "},"Щ":{"ha":1507,"x_min":0,"x_max":0,"o":"m 103 0 l 103 1000 l 267 1000 l 267 164 l 631 164 l 631 1000 l 794 1000 l 794 164 l 1158 164 l 1158 1000 l 1322 1000 l 1322 164 l 1463 164 l 1463 -153 l 1299 -153 l 1299 0 "},"Ц":{"ha":1051,"x_min":0,"x_max":0,"o":"m 103 1000 l 267 1000 l 267 164 l 703 164 l 703 1000 l 867 1000 l 867 164 l 1007 164 l 1007 -153 l 843 -153 l 843 0 l 103 0 "},"ј":{"ha":325,"x_min":0,"x_max":0,"o":"m -4 -161 b 81 -49 61 -161 81 -135 l 81 694 l 244 694 l 244 -51 b 4 -319 244 -231 171 -319 l -17 -319 l -17 -161 m 65 917 b 163 1014 65 971 108 1014 b 260 917 217 1014 260 971 b 163 818 260 863 217 818 b 65 917 108 818 65 863 "},"ѕ":{"ha":656,"x_min":0,"x_max":0,"o":"m 128 217 b 338 135 182 169 260 135 b 461 201 407 135 461 164 b 322 292 461 260 374 278 b 54 506 208 324 54 357 b 326 708 54 624 169 708 b 603 607 435 708 535 668 l 513 496 b 326 560 463 539 393 560 b 219 504 254 560 219 535 b 364 433 219 467 289 451 b 625 203 501 401 625 353 b 333 -14 625 78 501 -14 b 31 104 218 -14 114 28 "},"і":{"ha":325,"x_min":0,"x_max":0,"o":"m 81 0 l 81 694 l 244 694 l 244 0 m 65 917 b 163 1014 65 969 108 1014 b 260 917 217 1014 260 969 b 163 818 260 863 217 818 b 65 917 108 818 65 863 "},"ї":{"ha":325,"x_min":0,"x_max":0,"o":"m 81 0 l 81 694 l 244 694 l 244 0 m 213 921 b 303 1011 213 971 253 1011 b 393 921 353 1011 393 971 b 303 831 393 871 353 831 b 213 921 253 831 213 871 m -68 921 b 22 1011 -68 971 -28 1011 b 113 921 72 1011 113 971 b 22 831 113 871 72 831 b -68 921 -28 831 -68 871 "},"Љ":{"ha":1464,"x_min":0,"x_max":0,"o":"m 31 146 b 42 144 35 144 38 144 b 207 413 171 146 194 297 b 257 1000 231 621 240 764 l 908 1000 l 908 600 l 1128 600 b 1425 300 1315 600 1425 461 b 1128 0 1425 140 1315 0 l 744 0 l 744 836 l 410 836 b 368 369 396 654 389 535 b 64 -14 344 181 279 -14 b 31 -12 53 -14 42 -14 m 908 436 l 908 164 l 1128 164 b 1263 300 1215 164 1263 229 b 1128 436 1263 371 1215 436 "},"х":{"ha":774,"x_min":0,"x_max":0,"o":"m 11 0 l 285 360 l 31 694 l 235 694 l 388 497 l 539 694 l 743 694 l 489 360 l 763 0 l 557 0 l 388 222 l 217 0 "},"а":{"ha":847,"x_min":0,"x_max":0,"o":"m 44 347 b 389 708 44 546 190 708 b 603 608 476 708 557 663 l 603 694 l 767 694 l 767 0 l 603 0 l 603 89 b 389 -14 557 32 476 -14 b 44 347 190 -14 44 149 m 406 544 b 208 347 297 544 208 456 b 406 150 208 239 297 150 b 603 347 514 150 603 239 b 406 544 603 456 514 544 "},"о":{"ha":811,"x_min":0,"x_max":0,"o":"m 406 708 b 767 347 606 708 767 547 b 406 -14 767 149 606 -14 b 44 347 207 -14 44 149 b 406 708 44 547 207 708 m 208 347 b 406 150 208 239 297 150 b 603 347 514 150 603 239 b 406 544 603 456 514 544 b 208 347 297 544 208 456 "},"р":{"ha":847,"x_min":0,"x_max":0,"o":"m 81 694 l 244 694 l 244 606 b 458 708 290 663 371 708 b 803 347 658 708 803 547 b 458 -14 803 149 658 -14 b 244 88 371 -14 290 32 l 244 -331 l 81 -331 m 442 544 b 244 347 333 544 244 456 b 442 150 244 239 333 150 b 639 347 550 150 639 239 b 442 544 639 456 550 544 "},"с":{"ha":697,"x_min":0,"x_max":0,"o":"m 406 -14 b 44 347 207 -14 44 149 b 406 708 44 547 207 708 b 667 596 508 708 601 665 l 551 481 b 406 544 515 519 463 544 b 208 347 297 544 208 456 b 406 150 208 239 297 150 b 551 215 463 150 515 175 l 667 99 b 406 -14 601 29 508 -14 "},"ў":{"ha":768,"x_min":0,"x_max":0,"o":"m 189 694 l 389 206 l 579 694 l 757 694 l 431 -125 b 154 -319 378 -257 283 -319 b 90 -318 133 -319 111 -319 l 90 -160 b 129 -161 103 -160 115 -161 b 271 -64 194 -161 239 -136 l 299 0 l 11 694 m 385 785 b 147 1000 239 785 150 861 l 268 1000 b 385 900 272 936 311 900 b 500 1000 457 900 496 936 l 621 1000 b 385 785 618 861 529 785 "},"ђ":{"ha":806,"x_min":0,"x_max":0,"o":"m 81 907 l 81 1000 l 244 1000 l 244 907 l 401 907 l 401 794 l 244 794 l 244 619 b 453 708 296 674 369 708 b 725 418 614 708 725 594 l 725 -51 b 485 -319 725 -231 651 -319 l 464 -319 l 464 -161 l 476 -161 b 561 -49 542 -161 561 -135 l 561 383 b 413 554 561 500 500 554 b 244 375 318 554 244 485 l 244 0 l 81 0 l 81 794 l 13 794 l 13 907 "},"ц":{"ha":856,"x_min":0,"x_max":0,"o":"m 81 694 l 244 694 l 244 164 l 560 164 l 560 694 l 724 694 l 724 164 l 813 164 l 813 -153 l 649 -153 l 649 0 l 81 0 "},"ш":{"ha":1179,"x_min":0,"x_max":0,"o":"m 81 0 l 81 694 l 244 694 l 244 164 l 507 164 l 507 694 l 671 694 l 671 164 l 935 164 l 935 694 l 1099 694 l 1099 0 "},"щ":{"ha":1231,"x_min":0,"x_max":0,"o":"m 81 0 l 81 694 l 244 694 l 244 164 l 507 164 l 507 694 l 671 694 l 671 164 l 935 164 l 935 694 l 1099 694 l 1099 164 l 1186 164 l 1186 -153 l 1022 -153 l 1022 0 "},"Ъ":{"ha":989,"x_min":0,"x_max":0,"o":"m 22 836 l 22 1000 l 411 1000 l 411 600 l 654 600 b 951 300 842 600 951 461 b 654 0 950 140 842 0 l 247 0 l 247 836 m 654 164 b 789 300 742 164 789 229 b 654 436 789 371 742 436 l 411 436 l 411 164 "},"Ы":{"ha":1175,"x_min":0,"x_max":0,"o":"m 103 0 l 103 1000 l 267 1000 l 267 600 l 510 600 b 806 300 697 600 806 461 b 510 0 806 140 696 0 m 908 1000 l 1072 1000 l 1072 0 l 908 0 m 267 436 l 267 164 l 510 164 b 644 300 597 164 644 229 b 510 436 644 371 597 436 "},"Ь":{"ha":844,"x_min":0,"x_max":0,"o":"m 103 1000 l 267 1000 l 267 600 l 510 600 b 806 300 697 600 806 461 b 510 0 806 140 696 0 l 103 0 m 510 164 b 644 300 597 164 644 229 b 510 436 644 371 597 436 l 267 436 l 267 164 "},"Џ":{"ha":988,"x_min":0,"x_max":0,"o":"m 103 1000 l 267 1000 l 267 164 l 721 164 l 721 1000 l 885 1000 l 885 0 l 576 0 l 576 -153 l 413 -153 l 413 0 l 103 0 "},"Ч":{"ha":936,"x_min":0,"x_max":0,"o":"m 411 289 b 81 611 222 289 81 422 l 81 1000 l 244 1000 l 244 611 b 411 454 244 515 314 454 b 671 560 500 454 582 488 l 671 1000 l 835 1000 l 835 0 l 671 0 l 671 371 b 411 289 596 318 503 289 "},"Ћ":{"ha":1135,"x_min":0,"x_max":0,"o":"m 26 1000 l 817 1000 l 817 836 l 504 836 l 504 636 b 747 692 571 669 668 692 b 1054 401 933 692 1054 574 l 1054 0 l 890 0 l 890 378 b 729 528 890 465 833 528 b 504 449 657 528 561 497 l 504 0 l 340 0 l 340 836 l 26 836 "},"Ђ":{"ha":1144,"x_min":0,"x_max":0,"o":"m 26 1000 l 817 1000 l 817 836 l 504 836 l 504 635 b 744 692 571 669 668 692 b 1064 401 925 692 1064 567 l 1064 294 b 757 0 1064 113 940 0 l 736 0 l 736 164 l 749 164 b 900 317 846 164 900 219 l 900 374 b 732 526 900 464 839 526 b 504 449 657 526 565 496 l 504 0 l 340 0 l 340 836 l 26 836 "},"Є":{"ha":975,"x_min":0,"x_max":0,"o":"m 50 500 b 564 1014 50 783 281 1014 b 940 850 713 1014 846 951 l 825 733 b 564 850 760 806 667 850 b 228 582 400 850 263 735 l 703 582 l 703 418 l 228 418 b 564 150 263 265 400 150 b 825 267 667 150 760 194 l 940 150 b 564 -14 846 50 713 -14 b 50 500 281 -14 50 217 "},"Э":{"ha":975,"x_min":0,"x_max":0,"o":"m 35 850 b 411 1014 129 951 263 1014 b 925 500 694 1014 925 783 b 411 -14 925 217 694 -14 b 35 150 263 -14 129 50 l 151 267 b 411 150 215 194 308 150 b 747 418 575 150 714 265 l 272 418 l 272 582 l 747 582 b 411 850 714 735 575 850 b 150 733 308 850 215 806 "},"Ю":{"ha":1553,"x_min":0,"x_max":0,"o":"m 103 1000 l 267 1000 l 267 601 l 486 601 b 989 1014 533 836 740 1014 b 1503 500 1274 1014 1503 783 b 989 -14 1503 217 1274 -14 b 481 438 728 -14 511 183 l 267 438 l 267 0 l 103 0 m 989 850 b 639 500 796 850 639 693 b 989 150 639 307 796 150 b 1339 500 1183 150 1339 307 b 989 850 1339 693 1183 850 "},"Ў":{"ha":817,"x_min":0,"x_max":0,"o":"m 192 1000 l 435 513 l 632 1000 l 810 1000 l 482 181 b 206 -14 429 50 336 -14 b 142 -12 185 -14 163 -14 l 142 146 b 181 144 154 146 167 144 b 328 242 246 144 297 169 l 356 308 l 7 1000 m 299 1306 b 414 1206 303 1242 340 1206 b 529 1306 486 1206 525 1242 l 650 1306 b 414 1090 647 1167 560 1090 b 176 1306 268 1090 181 1167 "},"У":{"ha":817,"x_min":0,"x_max":0,"o":"m 7 1000 l 192 1000 l 435 513 l 632 1000 l 810 1000 l 482 181 b 206 -14 429 50 336 -14 b 142 -12 185 -14 163 -14 l 142 146 b 181 144 154 146 167 144 b 328 242 246 144 297 169 l 356 308 "},"ф":{"ha":975,"x_min":0,"x_max":0,"o":"m 406 -14 b 44 347 207 -14 44 149 b 406 708 44 546 207 708 l 406 1000 l 569 1000 l 569 708 b 931 347 768 708 931 546 b 569 -14 931 149 768 -14 l 569 -306 l 406 -306 l 406 -14 m 569 150 b 767 347 678 150 767 239 b 569 544 767 456 678 544 m 406 544 b 208 347 297 544 208 456 b 406 150 208 239 297 151 l 406 544 "},"‽":{"ha":765,"x_min":0,"x_max":0,"o":"m 49 779 b 388 1014 92 918 225 1014 b 701 731 571 1014 701 893 b 446 288 701 518 456 474 l 318 288 l 306 635 l 306 753 l 458 753 l 458 635 l 457 568 b 554 725 504 622 554 657 b 385 861 554 803 486 861 b 186 725 288 861 215 807 m 382 -14 b 279 89 325 -14 279 32 b 382 192 279 146 325 192 b 485 89 439 192 485 146 b 382 -14 485 32 439 -14 "},"ε":{"ha":694,"x_min":0,"x_max":0,"o":"m 44 196 b 181 369 44 289 111 342 l 181 374 b 74 519 131 397 74 442 b 343 708 74 629 189 708 b 613 597 450 708 542 669 l 510 492 b 342 556 463 535 408 556 b 226 490 271 556 226 531 b 318 432 226 456 261 432 l 442 432 l 442 297 l 313 297 b 201 218 244 297 201 265 b 342 136 201 167 251 136 b 558 224 426 136 497 163 l 664 118 b 342 -14 579 33 474 -14 b 44 196 165 -14 44 69 "},"έ":{"ha":694,"x_min":0,"x_max":0,"o":"m 44 196 b 181 369 44 289 111 342 l 181 374 b 74 519 131 397 74 442 b 343 708 74 629 189 708 b 613 597 450 708 542 669 l 510 492 b 342 556 463 535 408 556 b 226 490 271 556 226 531 b 318 432 226 456 261 432 l 442 432 l 442 297 l 313 297 b 201 218 244 297 201 265 b 342 136 201 167 251 136 b 558 224 426 136 497 163 l 664 118 b 342 -14 579 33 474 -14 b 44 196 165 -14 44 69 m 261 792 l 367 1001 l 521 1001 l 404 792 "},"З":{"ha":794,"x_min":0,"x_max":0,"o":"m 397 -15 b 11 172 240 -15 111 51 l 128 282 b 400 149 207 194 293 149 b 588 289 499 149 588 194 b 388 436 588 386 493 436 l 240 436 l 240 600 l 388 600 b 553 729 478 600 553 651 b 389 851 553 797 486 851 b 154 738 297 851 224 810 l 39 851 b 385 1015 128 950 243 1015 b 717 747 574 1015 717 901 b 575 529 717 651 658 579 l 575 522 b 751 283 683 481 751 401 b 397 -15 751 94 590 -15 "},"ё":{"ha":775,"x_min":0,"x_max":0,"o":"m 414 -14 b 44 347 204 -14 44 143 b 399 708 44 551 197 708 b 731 357 596 708 731 564 b 724 274 731 331 726 301 l 207 274 b 415 135 235 188 313 135 b 588 204 482 135 546 158 l 692 100 b 414 -14 625 26 528 -14 m 396 561 b 204 401 300 561 218 497 l 576 401 b 396 561 563 500 489 561 m 157 921 b 247 1011 157 971 197 1011 b 338 921 296 1011 338 971 b 247 831 338 871 296 831 b 157 921 197 831 157 871 m 528 831 b 438 921 478 831 438 871 b 528 1011 438 971 478 1011 b 618 921 578 1011 618 971 b 528 831 618 871 578 831 "},"ѐ":{"ha":775,"x_min":0,"x_max":0,"o":"m 414 -14 b 44 347 204 -14 44 143 b 399 708 44 551 197 708 b 731 357 596 708 731 564 b 724 274 731 331 726 301 l 207 274 b 415 135 235 188 313 135 b 588 204 482 135 546 158 l 692 100 b 414 -14 625 26 528 -14 m 396 561 b 204 401 300 561 218 497 l 576 401 b 396 561 563 500 489 561 m 240 1001 l 394 1001 l 501 792 l 358 792 "},"Ѳ":{"ha":1128,"x_min":0,"x_max":0,"o":"m 50 500 b 564 1014 50 783 281 1014 b 1078 500 847 1014 1078 783 b 564 -14 1078 217 847 -14 b 50 500 281 -14 50 217 m 221 436 b 564 150 250 274 393 150 b 907 436 735 150 878 274 m 564 850 b 221 564 393 850 250 726 l 907 564 b 564 850 878 726 735 850 "},"ѳ":{"ha":811,"x_min":0,"x_max":0,"o":"m 406 708 b 767 347 606 708 767 547 b 406 -14 767 149 606 -14 b 44 347 207 -14 44 149 b 406 708 44 547 207 708 m 222 285 b 406 150 246 207 319 150 b 589 285 492 150 565 207 m 589 410 b 406 544 565 488 492 544 b 222 410 319 544 246 488 "},"Ѣ":{"ha":844,"x_min":0,"x_max":0,"o":"m 21 871 l 103 871 l 103 1000 l 267 1000 l 267 871 l 424 871 l 424 758 l 267 758 l 267 600 l 510 600 b 806 300 697 600 806 461 b 510 0 806 140 696 0 l 103 0 l 103 758 l 21 758 m 510 164 b 644 300 597 164 644 229 b 510 436 644 371 597 436 l 267 436 l 267 164 "},"ѣ":{"ha":771,"x_min":0,"x_max":0,"o":"m 13 807 l 81 807 l 81 1000 l 244 1000 l 244 807 l 401 807 l 401 694 l 244 694 l 244 511 l 439 511 b 726 256 636 511 726 383 b 439 0 726 128 636 0 l 81 0 l 81 694 l 13 694 m 244 158 l 439 158 b 563 256 526 158 563 207 b 439 353 563 304 526 353 l 244 353 "},"Ґ":{"ha":764,"x_min":0,"x_max":0,"o":"m 738 1153 l 738 836 l 267 836 l 267 0 l 103 0 l 103 1000 l 574 1000 l 574 1153 "},"Ѵ":{"ha":958,"x_min":0,"x_max":0,"o":"m 182 1000 l 454 261 l 660 814 b 906 1014 713 957 768 1014 l 947 1014 l 947 856 l 918 856 b 822 781 861 856 843 838 l 536 0 l 372 0 l 7 1000 "},"ζ":{"ha":654,"x_min":0,"x_max":0,"o":"m 44 374 b 331 878 44 561 160 747 l 69 878 l 69 1042 l 632 1042 l 632 913 b 208 374 444 819 208 596 b 614 90 208 158 440 96 l 574 -153 l 407 -153 l 426 -39 b 44 374 197 10 44 156 "},"ξ":{"ha":660,"x_min":0,"x_max":0,"o":"m 44 281 b 238 551 44 399 115 497 l 238 558 b 144 718 183 599 144 647 b 233 878 144 785 181 836 l 76 878 l 76 1042 l 638 1042 l 638 913 b 313 717 514 894 313 835 b 457 606 313 640 394 606 l 547 606 l 547 458 l 408 458 b 208 292 299 458 208 385 b 621 90 208 139 461 103 l 581 -153 l 414 -153 l 433 -39 b 44 281 176 15 44 122 "},"α":{"ha":847,"x_min":0,"x_max":0,"o":"m 389 -14 b 44 347 190 -14 44 149 b 389 708 44 546 190 708 b 603 608 476 708 557 664 b 640 694 606 636 618 668 l 819 694 b 767 525 779 643 767 589 l 767 240 b 822 144 767 179 783 144 l 839 144 l 839 -14 l 818 -14 b 607 82 704 -14 649 13 l 603 89 b 389 -14 557 32 476 -14 m 406 544 b 208 347 297 544 208 456 b 406 150 208 239 297 150 b 603 347 514 150 603 239 b 406 544 603 456 514 544 "},"ά":{"ha":847,"x_min":0,"x_max":0,"o":"m 389 -14 b 44 347 190 -14 44 149 b 389 708 44 546 190 708 b 603 608 476 708 557 664 b 640 694 606 636 618 668 l 819 694 b 767 525 779 643 767 589 l 767 240 b 822 144 767 179 783 144 l 839 144 l 839 -14 l 818 -14 b 607 82 704 -14 649 13 l 603 89 b 389 -14 557 32 476 -14 m 406 544 b 208 347 297 544 208 456 b 406 150 208 239 297 150 b 603 347 514 150 603 239 b 406 544 603 456 514 544 m 333 792 l 440 1001 l 594 1001 l 476 792 "},"υ":{"ha":750,"x_min":0,"x_max":0,"o":"m 244 694 l 244 306 b 393 150 244 207 301 150 b 540 343 503 150 540 231 b 431 694 540 461 493 557 l 607 694 b 706 332 667 571 706 450 b 394 -11 706 117 590 -11 b 81 276 207 -11 81 107 l 81 694 "},"ΰ":{"ha":750,"x_min":0,"x_max":0,"o":"m 244 694 l 244 306 b 393 150 244 207 301 150 b 540 343 503 150 540 231 b 431 694 540 461 493 557 l 607 694 b 706 332 667 571 706 450 b 394 -11 706 117 590 -11 b 81 276 207 -11 81 107 l 81 694 m 397 1128 b 510 1085 433 1128 492 1108 b 528 1069 518 1079 525 1075 b 454 935 522 1031 482 950 b 438 935 449 935 443 935 b 415 915 429 926 422 919 b 307 964 378 915 318 938 b 397 1128 314 1010 364 1108 m 190 1011 b 281 921 240 1011 281 971 b 190 831 281 871 240 831 b 100 921 140 831 100 871 b 190 1011 100 971 140 1011 "},"ϋ":{"ha":750,"x_min":0,"x_max":0,"o":"m 244 694 l 244 306 b 393 150 244 207 301 150 b 540 343 503 150 540 231 b 431 694 540 461 493 557 l 607 694 b 706 332 667 571 706 450 b 394 -11 706 117 590 -11 b 81 276 207 -11 81 107 l 81 694 m 215 921 b 306 1011 215 971 256 1011 b 331 1007 314 1011 322 1010 b 357 1011 339 1010 349 1011 b 447 921 407 1011 447 971 b 357 831 447 871 407 831 b 331 835 349 831 339 832 b 306 831 322 832 314 831 b 215 921 256 831 215 871 "},"ύ":{"ha":750,"x_min":0,"x_max":0,"o":"m 81 694 l 244 694 l 244 306 b 393 150 244 207 301 150 b 540 343 503 150 540 231 b 431 694 540 461 493 557 l 607 694 b 706 332 667 571 706 450 b 394 -11 706 117 590 -11 b 81 276 207 -11 81 107 m 356 1001 l 511 1001 l 393 792 l 250 792 "},"ω":{"ha":1042,"x_min":0,"x_max":0,"o":"m 44 332 b 143 694 44 453 79 571 l 319 694 b 208 343 251 557 208 464 b 324 147 208 206 261 147 b 439 306 386 147 439 206 l 439 514 l 603 514 l 603 306 b 717 147 603 206 656 147 b 832 343 779 147 832 206 b 721 694 832 464 789 557 l 899 694 b 997 332 963 571 997 453 b 718 -14 997 90 863 -14 b 521 71 644 -14 572 15 b 322 -14 469 15 397 -14 b 44 332 176 -14 44 90 "},"ώ":{"ha":1042,"x_min":0,"x_max":0,"o":"m 44 332 b 143 694 44 453 79 571 l 319 694 b 208 343 251 557 208 464 b 324 147 208 206 261 147 b 439 306 386 147 439 206 l 439 514 l 603 514 l 603 306 b 717 147 603 206 656 147 b 832 343 779 147 832 206 b 721 694 832 464 789 557 l 899 694 b 997 332 963 571 997 453 b 718 -14 997 90 863 -14 b 521 71 644 -14 572 15 b 322 -14 469 15 397 -14 b 44 332 176 -14 44 90 m 432 792 l 538 1001 l 693 1001 l 575 792 "},"ν":{"ha":782,"x_min":0,"x_max":0,"o":"m 11 694 l 189 694 l 403 171 b 600 694 517 290 594 496 l 771 694 b 483 0 744 425 665 203 l 300 0 "},"ς":{"ha":697,"x_min":0,"x_max":0,"o":"m 406 708 b 667 596 508 708 601 665 l 551 481 b 406 544 515 519 463 544 b 208 338 297 544 208 456 b 619 90 208 157 410 97 l 579 -153 l 413 -153 l 432 -39 b 44 336 193 11 44 135 b 406 708 44 547 207 708 "},"е":{"ha":774,"x_min":0,"x_max":0,"o":"m 44 347 b 399 708 44 551 197 708 b 731 357 596 708 731 564 b 724 274 731 331 726 301 l 207 274 b 415 135 235 188 313 135 b 588 204 482 135 546 158 l 692 100 b 414 -14 625 26 528 -14 b 44 347 204 -14 44 143 m 396 561 b 204 401 300 561 218 497 l 576 401 b 396 561 563 500 489 561 "},"з":{"ha":694,"x_min":0,"x_max":0,"o":"m 135 224 b 353 136 196 163 268 136 b 493 218 443 136 493 167 b 382 297 493 265 450 297 l 253 297 l 253 432 l 375 432 b 468 490 432 432 468 456 b 353 556 468 531 424 556 b 185 492 286 556 232 535 l 82 597 b 351 708 153 669 244 708 b 621 519 506 708 621 629 b 514 374 621 442 563 397 l 514 369 b 650 196 582 342 650 289 b 353 -14 650 69 528 -14 b 31 118 221 -14 115 33 "},"γ":{"ha":782,"x_min":0,"x_max":0,"o":"m 11 694 l 189 694 l 392 206 l 593 694 l 771 694 l 496 24 b 392 -306 429 -139 400 -192 l 224 -306 b 307 -10 235 -199 256 -135 "},"δ":{"ha":811,"x_min":0,"x_max":0,"o":"m 406 -14 b 44 349 197 -14 44 139 b 292 735 44 503 125 628 l 88 913 l 88 1042 l 724 1042 l 724 878 l 376 878 l 619 667 b 767 347 718 581 767 474 b 406 -14 767 142 617 -14 m 208 347 b 406 150 208 232 286 150 b 603 347 526 150 603 232 b 504 549 603 426 574 489 l 404 633 b 208 347 264 542 208 456 "},"ψ":{"ha":996,"x_min":0,"x_max":0,"o":"m 417 -11 b 81 357 182 15 81 144 l 81 694 l 244 694 l 244 357 b 417 154 244 233 285 172 l 417 1000 l 581 1000 l 581 154 b 751 357 711 172 751 233 l 751 694 l 915 694 l 915 357 b 581 -11 915 144 814 15 l 581 -306 l 417 -306 l 417 -11 "},"χ":{"ha":825,"x_min":0,"x_max":0,"o":"m 11 -306 l 319 213 l 164 458 b 50 550 122 524 94 550 l 35 550 l 35 708 l 60 708 b 289 567 175 708 226 665 l 413 371 l 607 694 l 792 694 l 510 221 l 694 -69 b 808 -161 736 -135 764 -161 l 824 -161 l 824 -319 l 799 -319 b 569 -178 683 -319 632 -276 l 418 63 l 197 -306 "},"φ":{"ha":975,"x_min":0,"x_max":0,"o":"m 406 -14 b 44 347 207 -14 44 149 b 406 708 44 546 207 708 l 406 1000 l 569 1000 l 569 708 b 931 347 768 708 931 546 b 569 -14 931 149 768 -14 l 569 -306 l 406 -306 l 406 -14 m 569 150 b 767 347 678 150 767 239 b 569 544 767 456 678 544 m 406 544 b 208 347 297 544 208 456 b 406 150 208 239 297 151 l 406 544 "},"б":{"ha":847,"x_min":0,"x_max":0,"o":"m 432 -14 b 63 403 193 -14 63 161 b 210 854 63 540 78 731 b 697 1075 358 994 554 968 l 769 936 b 326 761 621 824 451 868 b 236 608 278 719 251 665 b 467 710 293 668 375 708 b 803 347 657 713 803 550 b 432 -14 803 139 646 -14 m 432 544 b 226 347 324 544 226 463 b 432 150 226 225 319 150 b 638 347 546 150 638 228 b 432 544 638 467 542 544 "},"в":{"ha":728,"x_min":0,"x_max":0,"o":"m 465 694 b 661 514 572 694 661 617 b 578 365 661 450 626 393 b 683 194 640 336 683 269 b 475 0 683 83 589 0 l 81 0 l 81 694 m 233 299 l 233 133 l 443 133 b 536 217 506 133 536 175 b 443 299 536 257 506 299 m 233 561 l 233 422 l 435 422 b 514 490 488 422 514 456 b 433 561 514 525 488 561 "},"г":{"ha":600,"x_min":0,"x_max":0,"o":"m 575 694 l 575 539 l 242 539 l 242 0 l 81 0 l 81 694 "},"ж":{"ha":1111,"x_min":0,"x_max":0,"o":"m 310 360 l 28 694 l 236 694 l 474 410 l 474 694 l 638 694 l 638 410 l 876 694 l 1083 694 l 801 360 l 1101 0 l 894 0 l 638 310 l 638 0 l 474 0 l 474 310 l 217 0 l 11 0 "},"к":{"ha":718,"x_min":0,"x_max":0,"o":"m 81 0 l 81 694 l 244 694 l 244 410 l 483 694 l 690 694 l 408 360 l 707 0 l 501 0 l 244 310 l 244 0 "},"ќ":{"ha":718,"x_min":0,"x_max":0,"o":"m 81 0 l 81 694 l 244 694 l 244 410 l 483 694 l 690 694 l 408 360 l 707 0 l 501 0 l 244 310 l 244 0 m 275 792 l 382 1001 l 536 1001 l 418 792 "},"и":{"ha":817,"x_min":0,"x_max":0,"o":"m 738 0 l 575 0 l 575 435 l 231 0 l 81 0 l 81 694 l 242 694 l 242 260 l 588 694 l 738 694 "},"й":{"ha":817,"x_min":0,"x_max":0,"o":"m 738 0 l 575 0 l 575 435 l 231 0 l 81 0 l 81 694 l 242 694 l 242 260 l 588 694 l 738 694 m 293 1000 b 408 900 297 936 336 900 b 524 1000 482 900 519 936 l 646 1000 b 408 785 642 861 554 785 b 172 1000 264 785 175 861 "},"ѓ":{"ha":600,"x_min":0,"x_max":0,"o":"m 575 694 l 575 539 l 242 539 l 242 0 l 81 0 l 81 694 m 344 1001 l 500 1001 l 382 792 l 239 792 "},"т":{"ha":640,"x_min":0,"x_max":0,"o":"m 25 533 l 25 694 l 615 694 l 615 533 l 401 533 l 401 0 l 240 0 l 240 533 "},"п":{"ha":793,"x_min":0,"x_max":0,"o":"m 81 694 l 713 694 l 713 0 l 549 0 l 549 531 l 244 531 l 244 0 l 81 0 "},"є":{"ha":697,"x_min":0,"x_max":0,"o":"m 44 347 b 406 708 44 547 207 708 b 667 596 508 708 601 665 l 551 481 b 400 549 515 522 461 549 b 214 411 313 549 238 492 l 446 411 l 446 283 l 214 283 b 400 147 238 203 313 147 b 551 215 461 147 515 172 l 667 99 b 406 -14 601 29 508 -14 b 44 347 207 -14 44 149 "},"э":{"ha":697,"x_min":0,"x_max":0,"o":"m 31 596 b 292 708 96 665 189 708 b 653 347 492 708 653 547 b 292 -14 653 149 492 -14 b 31 99 189 -14 96 29 l 147 215 b 297 147 183 172 236 147 b 485 283 386 147 460 203 l 251 283 l 251 411 l 485 411 b 297 549 460 492 386 549 b 147 479 236 549 183 522 "},"м":{"ha":924,"x_min":0,"x_max":0,"o":"m 81 694 l 232 694 l 461 314 l 692 694 l 843 694 l 843 0 l 682 0 l 682 379 l 519 111 l 406 111 l 242 379 l 242 0 l 81 0 "},"д":{"ha":843,"x_min":0,"x_max":0,"o":"m 19 164 l 97 164 b 154 335 138 196 147 276 b 185 694 169 465 176 561 l 711 694 l 711 164 l 799 164 l 799 -153 l 635 -153 l 635 0 l 183 0 l 183 -153 l 19 -153 m 311 288 b 290 164 307 249 303 204 l 550 164 l 550 533 l 333 533 b 311 288 326 446 321 368 "},"л":{"ha":790,"x_min":0,"x_max":0,"o":"m 42 147 b 151 335 122 147 142 249 b 182 694 167 465 174 561 l 710 694 l 710 0 l 549 0 l 547 533 l 332 533 b 306 254 324 433 318 354 b 94 -14 289 122 244 -14 b 31 -12 76 -14 54 -14 l 31 147 "},"н":{"ha":807,"x_min":0,"x_max":0,"o":"m 81 0 l 81 694 l 242 694 l 242 428 l 565 428 l 565 694 l 726 694 l 726 0 l 565 0 l 565 267 l 242 267 l 242 0 "},"ѝ":{"ha":817,"x_min":0,"x_max":0,"o":"m 738 0 l 575 0 l 575 435 l 231 0 l 81 0 l 81 694 l 242 694 l 242 260 l 588 694 l 738 694 m 351 792 l 233 1001 l 389 1001 l 494 792 "},"ь":{"ha":771,"x_min":0,"x_max":0,"o":"m 81 0 l 81 694 l 244 694 l 244 511 l 439 511 b 726 256 636 511 726 383 b 439 0 726 128 636 0 m 244 158 l 439 158 b 563 256 526 158 563 207 b 439 353 563 304 526 353 l 244 353 "},"ы":{"ha":1063,"x_min":0,"x_max":0,"o":"m 244 694 l 244 511 l 439 511 b 726 256 636 511 726 383 b 439 0 726 128 636 0 l 81 0 l 81 694 m 818 694 l 982 694 l 982 0 l 818 0 m 244 158 l 439 158 b 563 256 526 158 563 207 b 439 353 563 304 526 353 l 244 353 "},"њ":{"ha":1253,"x_min":0,"x_max":0,"o":"m 242 694 l 242 511 l 563 511 l 563 694 l 726 694 l 726 511 l 921 511 b 1208 256 1118 511 1208 383 b 921 0 1208 128 1118 0 l 563 0 l 563 353 l 242 353 l 242 0 l 81 0 l 81 694 m 726 353 l 726 158 l 921 158 b 1043 256 1008 158 1043 207 b 921 353 1043 304 1008 353 "},"љ":{"ha":1236,"x_min":0,"x_max":0,"o":"m 42 147 b 151 335 122 147 142 249 b 182 694 167 465 174 561 l 710 694 l 710 513 l 903 513 b 1192 256 1101 513 1192 383 b 903 0 1192 128 1101 0 l 549 0 l 547 533 l 332 533 b 306 254 324 433 318 354 b 94 -14 289 122 244 -14 b 31 -12 76 -14 54 -14 l 31 147 m 710 158 l 904 158 b 1028 256 992 158 1028 207 b 904 353 1028 304 992 353 l 710 353 "},"ъ":{"ha":888,"x_min":0,"x_max":0,"o":"m 22 536 l 22 694 l 361 694 l 361 513 l 556 513 b 843 256 753 513 843 383 b 556 0 843 128 753 0 l 197 0 l 197 536 m 556 158 b 679 256 643 158 679 207 b 556 353 679 304 643 353 l 361 353 l 361 158 "},"ґ":{"ha":597,"x_min":0,"x_max":0,"o":"m 572 847 l 572 539 l 242 539 l 242 0 l 81 0 l 81 694 l 411 694 l 411 847 "},"ѵ":{"ha":804,"x_min":0,"x_max":0,"o":"m 189 694 l 392 200 l 528 531 b 751 694 576 651 632 694 l 779 694 l 779 536 l 764 536 b 683 482 724 536 701 526 l 483 0 l 300 0 l 11 694 "},"џ":{"ha":804,"x_min":0,"x_max":0,"o":"m 81 0 l 81 694 l 244 694 l 244 164 l 560 164 l 560 694 l 724 694 l 724 0 l 485 0 l 485 -153 l 321 -153 l 321 0 "},"ч":{"ha":818,"x_min":0,"x_max":0,"o":"m 342 151 b 81 435 193 151 81 254 l 81 694 l 242 694 l 242 444 b 360 315 242 347 293 315 b 576 410 439 315 515 358 l 576 694 l 738 694 l 738 0 l 576 0 l 576 221 b 342 151 511 178 414 151 "},"я":{"ha":729,"x_min":0,"x_max":0,"o":"m 169 240 b 36 457 89 274 36 356 b 260 694 36 593 132 694 l 649 694 l 649 0 l 493 0 l 493 218 l 351 218 b 336 218 349 218 340 218 l 201 0 l 22 0 m 288 556 b 192 457 224 556 192 506 b 288 357 192 403 226 357 l 493 357 l 493 556 l 288 556 "},"Я":{"ha":915,"x_min":0,"x_max":0,"o":"m 31 0 l 203 372 b 53 657 111 429 53 533 b 374 1000 53 854 190 1000 l 814 1000 l 814 0 l 650 0 l 650 314 l 385 314 b 357 315 375 314 365 314 l 210 0 m 396 836 b 217 657 286 836 217 767 b 396 478 217 549 286 478 l 650 478 l 650 836 l 396 836 "},"ю":{"ha":1125,"x_min":0,"x_max":0,"o":"m 81 0 l 81 694 l 242 694 l 242 428 l 368 428 b 719 708 404 589 547 708 b 1081 347 918 708 1081 547 b 719 -14 1081 149 918 -14 b 368 267 547 -14 404 107 l 242 267 l 242 0 m 719 547 b 519 347 608 547 519 457 b 719 147 519 238 608 147 b 919 347 829 147 919 238 b 719 547 919 457 829 547 "},"²":{"ha":503,"x_min":0,"x_max":0,"o":"m 43 1019 b 240 1160 69 1103 146 1160 b 435 975 353 1160 435 1083 b 326 765 435 903 403 840 l 218 658 l 444 658 l 444 551 l 49 551 l 49 640 l 249 842 b 326 974 290 883 326 924 b 239 1051 326 1021 292 1051 b 139 974 190 1051 154 1022 l 43 1019 "},"⁴":{"ha":522,"x_min":0,"x_max":0,"o":"m 39 675 l 39 769 l 247 1151 l 369 1151 l 169 783 l 319 783 l 319 903 l 428 903 l 428 783 l 490 783 l 490 675 l 428 675 l 428 551 l 319 551 l 319 675 "},"₄":{"ha":522,"x_min":0,"x_max":0,"o":"m 39 -31 l 39 65 l 247 447 l 369 447 l 169 78 l 319 78 l 319 199 l 428 199 l 428 78 l 490 78 l 490 -31 l 428 -31 l 428 -153 l 319 -153 l 319 -31 "},"³":{"ha":478,"x_min":0,"x_max":0,"o":"m 226 543 b 25 690 133 543 56 603 l 122 728 b 229 649 140 676 181 649 b 326 735 288 649 326 683 b 225 825 326 789 286 825 b 189 819 211 825 199 824 l 138 899 l 251 1043 l 61 1043 l 61 1151 l 406 1151 l 406 1065 l 285 917 b 435 735 374 904 435 832 b 226 543 435 621 349 543 "},"¹":{"ha":383,"x_min":0,"x_max":0,"o":"m 201 1151 l 297 1151 l 297 551 l 189 551 l 189 1025 l 81 965 l 33 1060 "},"⁰":{"ha":574,"x_min":0,"x_max":0,"o":"m 286 543 b 50 851 139 543 50 658 b 286 1160 50 1044 139 1160 b 524 851 435 1160 524 1044 b 286 543 524 658 435 543 m 158 851 b 286 653 158 714 206 653 b 415 851 368 653 415 714 b 286 1050 415 989 368 1050 b 158 851 206 1050 158 989 "},"⁵":{"ha":482,"x_min":0,"x_max":0,"o":"m 226 543 b 25 686 138 543 57 593 l 124 729 b 228 650 142 675 181 650 b 331 751 285 650 331 685 b 228 849 331 814 292 849 b 154 829 201 849 174 842 l 51 829 l 76 1151 l 408 1151 l 408 1043 l 178 1043 l 171 949 b 226 956 188 953 207 956 b 439 753 351 956 439 875 b 226 543 439 619 340 543 "},"⁶":{"ha":522,"x_min":0,"x_max":0,"o":"m 261 543 b 50 747 144 543 50 631 b 85 865 50 789 63 831 l 263 1151 l 389 1151 l 269 956 b 472 751 382 956 472 864 b 261 543 472 635 379 543 m 158 750 b 261 651 158 694 203 651 b 363 750 318 651 363 694 b 261 850 363 806 318 850 b 158 750 203 850 158 806 "},"⁷":{"ha":474,"x_min":0,"x_max":0,"o":"m 426 1151 l 426 1063 l 215 551 l 100 551 l 303 1043 l 32 1043 l 32 1151 "},"⁸":{"ha":542,"x_min":0,"x_max":0,"o":"m 271 543 b 50 718 114 543 50 621 b 132 860 50 790 86 833 b 67 990 96 886 67 924 b 271 1160 67 1092 150 1160 b 475 990 390 1160 475 1092 b 408 860 475 924 446 886 b 492 718 456 833 492 790 b 271 543 492 621 426 543 m 158 725 b 271 650 158 676 196 650 b 383 725 346 650 383 676 b 271 801 383 772 340 801 b 158 725 201 801 158 772 m 174 982 b 271 910 174 940 210 910 b 367 982 332 910 367 940 b 271 1054 367 1025 335 1054 b 174 982 207 1054 174 1025 "},"⁹":{"ha":522,"x_min":0,"x_max":0,"o":"m 50 951 b 261 1160 50 1068 143 1160 b 472 956 378 1160 472 1072 b 438 838 472 914 460 872 l 260 551 l 133 551 l 253 747 b 50 951 140 747 50 839 m 160 953 b 261 854 160 897 204 854 b 364 953 319 854 364 897 b 261 1051 364 1008 319 1051 b 160 953 204 1051 160 1008 "},"₁":{"ha":383,"x_min":0,"x_max":0,"o":"m 201 447 l 297 447 l 297 -153 l 189 -153 l 189 321 l 81 261 l 33 356 "},"₂":{"ha":503,"x_min":0,"x_max":0,"o":"m 43 315 b 240 456 69 399 146 456 b 435 271 353 456 435 379 b 326 61 435 199 403 136 l 218 -46 l 444 -46 l 444 -153 l 49 -153 l 49 -64 l 249 138 b 326 269 290 179 326 219 b 239 347 326 317 292 347 b 139 269 190 347 154 318 l 43 315 "},"₃":{"ha":478,"x_min":0,"x_max":0,"o":"m 226 -161 b 25 -18 133 -161 56 -106 l 122 24 b 229 -56 140 -28 181 -56 b 326 31 288 -56 326 -21 b 225 121 326 85 286 121 b 189 115 211 121 199 119 l 138 194 l 251 339 l 61 339 l 61 447 l 406 447 l 406 361 l 285 213 b 435 31 374 200 435 128 b 226 -161 435 -83 349 -161 "},"₅":{"ha":482,"x_min":0,"x_max":0,"o":"m 226 -161 b 25 -18 138 -161 57 -111 l 124 25 b 228 -54 142 -29 181 -54 b 331 47 285 -54 331 -21 b 228 144 331 110 292 144 b 154 125 201 144 174 138 l 51 125 l 76 447 l 408 447 l 408 339 l 178 339 l 171 244 b 226 251 188 249 207 251 b 439 49 351 251 439 171 b 226 -161 439 -85 340 -161 "},"₆":{"ha":522,"x_min":0,"x_max":0,"o":"m 261 -161 b 50 43 144 -161 50 -74 b 85 161 50 85 63 126 l 263 447 l 389 447 l 269 251 b 472 47 382 251 472 160 b 261 -161 472 -69 379 -161 m 158 46 b 261 -53 158 -10 203 -53 b 363 46 318 -53 363 -10 b 261 146 363 101 318 146 b 158 46 203 146 158 101 "},"₇":{"ha":474,"x_min":0,"x_max":0,"o":"m 426 447 l 426 358 l 215 -153 l 100 -153 l 303 339 l 32 339 l 32 447 "},"₈":{"ha":542,"x_min":0,"x_max":0,"o":"m 271 -161 b 50 14 114 -161 50 -83 b 132 156 50 86 86 129 b 67 286 96 182 67 219 b 271 456 67 388 150 456 b 475 286 390 456 475 388 b 408 156 475 219 446 182 b 492 14 456 129 492 86 b 271 -161 492 -83 426 -161 m 158 21 b 271 -56 158 -29 196 -56 b 383 21 346 -56 383 -29 b 271 97 383 68 340 97 b 158 21 201 97 158 68 m 174 278 b 271 206 174 236 210 206 b 367 278 332 206 367 236 b 271 350 367 321 335 350 b 174 278 207 350 174 321 "},"₉":{"ha":522,"x_min":0,"x_max":0,"o":"m 50 247 b 261 456 50 364 143 456 b 472 251 378 456 472 368 b 438 133 472 210 460 168 l 260 -153 l 133 -153 l 253 43 b 50 247 140 43 50 135 m 160 247 b 261 147 160 192 204 147 b 364 247 319 147 364 192 b 261 346 364 303 319 346 b 160 247 204 346 160 303 "},"₀":{"ha":574,"x_min":0,"x_max":0,"o":"m 286 -161 b 50 147 139 -161 50 -46 b 286 456 50 340 139 456 b 524 147 435 456 524 340 b 286 -161 524 -46 435 -161 m 158 147 b 286 -51 158 10 206 -51 b 415 147 368 -51 415 10 b 286 346 415 285 368 346 b 158 147 206 346 158 285 "},"℗":{"ha":1136,"x_min":0,"x_max":0,"o":"m 58 500 b 572 1014 58 783 289 1014 b 1086 500 856 1014 1086 783 b 572 -14 1086 217 856 -14 b 58 500 289 -14 58 217 m 572 915 b 157 500 343 915 157 729 b 572 85 157 271 343 85 b 988 500 801 85 988 271 b 572 915 988 729 801 915 m 394 203 l 394 793 l 642 793 b 831 592 750 793 831 707 b 640 389 831 475 750 389 l 508 389 l 508 203 m 508 681 l 508 501 l 628 501 b 718 592 682 503 718 535 b 628 681 718 647 683 681 "},"¼":{"ha":1264,"x_min":0,"x_max":0,"o":"m 878 1000 l 1022 1000 l 368 0 l 224 0 m 953 589 l 1075 589 l 876 226 l 1025 226 l 1025 346 l 1133 346 l 1133 226 l 1197 226 l 1197 118 l 1133 118 l 1133 0 l 1025 0 l 1025 118 l 744 118 l 744 213 m 67 908 l 235 1000 l 331 1000 l 331 411 l 222 411 l 222 874 l 114 814 "},"½":{"ha":1310,"x_min":0,"x_max":0,"o":"m 878 1000 l 1022 1000 l 368 0 l 224 0 m 842 457 b 1039 597 868 540 944 597 b 1232 415 1150 597 1232 524 b 1125 208 1232 343 1201 282 l 1017 106 l 1243 106 l 1243 0 l 847 0 l 847 88 l 1047 285 b 1124 414 1089 325 1124 364 b 1038 489 1124 461 1090 489 b 938 411 989 489 953 460 m 235 1000 l 331 1000 l 331 411 l 222 411 l 222 874 l 114 814 l 67 908 "},"¾":{"ha":1336,"x_min":0,"x_max":0,"o":"m 938 1000 l 1081 1000 l 428 0 l 283 0 m 164 582 b 271 503 182 531 222 503 b 368 589 329 503 368 538 b 267 679 368 643 328 679 b 231 674 253 679 240 678 l 179 753 l 293 893 l 103 893 l 103 1000 l 447 1000 l 447 915 l 326 771 b 476 589 415 758 476 686 b 268 397 476 475 390 397 b 67 540 175 397 97 453 m 818 118 l 818 213 l 1026 589 l 1149 589 l 949 226 l 1099 226 l 1099 346 l 1207 346 l 1207 226 l 1269 226 l 1269 118 l 1207 118 l 1207 0 l 1099 0 l 1099 118 "},"⅓":{"ha":1322,"x_min":0,"x_max":0,"o":"m 878 1000 l 1022 1000 l 368 0 l 224 0 m 943 171 b 1050 92 961 119 1001 92 b 1147 178 1107 92 1147 126 b 1046 268 1147 232 1106 268 b 1010 263 1032 268 1019 267 l 957 342 l 1072 483 l 881 483 l 881 589 l 1226 589 l 1226 506 l 1104 360 b 1256 178 1193 347 1256 275 b 1047 -14 1256 64 1169 -14 b 846 133 954 -14 876 46 m 67 908 l 235 1000 l 331 1000 l 331 411 l 222 411 l 222 874 l 114 814 "},"⅑":{"ha":1318,"x_min":0,"x_max":0,"o":"m 831 394 b 1042 603 831 511 924 603 b 1253 399 1158 603 1253 515 b 1218 281 1253 357 1240 315 l 1039 0 l 914 0 l 1033 190 b 831 394 919 190 831 281 m 878 1000 l 1022 1000 l 368 0 l 224 0 m 235 1000 l 331 1000 l 331 411 l 222 411 l 222 874 l 114 814 l 67 908 m 1042 493 b 939 394 985 493 939 450 b 1042 294 939 339 985 294 b 1144 394 1100 294 1144 339 b 1042 493 1144 450 1099 493 "},"⅞":{"ha":1301,"x_min":0,"x_max":0,"o":"m 794 161 b 876 303 794 233 831 276 b 810 433 840 329 810 367 b 1015 603 810 535 894 603 b 1219 433 1135 603 1219 535 b 1153 303 1219 367 1190 329 b 1235 161 1200 276 1235 233 b 1015 -14 1235 64 1171 -14 b 794 161 858 -14 794 64 m 193 0 l 846 1000 l 990 1000 l 338 0 m 461 1000 l 461 914 l 250 411 l 135 411 l 338 894 l 67 894 l 67 1000 m 1015 244 b 903 168 946 244 903 215 b 1015 92 903 119 940 92 b 1128 168 1090 92 1128 119 b 1015 244 1128 215 1083 244 m 918 425 b 1015 353 918 383 954 353 b 1111 425 1075 353 1111 383 b 1015 497 1111 468 1079 497 b 918 425 951 497 918 468 "},"⅔":{"ha":1415,"x_min":0,"x_max":0,"o":"m 969 1000 l 1114 1000 l 460 0 l 315 0 m 1140 -14 b 939 133 1047 -14 969 46 l 1036 171 b 1143 92 1054 119 1094 92 b 1240 178 1200 92 1240 126 b 1139 268 1240 232 1199 268 b 1103 263 1125 268 1113 267 l 1051 342 l 1165 483 l 975 483 l 975 589 l 1319 589 l 1319 506 l 1197 360 b 1349 178 1286 347 1349 275 b 1140 -14 1349 64 1263 -14 m 67 874 b 264 1014 93 957 171 1014 b 458 831 376 1014 458 939 b 350 624 458 758 429 696 l 242 524 l 468 524 l 468 417 l 72 417 l 72 504 l 272 700 b 350 829 314 740 350 779 b 263 906 350 876 317 906 b 163 828 215 906 179 876 l 67 874 "},"⅕":{"ha":1324,"x_min":0,"x_max":0,"o":"m 1046 -14 b 844 129 957 -14 876 36 l 943 172 b 1047 93 961 118 1000 93 b 1150 194 1103 93 1150 128 b 1047 292 1150 257 1111 292 b 974 272 1021 292 993 285 l 871 272 l 896 589 l 1228 589 l 1228 482 l 997 482 l 989 392 b 1046 399 1007 396 1026 399 b 1257 196 1171 399 1257 318 b 1046 -14 1257 63 1160 -14 m 878 1000 l 1022 1000 l 368 0 l 224 0 m 67 908 l 235 1000 l 331 1000 l 331 411 l 222 411 l 222 874 l 114 814 "},"⅖":{"ha":1429,"x_min":0,"x_max":0,"o":"m 1150 -14 b 949 129 1061 -14 981 36 l 1047 172 b 1151 93 1065 118 1104 93 b 1254 194 1208 93 1254 128 b 1151 292 1254 257 1215 292 b 1078 272 1125 292 1097 285 l 975 272 l 1000 589 l 1332 589 l 1332 483 l 1101 483 l 1094 392 b 1150 399 1111 396 1131 399 b 1363 196 1275 399 1363 318 b 1150 -14 1363 63 1264 -14 m 975 1000 l 1119 1000 l 465 0 l 321 0 m 67 874 b 264 1014 93 957 171 1014 b 458 829 376 1014 458 938 b 350 619 458 757 428 693 l 242 517 l 468 517 l 468 411 l 72 411 l 72 499 l 272 696 b 350 828 314 736 350 778 b 263 906 350 875 317 906 b 163 828 215 906 179 876 l 67 874 "},"⅝":{"ha":1397,"x_min":0,"x_max":0,"o":"m 889 161 b 972 303 889 233 925 276 b 906 433 935 329 906 367 b 1110 603 906 535 989 603 b 1314 433 1231 603 1314 535 b 1249 303 1314 367 1285 329 b 1331 161 1294 276 1331 233 b 1110 -14 1331 64 1265 -14 b 889 161 954 -14 889 64 m 268 397 b 67 540 179 397 99 447 l 165 583 b 269 504 183 529 222 504 b 372 606 326 504 372 539 b 269 703 372 668 333 703 b 196 683 243 703 215 696 l 93 683 l 118 1000 l 450 1000 l 450 893 l 219 893 l 213 803 b 268 810 229 807 249 810 b 481 607 393 810 481 729 b 268 397 481 474 382 397 m 938 1000 l 1082 1000 l 428 0 l 283 0 m 997 168 b 1110 92 997 119 1035 92 b 1222 168 1185 92 1222 119 b 1110 244 1222 215 1179 244 b 997 168 1040 244 997 215 m 1110 497 b 1013 425 1046 497 1013 468 b 1110 353 1013 383 1049 353 b 1206 425 1171 353 1206 383 b 1110 497 1206 468 1174 497 "},"⅜":{"ha":1401,"x_min":0,"x_max":0,"o":"m 893 161 b 976 303 893 233 929 276 b 910 433 939 329 910 367 b 1114 603 910 535 993 603 b 1318 433 1235 603 1318 535 b 1253 303 1318 367 1289 329 b 1335 161 1299 276 1335 233 b 1114 -14 1335 64 1269 -14 b 893 161 958 -14 893 64 m 289 0 l 943 1000 l 1086 1000 l 433 0 m 268 397 b 67 540 175 397 97 453 l 164 582 b 271 503 182 531 222 503 b 368 589 329 503 368 538 b 267 679 368 643 328 679 b 231 674 253 679 240 678 l 179 753 l 293 894 l 103 894 l 103 1000 l 447 1000 l 447 917 l 326 771 b 476 589 415 758 476 686 b 268 397 476 475 390 397 m 1001 168 b 1114 92 1001 119 1039 92 b 1226 168 1189 92 1226 119 b 1114 244 1226 215 1183 244 b 1001 168 1044 244 1001 215 m 1017 425 b 1114 353 1017 383 1053 353 b 1210 425 1175 353 1210 383 b 1114 497 1210 468 1178 497 b 1017 425 1050 497 1017 468 "},"⅛":{"ha":1333,"x_min":0,"x_max":0,"o":"m 1047 -14 b 826 161 890 -14 826 64 b 908 303 826 233 863 276 b 842 433 872 329 842 367 b 1047 603 842 535 926 603 b 1251 433 1167 603 1251 535 b 1185 303 1251 367 1222 329 b 1267 161 1232 276 1267 233 b 1047 -14 1267 64 1203 -14 m 878 1000 l 1022 1000 l 368 0 l 224 0 m 235 1000 l 331 1000 l 331 411 l 222 411 l 222 874 l 114 814 l 67 908 m 1047 244 b 935 168 978 244 935 215 b 1047 92 935 119 972 92 b 1160 168 1122 92 1160 119 b 1047 244 1160 215 1115 244 m 950 425 b 1047 353 950 383 986 353 b 1143 425 1107 353 1143 383 b 1047 497 1143 468 1111 497 b 950 425 983 497 950 468 "},"⅐":{"ha":1349,"x_min":0,"x_max":0,"o":"m 878 1000 l 1022 1000 l 368 0 l 224 0 m 1282 589 l 1282 501 l 1071 0 l 954 0 l 1157 482 l 886 482 l 886 589 m 67 908 l 235 1000 l 331 1000 l 331 411 l 222 411 l 222 874 l 114 814 "},"⅚":{"ha":1331,"x_min":0,"x_max":0,"o":"m 950 193 b 1053 94 950 138 996 94 b 1156 193 1110 94 1156 138 b 1053 293 1156 249 1110 293 b 950 193 994 293 950 249 m 842 190 b 876 308 842 232 854 274 l 1056 589 l 1181 589 l 1061 399 b 1264 194 1175 399 1264 308 b 1053 -14 1264 78 1171 -14 b 842 190 936 -14 842 74 m 118 1000 l 450 1000 l 450 894 l 219 894 l 213 803 b 268 810 229 807 249 810 b 481 607 393 810 481 729 b 268 397 481 474 382 397 b 67 540 179 397 99 447 l 165 583 b 269 504 183 529 222 504 b 372 606 326 504 372 539 b 269 703 372 668 333 703 b 196 683 243 703 215 696 l 93 683 m 939 1000 l 1083 1000 l 431 0 l 286 0 "},"⅙":{"ha":1268,"x_min":0,"x_max":0,"o":"m 990 -14 b 781 190 875 -14 781 74 b 814 308 781 232 792 274 l 993 589 l 1118 589 l 999 399 b 1203 194 1111 399 1203 308 b 990 -14 1203 78 1108 -14 m 878 1000 l 1022 1000 l 368 0 l 224 0 m 67 908 l 235 1000 l 331 1000 l 331 411 l 222 411 l 222 874 l 114 814 m 990 293 b 888 193 933 293 888 249 b 990 94 888 138 933 94 b 1093 193 1049 94 1093 138 b 990 293 1093 249 1049 293 "},"⅗":{"ha":1411,"x_min":0,"x_max":0,"o":"m 1132 -14 b 931 129 1043 -14 963 36 l 1029 172 b 1133 93 1049 118 1086 93 b 1236 194 1190 93 1236 128 b 1133 292 1236 257 1197 292 b 1060 272 1107 292 1081 285 l 957 272 l 982 589 l 1314 589 l 1314 483 l 1083 483 l 1076 392 b 1133 399 1093 396 1114 399 b 1344 196 1257 399 1344 318 b 1132 -14 1344 63 1246 -14 m 938 1000 l 1081 1000 l 428 0 l 283 0 m 268 397 b 67 540 175 397 97 453 l 164 582 b 271 503 182 531 222 503 b 368 589 329 503 368 538 b 267 679 368 643 328 679 b 231 674 253 679 240 678 l 179 753 l 293 894 l 103 894 l 103 1000 l 447 1000 l 447 917 l 326 771 b 476 589 415 758 476 686 b 268 397 476 475 390 397 "},"ª":{"ha":564,"x_min":0,"x_max":0,"o":"m 42 792 b 249 1008 42 911 129 1008 b 376 949 301 1008 349 981 l 376 1000 l 485 1000 l 485 583 l 376 583 l 376 636 b 249 575 349 603 301 575 b 42 792 129 575 42 672 m 150 792 b 258 683 150 732 199 683 b 367 792 318 683 367 732 b 258 900 367 851 318 900 b 150 792 199 900 150 851 m 56 410 l 56 506 l 485 506 l 485 410 "},"º":{"ha":517,"x_min":0,"x_max":0,"o":"m 258 1014 b 475 797 378 1014 475 917 b 258 581 475 678 378 581 b 42 797 139 581 42 678 b 258 1014 42 917 139 1014 m 258 689 b 367 797 318 689 367 738 b 258 906 367 857 318 906 b 150 797 199 906 150 857 b 258 689 150 738 199 689 m 51 506 l 465 506 l 465 410 l 51 410 "},"†":{"ha":526,"x_min":0,"x_max":0,"o":"m 44 404 l 44 568 l 182 568 l 182 1000 l 346 1000 l 346 568 l 482 568 l 482 404 l 346 404 l 346 0 l 182 0 l 182 404 "},"‡":{"ha":543,"x_min":0,"x_max":0,"o":"m 44 415 l 190 415 l 190 557 l 44 557 l 44 721 l 190 721 l 190 1000 l 354 1000 l 354 721 l 499 721 l 499 557 l 354 557 l 354 415 l 499 415 l 499 251 l 354 251 l 354 0 l 190 0 l 190 251 l 44 251 "},"№":{"ha":1508,"x_min":0,"x_max":0,"o":"m 103 0 l 103 1000 l 254 1000 l 726 311 l 726 1000 l 890 1000 l 890 0 l 738 0 l 267 689 l 267 0 m 981 797 b 1197 1014 981 917 1078 1014 b 1414 797 1317 1014 1414 917 b 1197 581 1414 678 1317 581 b 981 797 1078 581 981 678 m 1197 689 b 1307 797 1258 689 1307 738 b 1197 906 1307 857 1258 906 b 1089 797 1138 906 1089 857 b 1197 689 1089 738 1138 689 m 1404 506 l 1404 410 l 992 410 l 992 506 "},"⁺":{"ha":457,"x_min":0,"x_max":0,"o":"m 50 799 l 50 907 l 175 907 l 175 1032 l 283 1032 l 283 907 l 407 907 l 407 799 l 283 799 l 283 675 l 175 675 l 175 799 "},"⁻":{"ha":457,"x_min":0,"x_max":0,"o":"m 50 907 l 407 907 l 407 799 l 50 799 "},"⁼":{"ha":457,"x_min":0,"x_max":0,"o":"m 50 997 l 407 997 l 407 889 l 50 889 m 407 818 l 407 710 l 50 710 l 50 818 "},"⁽":{"ha":289,"x_min":0,"x_max":0,"o":"m 50 858 b 140 1208 50 983 81 1107 l 258 1208 b 154 858 189 1101 154 981 b 258 508 154 736 189 615 l 140 508 b 50 858 81 610 50 735 "},"⁾":{"ha":289,"x_min":0,"x_max":0,"o":"m 32 508 b 135 858 101 615 135 736 b 32 1208 135 981 101 1101 l 150 1208 b 240 858 210 1107 240 983 b 150 508 240 735 210 610 "},"ⁿ":{"ha":558,"x_min":0,"x_max":0,"o":"m 78 583 l 78 1000 l 186 1000 l 186 956 b 311 1008 217 988 261 1008 b 481 835 411 1008 481 936 l 481 583 l 372 583 l 372 806 b 288 900 372 864 343 900 b 186 793 231 900 186 858 l 186 583 "},"₊":{"ha":457,"x_min":0,"x_max":0,"o":"m 50 192 l 175 192 l 175 317 l 283 317 l 283 192 l 407 192 l 407 83 l 283 83 l 283 -42 l 175 -42 l 175 83 l 50 83 "},"₋":{"ha":457,"x_min":0,"x_max":0,"o":"m 50 192 l 407 192 l 407 83 l 50 83 "},"₌":{"ha":457,"x_min":0,"x_max":0,"o":"m 50 279 l 407 279 l 407 171 l 50 171 m 407 99 l 407 -10 l 50 -10 l 50 99 "},"₍":{"ha":289,"x_min":0,"x_max":0,"o":"m 50 149 b 140 499 50 272 81 397 l 258 499 b 154 149 189 392 154 269 b 258 -203 154 26 189 -96 l 140 -203 b 50 149 81 -100 50 24 "},"₎":{"ha":289,"x_min":0,"x_max":0,"o":"m 32 -203 b 135 147 101 -96 135 25 b 32 497 135 269 101 390 l 150 497 b 240 147 210 396 240 272 b 150 -203 240 24 210 -101 "},"₏":{"ha":558,"x_min":0,"x_max":0,"o":"m 78 -125 l 78 292 l 186 292 l 186 247 b 311 300 217 279 261 300 b 481 126 411 300 481 228 l 481 -125 l 372 -125 l 372 97 b 288 192 372 156 343 192 b 186 85 231 192 186 150 l 186 -125 "},"æ":{"ha":1300,"x_min":0,"x_max":0,"o":"m 44 218 b 333 456 44 375 172 456 b 561 396 431 456 511 426 l 561 433 b 386 561 561 510 496 561 b 168 493 307 561 232 535 l 86 610 b 406 708 167 665 276 708 b 674 594 533 708 625 665 b 925 708 731 665 818 708 b 1256 357 1122 708 1256 564 b 1250 274 1256 331 1253 301 l 733 274 b 942 135 761 188 839 135 b 1114 204 1008 135 1072 158 l 1217 100 b 940 -14 1150 26 1054 -14 b 725 57 857 -14 782 13 l 725 0 l 561 0 l 561 61 b 331 -14 515 25 444 -14 b 44 218 156 -14 44 69 m 208 218 b 360 118 208 154 258 118 b 561 197 447 118 511 146 l 561 254 b 361 324 518 292 451 324 b 208 218 261 324 208 285 m 1103 401 b 921 561 1089 500 1014 561 b 729 401 825 561 744 497 "},"ǽ":{"ha":1325,"x_min":0,"x_max":0,"o":"m 331 -14 b 44 218 156 -14 44 69 b 333 456 44 375 172 456 b 561 396 431 456 511 426 l 561 433 b 386 561 561 510 496 561 b 168 493 307 561 232 535 l 86 610 b 406 708 167 665 276 708 b 674 594 533 708 625 665 b 925 708 731 665 818 708 b 1256 357 1122 708 1256 564 b 1250 274 1256 331 1253 301 l 733 274 b 942 135 761 188 839 135 b 1114 204 1008 135 1072 158 l 1217 100 b 940 -14 1150 26 1054 -14 b 725 57 857 -14 782 13 l 725 0 l 561 0 l 561 61 b 331 -14 515 25 444 -14 m 208 218 b 360 118 208 154 258 118 b 561 197 447 118 511 146 l 561 254 b 361 324 518 292 451 324 b 208 218 261 324 208 285 m 1103 401 b 921 561 1089 500 1014 561 b 729 401 825 561 744 497 m 682 1001 l 838 1001 l 719 792 l 576 792 "},"⅘":{"ha":1449,"x_min":0,"x_max":0,"o":"m 1068 172 b 1172 93 1086 118 1125 93 b 1275 194 1228 93 1275 128 b 1172 292 1275 257 1236 292 b 1099 272 1146 292 1118 285 l 996 272 l 1021 589 l 1353 589 l 1353 483 l 1122 483 l 1114 392 b 1171 399 1132 396 1151 399 b 1382 196 1296 399 1382 318 b 1171 -14 1382 63 1285 -14 b 969 129 1082 -14 1001 36 m 992 1000 l 1136 1000 l 483 0 l 339 0 m 67 529 l 67 624 l 275 1000 l 397 1000 l 197 638 l 347 638 l 347 757 l 456 757 l 456 638 l 518 638 l 518 529 l 456 529 l 456 411 l 347 411 l 347 529 "},"₸":{"ha":788,"x_min":0,"x_max":0,"o":"m 739 736 l 739 583 l 476 583 l 476 0 l 313 0 l 313 583 l 49 583 l 49 736 m 739 1000 l 739 847 l 49 847 l 49 1000 "},"₮":{"ha":888,"x_min":0,"x_max":0,"o":"m 49 836 l 49 1000 l 839 1000 l 839 836 l 526 836 l 526 671 l 679 753 l 732 650 l 526 539 l 526 406 l 679 488 l 732 385 l 526 274 l 526 0 l 363 0 l 363 194 l 199 107 l 146 211 l 363 326 l 363 460 l 199 372 l 146 475 l 363 592 l 363 836 "},"₴":{"ha":1003,"x_min":0,"x_max":0,"o":"m 151 439 b 325 550 194 493 261 525 l 40 550 l 40 667 l 640 667 b 681 739 671 686 681 715 b 479 857 681 810 601 857 b 207 778 389 857 303 832 l 160 928 b 500 1014 271 985 388 1014 b 853 744 714 1014 853 907 b 839 667 853 713 847 689 l 963 667 l 963 550 l 753 550 b 596 482 708 521 650 501 b 490 439 554 467 519 453 l 963 439 l 963 322 l 288 322 b 268 278 275 310 268 294 b 483 142 268 201 357 142 b 803 261 603 142 717 185 l 860 111 b 489 -15 757 31 633 -15 b 104 286 281 -15 104 103 b 106 322 104 299 104 311 l 40 322 l 40 439 "},"₽":{"ha":865,"x_min":0,"x_max":0,"o":"m 57 561 l 131 561 l 131 1000 l 499 1000 b 804 699 713 1000 804 850 b 499 397 804 549 713 397 l 294 397 l 294 296 l 490 296 l 490 168 l 294 168 l 294 0 l 131 0 l 131 168 l 57 168 l 57 296 l 131 296 l 131 397 l 57 397 m 294 561 l 489 561 b 642 700 600 561 642 631 b 490 836 642 768 600 836 l 294 836 "},"֏":{"ha":894,"x_min":0,"x_max":0,"o":"m 22 638 b 374 1014 22 904 199 1014 b 725 638 550 1014 725 904 l 725 581 l 872 581 l 872 458 l 725 458 l 725 369 l 872 369 l 872 247 l 725 247 l 725 -14 l 561 -14 l 561 247 l 411 247 l 411 369 l 561 369 l 561 458 l 411 458 l 411 581 l 561 581 l 561 638 b 374 853 561 797 468 853 b 186 638 281 853 186 797 l 22 638 "},"Ү":{"ha":878,"x_min":0,"x_max":0,"o":"m 6 1000 l 189 1000 l 439 518 l 689 1000 l 872 1000 l 521 333 l 521 0 l 357 0 l 357 333 "},"Қ":{"ha":963,"x_min":0,"x_max":0,"o":"m 267 1000 l 267 610 l 633 1000 l 840 1000 l 400 525 l 724 164 l 918 164 l 918 -153 l 754 -153 l 754 0 l 650 0 l 267 438 l 267 0 l 103 0 l 103 1000 "},"қ":{"ha":799,"x_min":0,"x_max":0,"o":"m 244 694 l 244 410 l 483 694 l 690 694 l 408 360 l 592 153 l 754 153 l 754 -153 l 601 -153 l 601 0 l 501 0 l 244 310 l 244 0 l 81 0 l 81 694 "},"ү":{"ha":783,"x_min":0,"x_max":0,"o":"m 11 694 l 189 694 l 392 206 l 594 694 l 772 694 l 472 -24 l 472 -306 l 311 -306 l 311 -24 "},"͵":{"ha":289,"x_min":0,"x_max":0,"o":"m 221 -306 l 58 -306 l 124 0 l 244 0 "},"ʹ":{"ha":299,"x_min":0,"x_max":0,"o":"m 72 1000 l 240 1000 l 171 608 l 44 608 "},"":{"ha":1489,"x_min":0,"x_max":0,"o":"m 1071 161 b 1089 258 1067 196 1071 226 b 1158 300 1106 289 1121 300 l 1256 300 b 1276 306 1264 300 1269 301 l 1288 328 b 1363 263 1321 313 1344 293 b 1364 182 1381 232 1382 214 l 1315 97 b 1311 76 1311 90 1310 85 l 1324 56 b 1229 24 1294 35 1267 24 b 1160 63 1193 24 1179 31 l 1110 147 b 1094 161 1107 153 1101 158 l 1071 161 m 582 140 b 650 225 582 193 615 225 b 690 208 668 225 679 219 l 689 233 l 689 289 l 738 289 l 738 58 l 697 58 l 694 74 l 693 74 b 650 54 682 63 665 54 b 582 140 608 54 582 86 m 944 54 b 865 140 904 54 865 86 b 944 225 865 194 904 225 b 1024 140 986 225 1024 194 b 944 54 1024 86 986 54 m 119 435 b 211 496 119 469 147 489 b 186 519 211 510 203 519 b 143 504 172 519 158 514 l 125 536 b 196 557 146 549 169 557 b 260 483 238 557 260 533 l 260 390 l 221 390 l 217 407 l 215 407 b 168 386 203 394 186 386 b 119 435 139 386 119 408 m 940 435 b 1032 496 940 469 968 489 b 1007 519 1032 510 1024 519 b 963 504 993 519 979 514 l 946 536 b 1017 557 967 549 990 557 b 1081 483 1058 557 1081 533 l 1081 390 l 1042 390 l 1038 407 l 1036 407 b 989 386 1022 394 1007 386 b 940 435 960 386 940 408 m 451 54 b 400 121 415 54 400 79 l 400 222 l 449 222 l 449 126 b 469 96 449 103 454 96 b 499 114 482 96 489 100 l 499 222 l 547 222 l 547 58 l 507 58 l 504 81 l 503 81 b 451 54 489 64 474 54 m 785 554 l 789 533 l 790 533 b 842 557 804 546 819 557 b 893 492 878 557 893 532 l 893 390 l 844 390 l 844 485 b 824 517 844 508 839 517 b 794 500 813 517 804 511 l 794 390 l 746 390 l 746 554 m 532 553 l 532 563 b 593 625 532 597 549 625 b 625 619 606 625 618 622 l 617 583 b 599 588 611 586 604 588 b 581 564 588 588 581 581 l 581 554 l 610 554 l 610 515 l 581 515 l 581 390 l 532 390 l 532 515 l 511 515 l 511 551 m 133 107 b 175 90 147 96 161 90 b 196 104 190 90 196 96 b 163 126 196 115 179 119 b 119 175 143 135 119 147 b 182 225 119 206 144 225 b 240 206 207 225 225 215 l 218 176 b 183 190 206 185 194 190 b 165 176 171 190 165 185 b 197 156 165 167 181 161 b 242 107 218 149 242 138 b 174 54 242 78 218 54 b 111 76 153 54 128 64 m 258 183 l 258 219 l 283 222 l 289 265 l 329 265 l 329 222 l 368 222 l 368 183 l 329 183 l 329 118 b 350 92 329 100 338 92 b 365 96 356 92 361 93 l 372 60 b 336 54 364 57 353 54 b 281 118 296 54 281 79 l 281 183 m 1263 551 l 1288 554 l 1293 597 l 1333 597 l 1333 554 l 1372 554 l 1372 515 l 1333 515 l 1333 450 b 1354 424 1333 432 1342 424 b 1369 428 1360 424 1365 425 l 1378 392 b 1342 386 1369 389 1357 386 b 1285 450 1300 386 1285 411 l 1285 515 l 1263 515 m 1157 224 b 1146 175 1149 208 1144 192 b 1193 156 1165 175 1181 172 l 1225 100 b 1274 114 1243 99 1260 104 b 1267 131 1271 119 1269 125 b 1267 164 1261 143 1260 153 l 1299 221 b 1263 256 1290 236 1278 247 b 1253 240 1258 250 1256 244 b 1211 224 1240 225 1228 224 b 1201 224 1208 224 1204 224 l 1157 224 m 358 386 b 314 440 325 386 314 408 l 314 621 l 363 621 l 363 439 b 371 425 363 429 367 425 b 376 426 374 425 374 425 l 383 390 b 358 386 378 388 369 386 m 1174 554 l 1178 525 l 1179 525 b 1225 557 1190 547 1208 557 b 1244 554 1235 557 1240 556 l 1236 513 b 1219 515 1231 514 1226 515 b 1183 485 1207 515 1192 507 l 1183 390 l 1135 390 l 1135 554 m 831 222 l 831 58 l 782 58 l 782 222 m 690 554 l 690 390 l 642 390 l 642 554 m 469 554 l 469 390 l 421 390 l 421 554 m 1289 176 b 1279 133 1281 161 1271 151 b 1300 96 1285 121 1293 108 b 1304 104 1300 99 1303 101 l 1353 189 b 1351 256 1368 217 1369 231 b 1340 272 1347 261 1344 267 b 1335 257 1339 267 1338 261 l 1289 176 m 1160 160 b 1138 161 1153 161 1144 161 b 1117 161 1131 161 1124 161 b 1122 154 1119 158 1121 157 l 1171 69 b 1225 36 1186 43 1197 36 b 1250 39 1233 36 1242 38 b 1235 56 1243 43 1239 49 b 1182 147 1219 82 1199 124 b 1160 160 1175 157 1171 158 m 1158 286 b 1093 233 1124 286 1100 267 b 1117 238 1101 238 1108 238 b 1121 238 1118 238 1119 238 l 1201 238 b 1211 236 1204 238 1208 236 b 1243 250 1224 236 1235 236 b 1264 286 1250 261 1258 275 b 1256 286 1261 286 1258 286 l 1158 286 m 944 186 b 915 140 925 186 915 168 b 944 93 915 111 925 93 b 975 140 965 93 975 111 b 944 186 975 168 965 186 m 661 186 b 632 140 646 186 632 171 b 663 93 632 108 643 93 b 689 108 672 93 681 99 l 689 175 b 661 186 679 183 671 186 m 638 603 b 667 628 638 618 650 628 b 694 603 683 628 694 618 b 667 578 694 588 683 578 b 638 603 650 578 638 588 m 444 578 b 417 603 428 578 417 588 b 444 628 417 618 428 628 b 472 603 461 628 472 618 b 444 578 472 588 461 578 m 778 271 b 806 296 778 286 790 296 b 833 271 822 296 833 286 b 806 246 833 257 822 246 b 778 271 790 246 778 257 m 1268 267 b 1307 235 1285 260 1296 249 b 1324 263 1313 243 1319 253 b 1314 297 1331 279 1328 288 b 1293 310 1308 301 1300 306 l 1268 267 m 1244 67 b 1268 44 1253 51 1258 44 b 1306 60 1281 44 1296 53 l 1281 103 b 1233 86 1267 93 1251 88 m 1132 175 b 1142 224 1131 192 1135 208 b 1121 224 1135 224 1128 224 b 1083 192 1096 224 1083 224 b 1083 175 1083 185 1083 181 m 1032 467 b 986 439 997 461 986 451 b 1006 424 986 429 994 424 b 1032 438 1017 424 1024 429 l 1032 467 m 211 467 b 167 439 176 461 167 451 b 185 424 167 429 174 424 b 211 438 196 424 203 429 l 211 467 "}}}
